<?xml version="1.0" encoding="UTF-8" standalone="no"?>
<!DOCTYPE svg PUBLIC "-//W3C//DTD SVG 1.1//EN" "http://www.w3.org/Graphics/SVG/1.1/DTD/svg11.dtd">
<svg width="100%" height="100%" viewBox="0 0 2253 425" version="1.1" xmlns="http://www.w3.org/2000/svg" xmlns:xlink="http://www.w3.org/1999/xlink" xml:space="preserve" xmlns:serif="http://www.serif.com/" style="fill-rule:evenodd;clip-rule:evenodd;stroke-linejoin:round;stroke-miterlimit:2;">
    <g transform="matrix(1,0,0,1,-134.009,-1744.98)">
        <g transform="matrix(1.22304,0,0,1.22304,-31.8869,-391.191)">
            <path d="M265.949,1895.91C265.458,1896.65 265.46,1897.61 265.954,1898.35C272.539,1908.19 316.86,1974.38 321.382,1981.13C321.624,1981.49 321.754,1981.92 321.754,1982.35C321.754,1982.39 321.754,1982.42 321.754,1982.46C321.754,1983.05 321.522,1983.61 321.109,1984.02C320.696,1984.43 320.136,1984.66 319.553,1984.66C309.848,1984.66 271.03,1984.66 263.447,1984.66C262.651,1984.66 261.917,1984.23 261.527,1983.54C257.869,1977.03 239.332,1944.02 233.426,1933.51C233.046,1932.83 232.338,1932.4 231.563,1932.38C230.787,1932.36 230.058,1932.75 229.645,1933.41C223.053,1943.87 201.965,1977.34 197.996,1983.64C197.593,1984.28 196.89,1984.66 196.134,1984.66C189.171,1984.66 154.315,1984.66 145.168,1984.66C143.953,1984.66 142.967,1983.68 142.967,1982.46C142.967,1982.43 142.967,1982.4 142.967,1982.37C142.967,1981.92 143.105,1981.49 143.362,1981.12C148.066,1974.36 193.339,1909.36 200.203,1899.5C200.726,1898.75 200.729,1897.75 200.211,1897C193.291,1886.92 147.065,1819.66 147.065,1819.66L147.065,1819.12C147.065,1818.57 147.282,1818.04 147.67,1817.66C148.058,1817.27 148.583,1817.05 149.132,1817.05C158.54,1817.05 197.182,1817.05 204.659,1817.05C205.437,1817.05 206.158,1817.46 206.554,1818.13C210.089,1824.11 227.297,1853.24 233.073,1863.01C233.469,1863.68 234.189,1864.09 234.968,1864.09C235.746,1864.09 236.467,1863.68 236.863,1863.01C242.639,1853.24 259.847,1824.11 263.382,1818.13C263.778,1817.46 264.498,1817.05 265.277,1817.05C272.203,1817.05 305.74,1817.05 314.462,1817.05C315.013,1817.05 315.541,1817.27 315.931,1817.66C316.32,1818.05 316.539,1818.58 316.539,1819.13C316.539,1819.44 316.539,1819.66 316.539,1819.66C316.539,1819.66 272.501,1886.03 265.949,1895.91ZM434.182,1782.01C434.182,1787.02 433.034,1792.03 430.74,1797.04C430.737,1797.04 430.735,1797.05 430.732,1797.05C428.434,1801.96 424.357,1807.63 418.502,1814.08C413.466,1819.61 406.691,1826.21 398.175,1833.87C397.498,1834.47 397.267,1835.44 397.593,1836.29C397.919,1837.14 398.736,1837.7 399.648,1837.7C408.65,1837.7 425.602,1837.7 431.636,1837.7C432.22,1837.7 432.78,1837.93 433.192,1838.35C433.605,1838.76 433.837,1839.32 433.837,1839.9C433.837,1843.26 433.837,1849.63 433.837,1852.99C433.837,1853.57 433.605,1854.13 433.192,1854.55C432.78,1854.96 432.22,1855.19 431.636,1855.19C420.588,1855.19 371.271,1855.19 360.223,1855.19C359.008,1855.19 358.022,1854.2 358.022,1852.99C358.022,1850.87 358.022,1847.77 358.022,1846.2C358.022,1845.58 358.287,1844.98 358.752,1844.56C372.29,1832.39 382.557,1822.74 389.554,1815.61C396.787,1808.25 401.782,1802.32 404.54,1797.82C404.544,1797.82 404.548,1797.81 404.552,1797.8C407.304,1793.2 408.68,1788.96 408.68,1785.08C408.68,1780.99 407.359,1777.82 404.717,1775.57C402.075,1773.32 398.399,1772.19 393.69,1772.19C389.784,1772.19 385.993,1773.01 382.317,1774.65C379.192,1775.99 375.802,1777.93 372.146,1780.46C371.251,1781.08 370.037,1780.95 369.291,1780.16C367.009,1777.73 362.311,1772.74 359.823,1770.09C359.399,1769.64 359.185,1769.03 359.232,1768.41C359.279,1767.8 359.583,1767.23 360.071,1766.85C364.982,1763.06 370.387,1760.04 376.287,1757.77C382.949,1755.22 389.841,1753.94 396.963,1753.94C404.195,1753.94 410.567,1754.96 416.078,1757C416.082,1757 416.087,1757 416.091,1757.01C421.719,1759.05 426.141,1762.17 429.357,1766.36C432.574,1770.56 434.182,1775.77 434.182,1782.01ZM505.319,1959.75C504.103,1959.75 503.118,1958.77 503.117,1957.55C503.117,1950.14 503.117,1926.16 503.117,1918.75C503.117,1917.54 502.132,1916.55 500.916,1916.55C493.939,1916.55 472.36,1916.55 465.382,1916.55C464.798,1916.55 464.238,1916.32 463.826,1915.91C463.413,1915.5 463.181,1914.94 463.181,1914.35C463.181,1908.55 463.181,1892.88 463.181,1887.07C463.181,1886.49 463.413,1885.93 463.826,1885.52C464.238,1885.11 464.798,1884.87 465.382,1884.87C472.36,1884.87 493.939,1884.87 500.916,1884.87C501.5,1884.87 502.06,1884.64 502.473,1884.23C502.886,1883.82 503.117,1883.26 503.117,1882.67C503.117,1875.3 503.117,1851.53 503.117,1844.16C503.117,1842.95 504.103,1841.96 505.319,1841.96C511.314,1841.96 527.888,1841.96 533.884,1841.96C535.1,1841.96 536.085,1842.95 536.085,1844.16C536.085,1851.53 536.085,1875.3 536.085,1882.67C536.085,1883.26 536.317,1883.82 536.73,1884.23C537.143,1884.64 537.703,1884.87 538.286,1884.87C545.228,1884.87 566.611,1884.87 573.553,1884.87C574.136,1884.87 574.696,1885.11 575.109,1885.52C575.522,1885.93 575.754,1886.49 575.754,1887.07C575.754,1892.88 575.754,1908.55 575.754,1914.35C575.754,1914.94 575.522,1915.5 575.109,1915.91C574.696,1916.32 574.136,1916.55 573.553,1916.55C566.611,1916.55 545.228,1916.55 538.286,1916.55C537.071,1916.55 536.085,1917.54 536.085,1918.75C536.085,1926.16 536.085,1950.14 536.085,1957.55C536.085,1958.77 535.1,1959.75 533.884,1959.75C527.888,1959.75 511.314,1959.75 505.319,1959.75ZM1098.12,1959.75C1096.91,1959.75 1095.92,1958.77 1095.92,1957.55C1095.92,1950.14 1095.92,1926.16 1095.92,1918.75C1095.92,1917.54 1094.94,1916.55 1093.72,1916.55C1086.74,1916.55 1065.16,1916.55 1058.19,1916.55C1057.6,1916.55 1057.04,1916.32 1056.63,1915.91C1056.22,1915.5 1055.99,1914.94 1055.99,1914.35C1055.99,1908.55 1055.99,1892.88 1055.99,1887.07C1055.99,1886.49 1056.22,1885.93 1056.63,1885.52C1057.04,1885.11 1057.6,1884.87 1058.19,1884.87C1065.16,1884.87 1086.74,1884.87 1093.72,1884.87C1094.31,1884.87 1094.87,1884.64 1095.28,1884.23C1095.69,1883.82 1095.92,1883.26 1095.92,1882.67C1095.92,1875.3 1095.92,1851.53 1095.92,1844.16C1095.92,1842.95 1096.91,1841.96 1098.12,1841.96C1104.12,1841.96 1120.69,1841.96 1126.69,1841.96C1127.9,1841.96 1128.89,1842.95 1128.89,1844.16C1128.89,1851.53 1128.89,1875.3 1128.89,1882.67C1128.89,1883.26 1129.12,1883.82 1129.54,1884.23C1129.95,1884.64 1130.51,1884.87 1131.09,1884.87C1138.03,1884.87 1159.42,1884.87 1166.36,1884.87C1166.94,1884.87 1167.5,1885.11 1167.91,1885.52C1168.33,1885.93 1168.56,1886.49 1168.56,1887.07C1168.56,1892.88 1168.56,1908.55 1168.56,1914.35C1168.56,1914.94 1168.33,1915.5 1167.91,1915.91C1167.5,1916.32 1166.94,1916.55 1166.36,1916.55C1159.42,1916.55 1138.03,1916.55 1131.09,1916.55C1129.88,1916.55 1128.89,1917.54 1128.89,1918.75C1128.89,1926.16 1128.89,1950.14 1128.89,1957.55C1128.89,1958.77 1127.9,1959.75 1126.69,1959.75C1120.69,1959.75 1104.12,1959.75 1098.12,1959.75ZM725.347,1817.05C748.942,1817.05 766.384,1824.49 777.671,1839.36C777.676,1839.37 777.681,1839.37 777.685,1839.38C789.224,1854.26 794.993,1876.32 794.993,1905.55C794.993,1928.12 790.505,1946.59 781.531,1960.95C781.527,1960.96 781.524,1960.96 781.521,1960.97C772.545,1975.07 761.006,1985.33 746.904,1991.74C746.9,1991.74 746.895,1991.74 746.89,1991.75C733.039,1998.16 718.162,2001.36 702.26,2001.36C693.642,2001.36 684.813,2000.2 675.772,1997.87C675.113,1997.7 674.411,1997.85 673.872,1998.26C673.333,1998.68 673.018,1999.32 673.018,2000C673.016,2011.62 673.016,2055.05 673.016,2065.35C673.016,2065.93 672.784,2066.49 672.371,2066.9C671.958,2067.31 671.399,2067.55 670.815,2067.55C662.28,2067.55 631.421,2067.55 622.886,2067.55C621.671,2067.55 620.685,2066.56 620.685,2065.35C620.685,2042.43 620.685,1847.87 620.685,1825.98C620.685,1824.84 621.547,1823.89 622.677,1823.79C630.838,1823.01 661.712,1820.06 670.605,1819.2C671.223,1819.15 671.836,1819.35 672.295,1819.77C672.754,1820.18 673.016,1820.78 673.016,1821.4C673.016,1823.58 673.016,1826.82 673.016,1829.36C673.016,1830.15 673.435,1830.87 674.115,1831.27C674.795,1831.66 675.634,1831.66 676.315,1831.27C692.883,1821.79 709.228,1817.05 725.347,1817.05ZM693.409,1963.27C708.544,1963.27 720.215,1958.52 728.424,1949.03C728.425,1949.03 728.425,1949.03 728.426,1949.03C736.891,1939.28 741.123,1924.79 741.123,1905.55C741.123,1893.01 739.973,1883.27 737.674,1876.35C737.664,1876.32 737.655,1876.29 737.646,1876.26C735.593,1869.1 732.134,1863.99 727.271,1860.92C722.397,1857.84 715.727,1856.3 707.262,1856.3C697.309,1856.3 686.27,1859.68 674.145,1866.44C673.449,1866.82 673.017,1867.56 673.017,1868.36C673.016,1878.62 673.016,1947.28 673.016,1959.49C673.016,1960.57 673.794,1961.49 674.855,1961.66C681.362,1962.73 687.546,1963.27 693.409,1963.27ZM950.487,1904.33C949.996,1905.07 949.998,1906.03 950.492,1906.77C957.206,1916.8 1003.18,1985.46 1007.79,1992.34C1008.03,1992.7 1008.16,1993.13 1008.16,1993.57C1008.16,1993.63 1008.16,1993.7 1008.16,1993.78C1008.16,1994.99 1007.18,1995.98 1005.96,1995.98C996.042,1995.98 955.635,1995.98 947.886,1995.98C947.09,1995.98 946.357,1995.55 945.967,1994.85C942.225,1988.19 922.902,1953.79 916.856,1943.02C916.476,1942.34 915.768,1941.92 914.992,1941.9C914.217,1941.88 913.488,1942.27 913.075,1942.92C906.328,1953.63 884.351,1988.51 880.293,1994.95C879.89,1995.59 879.187,1995.98 878.431,1995.98C871.314,1995.98 835.021,1995.98 825.668,1995.98C824.452,1995.98 823.467,1994.99 823.467,1993.78C823.467,1993.71 823.467,1993.65 823.467,1993.59C823.467,1993.14 823.605,1992.7 823.862,1992.33C828.656,1985.45 875.625,1918 882.623,1907.95C883.147,1907.2 883.15,1906.21 882.631,1905.45C875.582,1895.19 827.699,1825.52 827.699,1825.52L827.699,1824.93C827.699,1824.37 827.921,1823.84 828.317,1823.44C828.712,1823.05 829.248,1822.82 829.807,1822.82C839.496,1822.82 879.611,1822.82 887.239,1822.82C888.018,1822.82 888.738,1823.23 889.134,1823.9C892.751,1830.02 910.698,1860.4 916.614,1870.41C917.01,1871.08 917.73,1871.49 918.509,1871.49C919.287,1871.49 920.008,1871.08 920.404,1870.41C926.319,1860.4 944.267,1830.02 947.883,1823.9C948.279,1823.23 948.999,1822.82 949.778,1822.82C956.847,1822.82 991.679,1822.82 1000.66,1822.82C1001.83,1822.82 1002.78,1823.77 1002.78,1824.94C1002.78,1825.28 1002.78,1825.52 1002.78,1825.52C1002.78,1825.52 957.162,1894.27 950.487,1904.33ZM1316.51,1815.66C1327.87,1815.66 1339.1,1816.56 1350.2,1818.37C1350.21,1818.37 1350.23,1818.37 1350.25,1818.38C1361.01,1819.88 1374.19,1823.2 1389.79,1828.34C1390.69,1828.63 1391.3,1829.48 1391.3,1830.42C1391.3,1849.92 1391.3,2042.55 1391.3,2065.35C1391.3,2066.56 1390.31,2067.55 1389.1,2067.55L1340.8,2067.55C1340.21,2067.55 1339.65,2067.31 1339.24,2066.9C1338.83,2066.49 1338.6,2065.93 1338.6,2065.35C1338.6,2054.26 1338.6,2004.47 1338.6,1990.08C1338.6,1989.29 1338.17,1988.56 1337.49,1988.16C1336.8,1987.77 1335.96,1987.78 1335.28,1988.18C1320.74,1996.66 1305.32,2000.89 1289,2000.89C1264.97,2000.89 1246.89,1993.28 1234.75,1978.04C1234.74,1978.03 1234.74,1978.03 1234.74,1978.02C1222.86,1962.78 1216.92,1940.95 1216.92,1912.54C1216.92,1889.04 1221.82,1870.05 1231.63,1855.59C1231.64,1855.58 1231.64,1855.57 1231.65,1855.56C1241.72,1841.11 1254.24,1830.91 1269.21,1824.97C1269.23,1824.96 1269.24,1824.96 1269.25,1824.95C1284.23,1818.76 1299.98,1815.66 1316.51,1815.66ZM1302.95,1961.37C1308.89,1961.37 1314.7,1960.46 1320.38,1958.65C1325.73,1956.95 1331.42,1954.45 1337.45,1951.15C1338.16,1950.76 1338.6,1950.02 1338.6,1949.22C1338.6,1938.82 1338.6,1869.09 1338.6,1856.98C1338.6,1855.93 1337.86,1855.03 1336.83,1854.82C1330.25,1853.52 1323.99,1852.86 1318.06,1852.86C1303.86,1852.86 1292.49,1857.9 1283.97,1867.96C1283.96,1867.97 1283.95,1867.98 1283.95,1867.99C1275.43,1877.8 1271.17,1892.65 1271.17,1912.54C1271.17,1928.81 1273.75,1941.07 1278.91,1949.34C1278.92,1949.35 1278.92,1949.36 1278.93,1949.37C1284.1,1957.37 1292.1,1961.37 1302.95,1961.37ZM1521.53,1901.12C1520.95,1901.12 1520.39,1900.89 1519.98,1900.48C1519.56,1900.07 1519.33,1899.51 1519.33,1898.92C1519.33,1892.63 1519.33,1874.61 1519.33,1868.32C1519.33,1867.74 1519.56,1867.18 1519.98,1866.76C1520.39,1866.35 1520.95,1866.12 1521.53,1866.12C1537.37,1866.12 1633.74,1866.12 1649.58,1866.12C1650.16,1866.12 1650.72,1866.35 1651.13,1866.76C1651.55,1867.18 1651.78,1867.74 1651.78,1868.32C1651.78,1874.61 1651.78,1892.63 1651.78,1898.92C1651.78,1899.51 1651.55,1900.07 1651.13,1900.48C1650.72,1900.89 1650.16,1901.12 1649.58,1901.12C1633.74,1901.12 1537.37,1901.12 1521.53,1901.12ZM1521.53,1955.36C1520.95,1955.36 1520.39,1955.13 1519.98,1954.72C1519.56,1954.31 1519.33,1953.75 1519.33,1953.16C1519.33,1946.87 1519.33,1928.85 1519.33,1922.56C1519.33,1921.98 1519.56,1921.42 1519.98,1921C1520.39,1920.59 1520.95,1920.36 1521.53,1920.36C1537.37,1920.36 1633.74,1920.36 1649.58,1920.36C1650.16,1920.36 1650.72,1920.59 1651.13,1921C1651.55,1921.42 1651.78,1921.98 1651.78,1922.56C1651.78,1928.85 1651.78,1946.87 1651.78,1953.16C1651.78,1953.75 1651.55,1954.31 1651.13,1954.72C1650.72,1955.13 1650.16,1955.36 1649.58,1955.36C1633.74,1955.36 1537.37,1955.36 1521.53,1955.36ZM1837.61,2042.82C1816.27,2042.82 1797.86,2038.13 1782.36,2028.76C1782.36,2028.75 1782.35,2028.75 1782.34,2028.74C1766.85,2019.1 1754.87,2004.52 1746.39,1984.99C1746.39,1984.99 1746.39,1984.98 1746.39,1984.98C1737.91,1965.18 1733.67,1940.44 1733.67,1910.74C1733.67,1876.88 1739.08,1850.17 1749.9,1830.64C1760.72,1811.1 1774.31,1797.55 1790.68,1790C1807.06,1782.44 1824.45,1778.67 1842.88,1778.67C1875.62,1778.67 1901.05,1789.34 1919.18,1810.7C1919.18,1810.7 1919.19,1810.71 1919.2,1810.72C1937.61,1831.82 1946.82,1865.42 1946.82,1911.52C1946.82,1960.5 1936.14,1994.62 1914.8,2013.9C1893.75,2033.18 1868.02,2042.82 1837.61,2042.82ZM1838.93,1995.93C1849.15,1995.93 1857.48,1993.2 1863.91,1987.74C1863.92,1987.73 1863.93,1987.72 1863.94,1987.71C1870.66,1982.24 1875.62,1973.38 1878.84,1961.16C1878.84,1961.15 1878.84,1961.15 1878.84,1961.14C1882.05,1948.64 1883.66,1931.84 1883.66,1910.74C1883.66,1882.09 1880.45,1860.73 1874.01,1846.66C1867.58,1832.59 1856.76,1825.56 1841.56,1825.56C1831.33,1825.56 1822.85,1828.42 1816.12,1834.15C1809.69,1839.62 1804.87,1848.74 1801.65,1861.5C1801.65,1861.5 1801.65,1861.51 1801.65,1861.51C1798.43,1874.01 1796.82,1890.68 1796.82,1911.52C1796.82,1940.18 1800.04,1961.41 1806.47,1975.22C1812.9,1989.02 1823.72,1995.93 1838.93,1995.93Z" style="fill:none;stroke:rgb(52,52,52);stroke-width:14.65px;"/>
        </g>
        <g>
            <path d="M143.059,2035.27L160.995,2056.79L226.761,2056.79L265.622,1997.6" style="fill:none;stroke:rgb(52,52,52);stroke-width:17.92px;stroke-linecap:round;stroke-miterlimit:1.5;"/>
            <path d="M290.732,2038.86L304.483,2057.99L383.401,2057.99L363.074,2034.07" style="fill:none;stroke:rgb(52,52,52);stroke-width:17.92px;stroke-linecap:round;stroke-miterlimit:1.5;"/>
            <path d="M222.575,1831.4L252.469,1847.54L265.024,1869.06" style="fill:none;stroke:rgb(52,52,52);stroke-width:17.92px;stroke-linecap:round;stroke-miterlimit:1.5;"/>
            <path d="M358.291,1831.4L374.433,1851.13L314.049,1947.98" style="fill:none;stroke:rgb(52,52,52);stroke-width:17.92px;stroke-linecap:round;stroke-miterlimit:1.5;"/>
            <path d="M175.182,2038.66L186.182,2053.01" style="fill:none;stroke:rgb(52,52,52);stroke-width:17.92px;stroke-linecap:round;stroke-miterlimit:1.5;"/>
            <path d="M211.532,2034.36L225.881,2051.58" style="fill:none;stroke:rgb(52,52,52);stroke-width:17.92px;stroke-linecap:round;stroke-miterlimit:1.5;"/>
            <path d="M234.49,2001.36L246.926,2019.53" style="fill:none;stroke:rgb(52,52,52);stroke-width:17.92px;stroke-linecap:round;stroke-miterlimit:1.5;"/>
            <path d="M330.627,2040.1L344.019,2056.84" style="fill:none;stroke:rgb(52,52,52);stroke-width:17.92px;stroke-linecap:round;stroke-miterlimit:1.5;"/>
            <path d="M311.973,1907.13L323.931,1930.57" style="fill:none;stroke:rgb(52,52,52);stroke-width:17.92px;stroke-linecap:round;stroke-miterlimit:1.5;"/>
            <path d="M337.801,1870.31L346.889,1890.87" style="fill:none;stroke:rgb(52,52,52);stroke-width:17.92px;stroke-linecap:round;stroke-miterlimit:1.5;"/>
            <path d="M143.059,2035.27L160.995,2056.79L226.761,2056.79L265.622,1997.6" style="fill:none;stroke:rgb(52,52,52);stroke-width:17.92px;stroke-linecap:round;stroke-miterlimit:1.5;"/>
            <path d="M290.732,2038.86L304.483,2057.99L383.401,2057.99L363.074,2034.07" style="fill:none;stroke:rgb(52,52,52);stroke-width:17.92px;stroke-linecap:round;stroke-miterlimit:1.5;"/>
            <path d="M222.575,1831.4L252.469,1847.54L265.024,1869.06" style="fill:none;stroke:rgb(52,52,52);stroke-width:17.92px;stroke-linecap:round;stroke-miterlimit:1.5;"/>
            <path d="M358.291,1831.4L374.433,1851.13L314.049,1947.98" style="fill:none;stroke:rgb(52,52,52);stroke-width:17.92px;stroke-linecap:round;stroke-miterlimit:1.5;"/>
            <path d="M175.182,2038.66L186.182,2053.01" style="fill:none;stroke:rgb(52,52,52);stroke-width:17.92px;stroke-linecap:round;stroke-miterlimit:1.5;"/>
            <path d="M211.532,2034.36L225.881,2051.58" style="fill:none;stroke:rgb(52,52,52);stroke-width:17.92px;stroke-linecap:round;stroke-miterlimit:1.5;"/>
            <path d="M234.49,2001.36L246.926,2019.53" style="fill:none;stroke:rgb(52,52,52);stroke-width:17.92px;stroke-linecap:round;stroke-miterlimit:1.5;"/>
            <path d="M330.627,2040.1L344.019,2056.84" style="fill:none;stroke:rgb(52,52,52);stroke-width:17.92px;stroke-linecap:round;stroke-miterlimit:1.5;"/>
            <path d="M311.973,1907.13L323.931,1930.57" style="fill:none;stroke:rgb(52,52,52);stroke-width:17.92px;stroke-linecap:round;stroke-miterlimit:1.5;"/>
            <path d="M337.801,1870.31L346.889,1890.87" style="fill:none;stroke:rgb(52,52,52);stroke-width:17.92px;stroke-linecap:round;stroke-miterlimit:1.5;"/>
        </g>
        <g transform="matrix(1.02332,0,0,1.0371,833.674,-58.6106)">
            <path d="M143.059,2035.27L160.995,2056.79L226.761,2056.79L265.622,1997.6" style="fill:none;stroke:rgb(52,52,52);stroke-width:17.39px;stroke-linecap:round;stroke-miterlimit:1.5;"/>
            <path d="M290.732,2038.86L304.483,2057.99L383.401,2057.99L363.074,2034.07" style="fill:none;stroke:rgb(52,52,52);stroke-width:17.39px;stroke-linecap:round;stroke-miterlimit:1.5;"/>
            <path d="M222.575,1831.4L252.469,1847.54L265.024,1869.06" style="fill:none;stroke:rgb(52,52,52);stroke-width:17.39px;stroke-linecap:round;stroke-miterlimit:1.5;"/>
            <path d="M358.291,1831.4L374.433,1851.13L314.049,1947.98" style="fill:none;stroke:rgb(52,52,52);stroke-width:17.39px;stroke-linecap:round;stroke-miterlimit:1.5;"/>
            <path d="M175.182,2038.66L186.182,2053.01" style="fill:none;stroke:rgb(52,52,52);stroke-width:17.39px;stroke-linecap:round;stroke-miterlimit:1.5;"/>
            <path d="M211.532,2034.36L225.881,2051.58" style="fill:none;stroke:rgb(52,52,52);stroke-width:17.39px;stroke-linecap:round;stroke-miterlimit:1.5;"/>
            <path d="M234.49,2001.36L246.926,2019.53" style="fill:none;stroke:rgb(52,52,52);stroke-width:17.39px;stroke-linecap:round;stroke-miterlimit:1.5;"/>
            <path d="M330.627,2040.1L344.019,2056.84" style="fill:none;stroke:rgb(52,52,52);stroke-width:17.39px;stroke-linecap:round;stroke-miterlimit:1.5;"/>
            <path d="M311.973,1907.13L323.931,1930.57" style="fill:none;stroke:rgb(52,52,52);stroke-width:17.39px;stroke-linecap:round;stroke-miterlimit:1.5;"/>
            <path d="M337.801,1870.31L346.889,1890.87" style="fill:none;stroke:rgb(52,52,52);stroke-width:17.39px;stroke-linecap:round;stroke-miterlimit:1.5;"/>
            <path d="M143.059,2035.27L160.995,2056.79L226.761,2056.79L265.622,1997.6" style="fill:none;stroke:rgb(52,52,52);stroke-width:17.39px;stroke-linecap:round;stroke-miterlimit:1.5;"/>
            <path d="M290.732,2038.86L304.483,2057.99L383.401,2057.99L363.074,2034.07" style="fill:none;stroke:rgb(52,52,52);stroke-width:17.39px;stroke-linecap:round;stroke-miterlimit:1.5;"/>
            <path d="M222.575,1831.4L252.469,1847.54L265.024,1869.06" style="fill:none;stroke:rgb(52,52,52);stroke-width:17.39px;stroke-linecap:round;stroke-miterlimit:1.5;"/>
            <path d="M358.291,1831.4L374.433,1851.13L314.049,1947.98" style="fill:none;stroke:rgb(52,52,52);stroke-width:17.39px;stroke-linecap:round;stroke-miterlimit:1.5;"/>
            <path d="M175.182,2038.66L186.182,2053.01" style="fill:none;stroke:rgb(52,52,52);stroke-width:17.39px;stroke-linecap:round;stroke-miterlimit:1.5;"/>
            <path d="M211.532,2034.36L225.881,2051.58" style="fill:none;stroke:rgb(52,52,52);stroke-width:17.39px;stroke-linecap:round;stroke-miterlimit:1.5;"/>
            <path d="M234.49,2001.36L246.926,2019.53" style="fill:none;stroke:rgb(52,52,52);stroke-width:17.39px;stroke-linecap:round;stroke-miterlimit:1.5;"/>
            <path d="M330.627,2040.1L344.019,2056.84" style="fill:none;stroke:rgb(52,52,52);stroke-width:17.39px;stroke-linecap:round;stroke-miterlimit:1.5;"/>
            <path d="M311.973,1907.13L323.931,1930.57" style="fill:none;stroke:rgb(52,52,52);stroke-width:17.39px;stroke-linecap:round;stroke-miterlimit:1.5;"/>
            <path d="M337.801,1870.31L346.889,1890.87" style="fill:none;stroke:rgb(52,52,52);stroke-width:17.39px;stroke-linecap:round;stroke-miterlimit:1.5;"/>
        </g>
        <path d="M406.15,1876.24L419.9,1897.16L518.548,1896.56L522.135,1870.86L501.808,1858.3" style="fill:none;stroke:rgb(52,52,52);stroke-width:17.92px;stroke-linecap:round;stroke-miterlimit:1.5;"/>
        <path d="M422.89,1789.55L437.836,1804.49C437.836,1804.49 455.772,1787.75 464.142,1790.14" style="fill:none;stroke:rgb(52,52,52);stroke-width:17.92px;stroke-linecap:round;stroke-miterlimit:1.5;"/>
        <path d="M481.481,1759.06C481.481,1759.06 511.972,1763.84 519.146,1789.55C522.364,1801.08 508.982,1845.75 484.47,1854.71" style="fill:none;stroke:rgb(52,52,52);stroke-width:17.92px;stroke-linecap:round;stroke-miterlimit:1.5;"/>
        <g>
            <path d="M624.968,1863.68L644.698,1877.43L645.893,1910.91" style="fill:none;stroke:rgb(52,52,52);stroke-width:17.92px;stroke-linecap:round;stroke-miterlimit:1.5;"/>
            <path d="M672.797,1914.5L690.733,1929.45L690.733,1975.48L644.1,1974.88L642.306,2027.5L599.26,2027.5L585.509,2006.57" style="fill:none;stroke:rgb(52,52,52);stroke-width:17.92px;stroke-linecap:round;stroke-miterlimit:1.5;"/>
            <path d="M535.288,1952.16L548.441,1974.88L580.128,1974.88" style="fill:none;stroke:rgb(52,52,52);stroke-width:17.92px;stroke-linecap:round;stroke-miterlimit:1.5;"/>
            <path d="M558.662,1954.62L568.228,1968.49" style="fill:none;stroke:rgb(52,52,52);stroke-width:17.92px;stroke-linecap:round;stroke-miterlimit:1.5;"/>
            <g transform="matrix(1,0,0,1,-11.2647,5.38748)">
                <path d="M627.536,2005.31L637.58,2017.27" style="fill:none;stroke:rgb(52,52,52);stroke-width:17.92px;stroke-linecap:round;stroke-miterlimit:1.5;"/>
            </g>
            <path d="M633.275,1957.96L644.754,1975.66" style="fill:none;stroke:rgb(52,52,52);stroke-width:17.92px;stroke-linecap:round;stroke-miterlimit:1.5;"/>
            <path d="M671.539,1955.09L684.931,1970.4" style="fill:none;stroke:rgb(52,52,52);stroke-width:17.92px;stroke-linecap:round;stroke-miterlimit:1.5;"/>
            <path d="M629.927,1882.39L641.406,1895.79" style="fill:none;stroke:rgb(52,52,52);stroke-width:17.92px;stroke-linecap:round;stroke-miterlimit:1.5;"/>
            <path d="M627.26,1986.26L641.219,2005.37" style="fill:none;stroke:rgb(52,52,52);stroke-width:17.92px;stroke-linecap:round;stroke-miterlimit:1.5;"/>
        </g>
        <g transform="matrix(1.02692,0,0,1,710.798,2.27374e-13)">
            <path d="M624.968,1863.68L644.698,1877.43L645.893,1910.91" style="fill:none;stroke:rgb(52,52,52);stroke-width:17.68px;stroke-linecap:round;stroke-miterlimit:1.5;"/>
            <path d="M672.797,1914.5L690.733,1929.45L690.733,1975.48L644.1,1974.88L642.306,2027.5L599.26,2027.5L585.509,2006.57" style="fill:none;stroke:rgb(52,52,52);stroke-width:17.68px;stroke-linecap:round;stroke-miterlimit:1.5;"/>
            <path d="M535.288,1952.16L548.441,1974.88L580.128,1974.88" style="fill:none;stroke:rgb(52,52,52);stroke-width:17.68px;stroke-linecap:round;stroke-miterlimit:1.5;"/>
            <path d="M558.662,1954.62L568.228,1968.49" style="fill:none;stroke:rgb(52,52,52);stroke-width:17.68px;stroke-linecap:round;stroke-miterlimit:1.5;"/>
            <g transform="matrix(1,0,0,1,-11.2647,5.38748)">
                <path d="M627.536,2005.31L637.58,2017.27" style="fill:none;stroke:rgb(52,52,52);stroke-width:17.68px;stroke-linecap:round;stroke-miterlimit:1.5;"/>
            </g>
            <path d="M633.275,1957.96L644.754,1975.66" style="fill:none;stroke:rgb(52,52,52);stroke-width:17.68px;stroke-linecap:round;stroke-miterlimit:1.5;"/>
            <path d="M671.539,1955.09L684.931,1970.4" style="fill:none;stroke:rgb(52,52,52);stroke-width:17.68px;stroke-linecap:round;stroke-miterlimit:1.5;"/>
            <path d="M629.927,1882.39L641.406,1895.79" style="fill:none;stroke:rgb(52,52,52);stroke-width:17.68px;stroke-linecap:round;stroke-miterlimit:1.5;"/>
            <path d="M627.26,1986.26L641.219,2005.37" style="fill:none;stroke:rgb(52,52,52);stroke-width:17.68px;stroke-linecap:round;stroke-miterlimit:1.5;"/>
        </g>
        <path d="M728.93,2137.5L743.278,2158.43L811.435,2157.83L815.022,2078.91C815.022,2078.91 903.208,2079.92 934.595,2040.65C955.702,2014.24 965.157,1972.43 962.695,1949.77C956.716,1894.77 928.019,1867.27 928.019,1867.27" style="fill:none;stroke:rgb(52,52,52);stroke-width:17.92px;stroke-linecap:round;stroke-miterlimit:1.5;"/>
        <path d="M442.615,1879.54L453.975,1895.68" style="fill:none;stroke:rgb(52,52,52);stroke-width:17.92px;stroke-linecap:round;stroke-miterlimit:1.5;"/>
        <path d="M486.259,1878.94L510.772,1892.69" style="fill:none;stroke:rgb(52,52,52);stroke-width:17.92px;stroke-linecap:round;stroke-miterlimit:1.5;"/>
        <path d="M485.064,1826.33L497.021,1839.49" style="fill:none;stroke:rgb(52,52,52);stroke-width:17.92px;stroke-linecap:round;stroke-miterlimit:1.5;"/>
        <path d="M501.206,1795.84L513.163,1804.81" style="fill:none;stroke:rgb(52,52,52);stroke-width:17.92px;stroke-linecap:round;stroke-miterlimit:1.5;"/>
        <path d="M768.942,2139.92L779.106,2154.27" style="fill:none;stroke:rgb(52,52,52);stroke-width:17.92px;stroke-linecap:round;stroke-miterlimit:1.5;"/>
        <path d="M795.248,2127.96L807.205,2148.29" style="fill:none;stroke:rgb(52,52,52);stroke-width:17.92px;stroke-linecap:round;stroke-miterlimit:1.5;"/>
        <path d="M798.237,2090.9L811.39,2112.42" style="fill:none;stroke:rgb(52,52,52);stroke-width:17.92px;stroke-linecap:round;stroke-miterlimit:1.5;"/>
        <path d="M797.042,2056.22L813.782,2082.53" style="fill:none;stroke:rgb(52,52,52);stroke-width:17.92px;stroke-linecap:round;stroke-miterlimit:1.5;"/>
        <path d="M847.86,2056.22L856.828,2074.75" style="fill:none;stroke:rgb(52,52,52);stroke-width:17.92px;stroke-linecap:round;stroke-miterlimit:1.5;"/>
        <path d="M889.711,2041.87L897.483,2061.6" style="fill:none;stroke:rgb(52,52,52);stroke-width:17.92px;stroke-linecap:round;stroke-miterlimit:1.5;"/>
        <path d="M914.223,2021.54L920.8,2046.65" style="fill:none;stroke:rgb(52,52,52);stroke-width:17.92px;stroke-linecap:round;stroke-miterlimit:1.5;"/>
        <path d="M934.551,1991.05L946.508,2008.39" style="fill:none;stroke:rgb(52,52,52);stroke-width:17.92px;stroke-linecap:round;stroke-miterlimit:1.5;"/>
        <path d="M944.714,1950.4L959.063,1964.75" style="fill:none;stroke:rgb(52,52,52);stroke-width:17.92px;stroke-linecap:round;stroke-miterlimit:1.5;"/>
        <path d="M816.137,1910.09C816.137,1910.09 855.166,1888.66 865.88,1900.91" style="fill:none;stroke:rgb(52,52,52);stroke-width:17.92px;stroke-linecap:round;stroke-miterlimit:1.5;"/>
        <path d="M816.137,1910.09L816.137,2001.16" style="fill:none;stroke:rgb(52,52,52);stroke-width:17.92px;stroke-linecap:round;stroke-miterlimit:1.5;"/>
        <path d="M810.015,1889.43L824.555,1902.44" style="fill:none;stroke:rgb(52,52,52);stroke-width:17.92px;stroke-linecap:round;stroke-miterlimit:1.5;"/>
        <path d="M798.536,1916.98L810.781,1938.4" style="fill:none;stroke:rgb(52,52,52);stroke-width:17.92px;stroke-linecap:round;stroke-miterlimit:1.5;"/>
        <path d="M796.24,1965.95L810.781,1982.03" style="fill:none;stroke:rgb(52,52,52);stroke-width:17.92px;stroke-linecap:round;stroke-miterlimit:1.5;"/>
        <path d="M1604.55,2136.76L1623.68,2159.48L1690.64,2160.08L1694.23,1865.33L1670.91,1847.4" style="fill:none;stroke:rgb(52,52,52);stroke-width:17.92px;stroke-linecap:round;stroke-miterlimit:1.5;"/>
        <path d="M1551.93,2001.65C1551.93,2001.65 1517.26,1885.06 1603.35,1896.42" style="fill:none;stroke:rgb(52,52,52);stroke-width:17.92px;stroke-linecap:round;stroke-miterlimit:1.5;"/>
        <path d="M1480.19,2031.54C1480.19,2031.54 1517.86,2100.89 1603.35,2066.81" style="fill:none;stroke:rgb(52,52,52);stroke-width:17.92px;stroke-linecap:round;stroke-miterlimit:1.5;"/>
        <path d="M1672.7,1877.29L1690.04,1896.42" style="fill:none;stroke:rgb(52,52,52);stroke-width:17.92px;stroke-linecap:round;stroke-miterlimit:1.5;"/>
        <path d="M1673.9,1923.92L1691.24,1943.06" style="fill:none;stroke:rgb(52,52,52);stroke-width:17.92px;stroke-linecap:round;stroke-miterlimit:1.5;"/>
        <path d="M1672.11,1968.76L1690.04,1989.09" style="fill:none;stroke:rgb(52,52,52);stroke-width:17.92px;stroke-linecap:round;stroke-miterlimit:1.5;"/>
        <path d="M1674.5,2019.58L1689.44,2036.92" style="fill:none;stroke:rgb(52,52,52);stroke-width:17.92px;stroke-linecap:round;stroke-miterlimit:1.5;"/>
        <path d="M1676.89,2063.82L1690.04,2078.77" style="fill:none;stroke:rgb(52,52,52);stroke-width:17.92px;stroke-linecap:round;stroke-miterlimit:1.5;"/>
        <path d="M1673.9,2091.92L1687.05,2116.44" style="fill:none;stroke:rgb(52,52,52);stroke-width:17.92px;stroke-linecap:round;stroke-miterlimit:1.5;"/>
        <path d="M1672.7,2136.76L1687.05,2153.5" style="fill:none;stroke:rgb(52,52,52);stroke-width:17.92px;stroke-linecap:round;stroke-miterlimit:1.5;"/>
        <path d="M1637.43,2142.14L1651.18,2155.3" style="fill:none;stroke:rgb(52,52,52);stroke-width:17.92px;stroke-linecap:round;stroke-miterlimit:1.5;"/>
        <path d="M1562.1,1879.68L1581.83,1895.23" style="fill:none;stroke:rgb(52,52,52);stroke-width:17.92px;stroke-linecap:round;stroke-miterlimit:1.5;"/>
        <path d="M1542.97,1896.42L1557.32,1908.98" style="fill:none;stroke:rgb(52,52,52);stroke-width:17.92px;stroke-linecap:round;stroke-miterlimit:1.5;"/>
        <path d="M1530.41,1926.32L1541.77,1935.28" style="fill:none;stroke:rgb(52,52,52);stroke-width:17.92px;stroke-linecap:round;stroke-miterlimit:1.5;"/>
        <path d="M1528.62,1955.61L1542.37,1965.78" style="fill:none;stroke:rgb(52,52,52);stroke-width:17.92px;stroke-linecap:round;stroke-miterlimit:1.5;"/>
        <path d="M1567.48,2056.65L1570.47,2069.2" style="fill:none;stroke:rgb(52,52,52);stroke-width:17.92px;stroke-linecap:round;stroke-miterlimit:1.5;"/>
        <path d="M1826.98,2000.99L1844.32,2019.88L2009.69,2018.92L2008.74,1972.05L1988.65,1958.66" style="fill:none;stroke:rgb(52,52,52);stroke-width:17.92px;stroke-linecap:round;stroke-miterlimit:1.5;"/>
        <path d="M1829.62,1935.46L1843.13,1950.53" style="fill:none;stroke:rgb(52,52,52);stroke-width:17.92px;stroke-linecap:round;stroke-miterlimit:1.5;"/>
        <path d="M1988.65,1893.37L2008.14,1909.87L2008.62,1950.88" style="fill:none;stroke:rgb(52,52,52);stroke-width:17.92px;stroke-linecap:round;stroke-miterlimit:1.5;"/>
        <path d="M1862.53,1935.43L1879.75,1952.17" style="fill:none;stroke:rgb(52,52,52);stroke-width:17.92px;stroke-linecap:round;stroke-miterlimit:1.5;"/>
        <path d="M1908.45,1936.39L1925.19,1953.61" style="fill:none;stroke:rgb(52,52,52);stroke-width:17.92px;stroke-linecap:round;stroke-miterlimit:1.5;"/>
        <path d="M1950.06,1934.95L1965.84,1951.69" style="fill:none;stroke:rgb(52,52,52);stroke-width:17.92px;stroke-linecap:round;stroke-miterlimit:1.5;"/>
        <path d="M1986.41,1935.43L2002.67,1950.74" style="fill:none;stroke:rgb(52,52,52);stroke-width:17.92px;stroke-linecap:round;stroke-miterlimit:1.5;"/>
        <path d="M1865.88,2003.35L1878.32,2016.74" style="fill:none;stroke:rgb(52,52,52);stroke-width:17.92px;stroke-linecap:round;stroke-miterlimit:1.5;"/>
        <path d="M1909.4,2003.83L1925.19,2019.61" style="fill:none;stroke:rgb(52,52,52);stroke-width:17.92px;stroke-linecap:round;stroke-miterlimit:1.5;"/>
        <path d="M1951.49,2003.35L1970.15,2020.09" style="fill:none;stroke:rgb(52,52,52);stroke-width:17.92px;stroke-linecap:round;stroke-miterlimit:1.5;"/>
        <path d="M1989.76,2000L2006.02,2011.96" style="fill:none;stroke:rgb(52,52,52);stroke-width:17.92px;stroke-linecap:round;stroke-miterlimit:1.5;"/>
        <path d="M2136.42,2084.72C2136.42,2084.72 2206.53,2173.12 2315.18,2102.66C2378.15,2061.82 2390.71,1939.41 2363.61,1882.64C2336.72,1833.88 2306.21,1812.69 2306.21,1812.69" style="fill:none;stroke:rgb(52,52,52);stroke-width:17.92px;stroke-linecap:round;stroke-miterlimit:1.5;"/>
        <path d="M2198.79,2042.14C2198.79,2042.14 2149.76,1840.06 2258.57,1864.58" style="fill:none;stroke:rgb(52,52,52);stroke-width:17.92px;stroke-linecap:round;stroke-miterlimit:1.5;"/>
        <path d="M2199.39,1848.43L2214.93,1866.97" style="fill:none;stroke:rgb(52,52,52);stroke-width:17.92px;stroke-linecap:round;stroke-miterlimit:1.5;"/>
        <path d="M2177.26,1886.7L2195.2,1893.27" style="fill:none;stroke:rgb(52,52,52);stroke-width:17.92px;stroke-linecap:round;stroke-miterlimit:1.5;"/>
        <path d="M2171.88,1936.32L2188.03,1939.31" style="fill:none;stroke:rgb(52,52,52);stroke-width:17.92px;stroke-linecap:round;stroke-miterlimit:1.5;"/>
        <path d="M2173.68,1975.18L2185.44,1976.98" style="fill:none;stroke:rgb(52,52,52);stroke-width:17.92px;stroke-linecap:round;stroke-miterlimit:1.5;"/>
        <path d="M2350.64,1904.04L2373.96,1919.58" style="fill:none;stroke:rgb(52,52,52);stroke-width:17.92px;stroke-linecap:round;stroke-miterlimit:1.5;"/>
        <path d="M2354.23,1948.28L2376.35,1957.25" style="fill:none;stroke:rgb(52,52,52);stroke-width:17.92px;stroke-linecap:round;stroke-miterlimit:1.5;"/>
        <path d="M2352.44,1982.95L2373.96,1994.31" style="fill:none;stroke:rgb(52,52,52);stroke-width:17.92px;stroke-linecap:round;stroke-miterlimit:1.5;"/>
        <path d="M2349.45,2011.05L2363.8,2022.41" style="fill:none;stroke:rgb(52,52,52);stroke-width:17.92px;stroke-linecap:round;stroke-miterlimit:1.5;"/>
        <path d="M2336.89,2042.74L2351.84,2057.09" style="fill:none;stroke:rgb(52,52,52);stroke-width:17.92px;stroke-linecap:round;stroke-miterlimit:1.5;"/>
        <path d="M2312.98,2072.63L2328.28,2087.72" style="fill:none;stroke:rgb(52,52,52);stroke-width:17.92px;stroke-linecap:round;stroke-miterlimit:1.5;"/>
        <path d="M2284.88,2091.76L2294.45,2109.7" style="fill:none;stroke:rgb(52,52,52);stroke-width:17.92px;stroke-linecap:round;stroke-miterlimit:1.5;"/>
        <path d="M2243.03,2107.31L2245.42,2125.84" style="fill:none;stroke:rgb(52,52,52);stroke-width:17.92px;stroke-linecap:round;stroke-miterlimit:1.5;"/>
    </g>
</svg>
