<?xml version="1.0" encoding="UTF-8" standalone="no"?>
<!DOCTYPE svg PUBLIC "-//W3C//DTD SVG 1.1//EN" "http://www.w3.org/Graphics/SVG/1.1/DTD/svg11.dtd">
<svg width="100%" height="100%" viewBox="0 0 648 553" version="1.1" xmlns="http://www.w3.org/2000/svg" xmlns:xlink="http://www.w3.org/1999/xlink" xml:space="preserve" xmlns:serif="http://www.serif.com/" style="fill-rule:evenodd;clip-rule:evenodd;stroke-linejoin:round;stroke-miterlimit:2;">
    <g transform="matrix(1,0,0,1,-98.8963,-107.747)">
        <g transform="matrix(0.514198,0,0,0.514198,-193.031,-53.3571)">
            <path d="M764.114,546.834L711.085,546.834C711.085,546.834 639.087,444.182 634.87,432.506L634.87,623.052C634.87,626.098 632.401,628.567 629.356,628.567C616.735,628.567 585.868,628.567 573.247,628.567C570.202,628.567 567.733,626.098 567.733,623.052C567.733,584.625 567.733,357.254 567.733,318.827C567.733,315.781 570.202,313.312 573.247,313.312C589.936,313.312 638.762,313.312 638.762,313.312C638.762,313.312 734.437,462.507 737.357,470.939C741.897,456.02 821.92,314.095 821.92,314.095C821.92,314.095 851.883,314.343 869.638,314.491C872.378,314.513 874.911,315.953 876.333,318.295C877.755,320.637 877.864,323.548 876.62,325.989C852.841,372.667 764.114,546.834 764.114,546.834Z" style="fill:rgb(63,215,138);fill-rule:nonzero;"/>
        </g>
        <g transform="matrix(0.514198,0,0,0.514198,-193.031,-53.3571)">
            <g transform="matrix(1.75591,0,0,1.75591,-321.687,48.7257)">
                <circle cx="684.36" cy="240.453" r="21.686" style="fill:rgb(63,215,138);"/>
            </g>
        </g>
        <g transform="matrix(0.514198,0,0,0.514198,-193.031,-53.3571)">
            <g transform="matrix(1.75591,0,0,1.75591,-321.687,168.274)">
                <circle cx="684.36" cy="240.453" r="21.686" style="fill:rgb(63,215,138);"/>
            </g>
        </g>
        <g transform="matrix(0.514198,0,0,0.514198,-193.031,-53.3571)">
            <path d="M1141.67,313.312C1145.84,313.312 1149.57,315.92 1150.99,319.837C1167.3,364.614 1261.97,624.675 1261.97,624.675L1261.97,625.245C1261.97,627.08 1260.49,628.567 1258.65,628.567C1247.49,628.567 1211.16,628.567 1195.65,628.567C1191.38,628.567 1187.6,625.844 1186.24,621.803C1180.03,603.29 1163.21,553.159 1163.21,553.159L1046.45,553.159C1046.45,553.159 1029.99,603.191 1023.88,621.748C1022.55,625.817 1018.75,628.567 1014.46,628.567C999.202,628.567 964.007,628.567 952.711,628.567C950.745,628.567 949.152,626.973 949.152,625.008C949.152,624.801 949.152,624.675 949.152,624.675C949.152,624.675 1043.83,364.614 1060.13,319.837C1061.56,315.92 1065.28,313.312 1069.45,313.312C1085.6,313.312 1125.53,313.312 1141.67,313.312ZM1064.94,497.697L1144.73,497.697L1104.35,377.531L1064.94,497.697Z" style="fill:rgb(222,125,2);fill-rule:nonzero;"/>
        </g>
        <g transform="matrix(0.514198,0,0,0.514198,-193.031,-53.3571)">
            <path d="M1331.54,491.728L1238.95,491.728C1237.14,491.728 1235.4,491.01 1234.13,489.731C1232.85,488.453 1232.13,486.719 1232.13,484.911L1232.13,439.678C1232.13,435.913 1235.18,432.861 1238.95,432.861L1331.75,432.861L1332.16,317.323C1332.16,315.106 1333.96,313.312 1336.18,313.312L1397.22,313.312C1398.29,313.312 1399.31,313.738 1400.07,314.496C1400.82,315.254 1401.25,316.281 1401.24,317.351L1400.83,432.861L1493.38,432.861C1497.14,432.861 1500.19,435.913 1500.19,439.678L1500.19,484.911C1500.19,488.676 1497.14,491.728 1493.38,491.728L1400.62,491.728L1400.16,621.774C1400.15,625.529 1397.1,628.567 1393.35,628.567L1337.9,628.567C1336.09,628.567 1334.35,627.845 1333.07,626.562C1331.79,625.278 1331.08,623.538 1331.08,621.726L1331.54,491.728Z" style="fill:rgb(41,78,118);"/>
        </g>
        <g transform="matrix(0.514198,0,0,0.514198,-193.031,-53.3571)">
            <path d="M1750.91,313.312L1807.23,313.312C1814.28,313.312 1819.99,319.027 1819.99,326.077C1819.99,376.947 1819.99,564.932 1819.99,615.802C1819.99,622.852 1814.28,628.567 1807.23,628.567C1787.27,628.567 1750.91,628.567 1750.91,628.567L1750.91,497.697L1608.37,497.697L1608.37,628.567L1552.05,628.567C1545,628.567 1539.28,622.852 1539.28,615.802C1539.28,564.932 1539.28,376.947 1539.28,326.077C1539.28,319.027 1545,313.312 1552.05,313.312C1572.01,313.312 1608.37,313.312 1608.37,313.312L1608.37,439.317L1750.91,439.317L1750.91,313.312Z" style="fill:rgb(234,95,95);fill-rule:nonzero;"/>
        </g>
        <g transform="matrix(0.514198,0,0,0.514198,-193.031,-53.3571)">
            <path d="M711.251,948.687L842.608,1111.18L842.608,1112.78C842.608,1113.38 842.366,1113.97 841.935,1114.4C841.505,1114.83 840.921,1115.07 840.313,1115.07C826.824,1115.07 758.442,1115.07 758.442,1115.07L636.816,958.903L636.816,1115.07L578.184,1115.07C572.412,1115.07 567.733,1110.39 567.733,1104.62C567.733,1056.69 567.733,858.199 567.733,810.268C567.733,804.496 572.412,799.816 578.184,799.816C597.496,799.816 636.816,799.816 636.816,799.816L636.816,945.768L757.956,799.816L832.661,799.816C834.393,799.816 835.796,801.22 835.796,802.951C835.796,803.397 835.796,803.708 835.796,803.708L711.251,948.687Z" style="fill:rgb(234,95,95);fill-rule:nonzero;"/>
        </g>
        <g transform="matrix(0.514198,0,0,0.514198,-193.031,-53.3571)">
            <g transform="matrix(1,0,0,1,36.2206,0.978965)">
                <rect x="954.503" y="799.816" width="69.084" height="315.255" style="fill:rgb(41,78,118);fill-rule:nonzero;"/>
            </g>
        </g>
        <g transform="matrix(0.514198,0,0,0.514198,-193.031,-53.3571)">
            <g transform="matrix(1,0,0,1,39.1574,0.97892)">
                <path d="M1271.22,799.816C1325.71,799.816 1368.03,811.817 1398.19,835.818C1428.36,859.494 1443.44,900.036 1443.44,957.444C1443.44,992.472 1435.49,1021.82 1419.6,1045.5C1403.71,1069.18 1382.46,1086.69 1355.87,1098.04C1329.6,1109.39 1300.57,1115.07 1268.79,1115.07L1166.13,1115.07L1166.13,799.816L1271.22,799.816ZM1256.62,1055.72C1283.22,1055.72 1304.46,1053.12 1320.36,1047.93C1336.25,1042.42 1348.25,1032.53 1356.36,1018.26C1364.46,1003.99 1368.52,983.715 1368.52,957.444C1368.52,933.118 1364.79,913.82 1357.33,899.55C1350.19,885.279 1339.49,875.062 1325.22,868.9C1310.95,862.413 1292.95,859.17 1271.22,859.17L1235.22,859.17L1235.22,1055.72L1256.62,1055.72Z" style="fill:rgb(63,215,138);fill-rule:nonzero;"/>
            </g>
        </g>
        <g transform="matrix(0.514198,0,0,0.514198,-193.031,-53.3571)">
            <g transform="matrix(1,0,0,1,33.2837,-1.95789)">
                <path d="M1670.74,848.941C1658.02,849.71 1647.44,852.764 1640.47,857.224C1632.69,862.413 1628.8,869.386 1628.8,878.143C1628.8,883.657 1630.42,888.684 1633.66,893.225C1636.91,897.441 1642.75,901.82 1651.18,906.361C1659.61,910.577 1671.77,915.604 1687.66,921.442L1698.37,925.334C1719.13,933.118 1735.83,940.416 1748.48,947.227C1761.45,954.038 1772.32,963.768 1781.07,976.417C1789.83,989.066 1794.21,1005.45 1794.21,1025.55C1794.21,1046.64 1788.7,1064.47 1777.67,1079.07C1766.64,1093.34 1751.56,1104.04 1732.42,1111.18C1713.61,1118.31 1692.21,1121.88 1668.2,1121.88C1621.36,1121.88 1581.28,1110.15 1547.97,1086.7C1545.82,1085.17 1545.26,1082.23 1546.69,1080.02C1552.5,1071.01 1566.76,1048.96 1572.66,1039.83C1574.11,1037.59 1577.08,1036.91 1579.37,1038.3C1608.11,1055.75 1636.26,1064.47 1663.83,1064.47C1682.31,1064.47 1696.75,1061.56 1707.12,1055.72C1717.83,1049.88 1723.18,1041.12 1723.18,1029.45C1723.18,1022.31 1721.4,1016.47 1717.83,1011.93C1714.59,1007.07 1708.59,1002.53 1699.83,998.31C1691.39,993.769 1678.58,988.093 1661.39,981.282L1650.2,976.904C1629.45,968.795 1612.74,961.011 1600.09,953.552C1587.44,946.092 1577.39,936.524 1569.93,924.848C1562.47,913.172 1558.74,898.414 1558.74,880.576C1558.74,860.791 1564.42,844.413 1575.77,831.439C1587.12,818.141 1601.72,808.411 1619.56,802.249C1637.39,796.086 1656.37,793.005 1676.48,793.005C1676.49,793.005 1676.51,793.005 1676.53,793.005C1679.07,793.013 1771.85,793.306 1781.22,794.824C1782.24,799.588 1782.09,837.423 1779.67,847.148C1772.45,848.673 1686.38,848.91 1670.74,848.941Z" style="fill:rgb(222,125,2);"/>
            </g>
        </g>
        <g transform="matrix(1.31673,0,0,0.796875,-137.757,144.701)">
            <path d="M202.812,645.752C202.503,645.752 202.024,645.675 201.375,645.522C200.88,644.654 200.432,643.48 200.031,641.999C199.66,640.467 199.366,638.858 199.15,637.173C198.965,635.437 198.872,633.727 198.872,632.042C198.903,630.306 199.088,628.774 199.428,627.446C199.428,627.395 199.567,626.782 199.845,625.608C200.154,624.433 200.541,622.953 201.004,621.165C201.468,619.327 201.993,617.31 202.58,615.115C203.167,612.868 203.754,610.672 204.342,608.528C204.929,606.383 205.485,604.443 206.01,602.706C206.567,600.919 207.045,599.541 207.447,598.57C207.725,597.856 207.973,597.166 208.189,596.502C208.436,595.839 208.668,595.226 208.884,594.664C209.224,593.745 209.533,592.903 209.811,592.137C210.12,591.32 210.445,590.605 210.785,589.992C211.156,589.328 211.557,588.767 211.99,588.307C212.423,587.796 212.948,587.362 213.566,587.005C213.937,587.26 214.261,587.541 214.539,587.847C214.817,588.103 215.065,588.435 215.281,588.843L215.42,589.915C215.482,590.273 215.575,590.528 215.698,590.681C215.853,590.783 215.976,590.835 216.069,590.835C216.471,590.988 216.811,591.166 217.089,591.371C217.398,591.524 217.722,591.626 218.062,591.677C218.186,591.983 218.294,592.29 218.387,592.596C218.51,592.903 218.634,593.183 218.757,593.439C219.376,594.919 219.885,596.349 220.287,597.728C220.689,599.107 220.689,600.613 220.287,602.247L220.333,603.089C220.488,603.447 220.565,603.779 220.565,604.085C220.565,604.392 220.534,604.826 220.473,605.387C220.442,605.796 220.411,606.255 220.38,606.766C220.38,607.225 220.426,607.736 220.519,608.298L220.843,608.911C221.338,609.319 221.817,609.523 222.28,609.523C222.898,609.523 223.455,609.293 223.949,608.834C224.444,608.374 224.907,607.915 225.34,607.455C225.68,607.047 225.989,606.715 226.267,606.46C226.576,606.204 226.869,606.025 227.147,605.923C227.796,604.902 228.384,604.009 228.909,603.243C229.465,602.426 230.037,601.609 230.624,600.792C231.736,599.311 232.818,597.728 233.869,596.043C234.919,594.307 235.754,592.162 236.372,589.609C236.712,589.252 237.098,589.073 237.531,589.073C237.963,589.073 238.396,589.226 238.829,589.532C239.261,589.788 239.694,590.094 240.126,590.452C240.219,590.554 240.296,590.63 240.358,590.681C240.451,590.732 240.544,590.809 240.636,590.911C240.636,591.473 240.775,591.983 241.054,592.443C241.208,592.647 241.316,592.775 241.378,592.826C241.44,592.877 241.502,592.928 241.563,592.979C241.811,593.234 242.011,593.464 242.166,593.668C242.351,593.873 242.49,594.154 242.583,594.511C242.861,595.89 243.325,596.962 243.974,597.728C243.912,598.29 243.927,598.851 244.02,599.413C244.113,599.924 244.221,600.434 244.345,600.945C244.406,601.149 244.453,601.353 244.484,601.558C244.515,601.711 244.561,601.915 244.623,602.17L243.603,602.017L243.742,603.702C243.835,604.57 243.788,605.54 243.603,606.613C243.448,607.685 243.263,608.528 243.047,609.14C243.109,610.672 243.139,611.898 243.139,612.817C243.139,613.685 243.109,614.502 243.047,615.268C242.985,616.034 242.877,616.774 242.722,617.489C242.599,618.153 242.429,618.868 242.212,619.634C242.336,623.514 242.058,627.063 241.378,630.28C240.729,633.497 240.018,636.51 239.246,639.318C239.153,639.675 239.06,640.007 238.968,640.314C238.875,640.62 238.798,640.926 238.736,641.233C238.396,641.386 238.087,641.565 237.809,641.769C237.531,641.973 237.268,642.203 237.021,642.458C236.681,642.816 236.341,643.122 236.001,643.377C235.661,643.582 235.306,643.684 234.935,643.684C233.452,641.897 232.679,638.807 232.617,634.416C232.586,630.025 233.158,624.433 234.332,617.642C234.549,617.387 234.641,617.004 234.61,616.493L234.61,615.651L234.147,615.574C233.992,615.574 233.853,615.6 233.73,615.651C233.606,615.702 233.513,615.932 233.452,616.34C232.463,617.514 231.381,618.74 230.207,620.017C229.063,621.242 227.874,622.391 226.638,623.463C225.401,624.484 224.134,625.352 222.837,626.067C221.57,626.731 220.333,627.063 219.128,627.063C216.038,627.063 213.705,624.459 212.129,619.251L211.712,617.872L211.248,619.097C211.156,619.353 210.986,619.863 210.738,620.629C210.522,621.344 210.29,622.187 210.043,623.157C209.827,624.127 209.626,625.123 209.44,626.144C209.286,627.165 209.24,628.059 209.301,628.825C208.931,629.386 208.56,630.025 208.189,630.74C207.849,631.454 207.602,632.271 207.447,633.191C207.385,633.446 207.37,633.701 207.401,633.956C207.432,634.161 207.478,634.39 207.54,634.646C207.509,635.003 207.447,635.259 207.355,635.412C207.262,635.565 207.154,635.718 207.03,635.871C206.876,636.127 206.721,636.407 206.567,636.714C206.412,636.969 206.273,637.275 206.149,637.633C206.088,637.939 206.041,638.271 206.01,638.629C205.979,638.935 205.948,639.216 205.918,639.471C205.918,640.033 205.871,640.416 205.779,640.62C205.469,641.692 205.191,642.586 204.944,643.301C204.728,643.965 204.512,644.475 204.295,644.833C204.079,645.19 203.847,645.42 203.6,645.522C203.384,645.675 203.121,645.752 202.812,645.752Z" style="fill:rgb(52,52,52);fill-rule:nonzero;"/>
        </g>
        <g transform="matrix(1.31673,0,0,0.796875,-137.757,144.701)">
            <path d="M269.375,638.246C269.19,639.114 268.912,640.007 268.541,640.926C268.201,641.794 267.784,642.586 267.29,643.301C266.826,643.965 266.301,644.526 265.714,644.986C265.126,645.445 264.508,645.701 263.859,645.752C263.458,645.599 263.18,645.42 263.025,645.216C262.901,645.062 262.762,644.909 262.608,644.756C262.515,644.654 262.422,644.577 262.33,644.526C262.268,644.424 262.206,644.348 262.144,644.297L261.588,643.914L261.774,642.918C261.835,642.509 261.82,642.203 261.727,641.999C261.634,641.743 261.449,641.412 261.171,641.003C261.078,640.85 260.986,640.697 260.893,640.543C260.8,640.39 260.723,640.237 260.661,640.084L259.873,638.629L261.125,638.092C261.897,637.735 262.407,637.275 262.654,636.714C262.932,636.152 263.041,635.207 262.979,633.88C262.361,633.676 261.835,633.65 261.403,633.803C261.001,633.956 260.584,634.135 260.151,634.339C259.595,634.595 259.023,634.825 258.436,635.029C257.88,635.182 257.262,635.259 256.582,635.259L255.887,635.259C255.67,635.207 255.439,635.156 255.191,635.105L254.728,634.952C254.666,634.39 254.604,634.084 254.542,634.033C254.481,633.931 254.419,633.829 254.357,633.727C254.202,633.471 254.032,633.139 253.847,632.731C253.693,632.271 253.662,631.71 253.754,631.046C253.6,630.586 253.507,630.127 253.476,629.667C253.291,630.28 253.152,630.918 253.059,631.582L252.874,632.348L252.41,632.501C252.348,632.552 252.302,632.68 252.271,632.884C252.24,633.037 252.225,633.165 252.225,633.267L251.993,634.569C251.931,634.671 251.869,634.773 251.808,634.876C251.746,634.927 251.684,635.003 251.622,635.105C251.56,635.565 251.483,636.024 251.39,636.484C251.298,636.944 251.205,637.378 251.112,637.786C250.958,638.45 250.819,639.114 250.695,639.778C250.602,640.39 250.571,641.003 250.602,641.616L250.417,642.458C250.262,642.765 250.092,643.02 249.907,643.224C249.722,643.377 249.536,643.531 249.351,643.684C249.289,643.786 249.196,643.888 249.073,643.99C248.98,644.041 248.903,644.092 248.841,644.143L248.702,644.986L248.146,645.139C247.806,645.241 247.558,645.318 247.404,645.369C247.28,645.42 247.126,645.445 246.94,645.445L246.477,645.369C246.137,644.909 245.874,644.552 245.689,644.297C245.503,643.99 245.287,643.709 245.04,643.454C244.762,642.841 244.607,642.382 244.576,642.075C244.545,641.769 244.515,641.488 244.484,641.233C244.422,640.926 244.391,640.671 244.391,640.467C244.36,640.263 244.314,640.109 244.252,640.007L243.649,639.088L244.159,638.399L244.206,637.097C244.824,634.493 245.473,631.991 246.152,629.591C246.863,627.191 247.589,624.74 248.331,622.238C248.578,621.421 248.81,620.604 249.026,619.787C249.274,618.97 249.521,618.153 249.768,617.336C249.737,617.183 249.722,617.004 249.722,616.8C249.722,616.595 249.753,616.366 249.814,616.11C250.154,615.242 250.432,614.476 250.649,613.812C250.865,613.098 251.081,612.383 251.298,611.668C251.545,610.8 251.792,609.957 252.039,609.14C252.317,608.323 252.657,607.481 253.059,606.613L253.801,606.077C253.893,606.025 254.002,605.974 254.125,605.923C254.249,605.821 254.388,605.77 254.542,605.77L255.238,605.923C256.103,605.26 256.86,604.34 257.509,603.166C258.158,601.941 258.822,600.485 259.502,598.8L259.966,597.728L260.568,598.341C260.723,598.494 260.939,598.647 261.217,598.8C261.495,598.902 261.789,599.03 262.098,599.183C262.654,599.387 263.18,599.617 263.674,599.873C264.168,600.128 264.57,600.511 264.879,601.021C265.065,601.838 265.173,602.451 265.204,602.86C265.235,603.268 265.281,603.677 265.343,604.085C265.435,604.953 265.513,605.821 265.575,606.689C265.667,607.557 265.729,608.528 265.76,609.6C265.914,610.468 266.038,611.336 266.131,612.204C266.254,613.021 266.363,613.864 266.455,614.732C266.61,615.957 266.764,617.157 266.919,618.331C267.073,619.455 267.274,620.527 267.521,621.548C267.769,621.548 267.923,621.574 267.985,621.625C268.139,621.523 268.294,621.446 268.448,621.395C268.634,621.344 268.835,621.293 269.051,621.242L269.561,621.165L269.746,621.931C269.777,622.187 269.932,622.442 270.21,622.697C270.612,622.748 270.905,622.902 271.091,623.157C271.276,623.361 271.446,623.591 271.6,623.846C271.724,624.05 271.848,624.204 271.971,624.306L272.667,624.765L272.296,625.914C271.987,626.833 271.539,627.727 270.952,628.595C270.395,629.412 269.762,630.101 269.051,630.663C269.082,630.969 269.097,631.276 269.097,631.582C269.128,631.837 269.175,632.118 269.236,632.425C269.329,633.293 269.406,634.186 269.468,635.105C269.53,636.024 269.53,636.969 269.468,637.939L269.375,638.246ZM255.979,624.995C256.906,624.893 257.741,624.791 258.482,624.689C259.255,624.535 260.105,624.306 261.032,623.999C260.816,622.467 260.584,620.885 260.337,619.251C260.089,617.566 259.827,615.906 259.549,614.272L259.27,615.038C258.652,616.11 258.05,617.31 257.463,618.638C256.906,619.965 256.427,621.216 256.026,622.391C255.84,622.85 255.655,623.31 255.469,623.77C255.284,624.229 255.114,624.689 254.96,625.148C255.145,625.097 255.315,625.072 255.469,625.072C255.655,625.072 255.825,625.046 255.979,624.995Z" style="fill:rgb(52,52,52);fill-rule:nonzero;"/>
        </g>
        <g transform="matrix(1.31673,0,0,0.796875,-137.757,144.701)">
            <path d="M296.446,607.838C295.673,607.838 294.839,607.94 293.943,608.145C293.047,608.298 292.166,608.476 291.301,608.681C290.683,608.834 290.08,608.962 289.493,609.064C288.937,609.166 288.427,609.242 287.963,609.293C287.747,610.417 287.531,611.413 287.314,612.281C287.098,613.149 286.866,613.991 286.619,614.808C286.372,615.676 286.14,616.57 285.924,617.489C285.738,618.357 285.553,619.302 285.367,620.323C285.058,621.14 284.796,621.906 284.579,622.621C284.394,623.284 284.24,624.05 284.116,624.918C283.745,625.684 283.467,626.501 283.282,627.369C283.096,628.186 282.957,628.901 282.864,629.514L282.679,630.433C282.494,630.74 282.385,630.995 282.354,631.199C282.324,631.352 282.246,631.505 282.123,631.659C282.092,632.22 281.984,632.782 281.798,633.344C281.736,633.599 281.69,633.854 281.659,634.11C281.628,634.314 281.613,634.467 281.613,634.569C281.613,635.08 281.536,635.412 281.381,635.565C281.412,635.82 281.412,636.101 281.381,636.407C281.35,636.663 281.319,636.918 281.288,637.173C281.196,637.786 281.165,638.271 281.196,638.629C281.288,638.833 281.366,639.012 281.427,639.165C281.52,639.318 281.582,639.522 281.613,639.778C281.798,639.982 281.937,640.109 282.03,640.16C282.154,640.314 282.339,640.492 282.586,640.697L283.003,641.463C283.158,642.943 283.019,644.118 282.586,644.986C282.123,645.956 281.335,646.441 280.222,646.441L279.666,646.441C279.511,646.186 279.419,645.982 279.388,645.828C279.141,645.675 278.94,645.548 278.785,645.445C278.631,645.343 278.492,645.139 278.368,644.833C277.966,644.526 277.642,644.271 277.395,644.067L276.977,643.684L276.977,642.765C276.761,642.305 276.591,641.794 276.468,641.233C276.375,640.671 276.298,640.109 276.236,639.548C276.174,639.088 276.097,638.654 276.004,638.246C275.942,637.837 275.85,637.48 275.726,637.173C275.664,634.212 275.834,631.71 276.236,629.667C276.638,627.625 277.055,625.659 277.487,623.77C277.735,622.748 277.982,621.727 278.229,620.706C278.476,619.634 278.693,618.536 278.878,617.412L279.295,616.646C279.511,615.829 279.681,615.166 279.805,614.655C279.96,614.093 280.114,613.532 280.269,612.97C280.361,612.613 280.439,612.281 280.5,611.974C280.593,611.617 280.67,611.31 280.732,611.055C280.547,611.055 280.377,611.081 280.222,611.132C280.068,611.132 279.913,611.157 279.759,611.208C279.573,611.259 279.403,611.31 279.249,611.361L278.785,611.361C278.569,611.361 278.414,611.336 278.322,611.285C277.982,611.54 277.611,611.668 277.209,611.668L276.468,611.668C276.406,611.617 276.344,611.591 276.282,611.591C275.973,611.591 275.726,611.668 275.541,611.821L274.011,611.821C273.949,611.821 273.872,611.847 273.779,611.898L273.547,611.898C273.331,611.898 273.099,611.872 272.852,611.821C272.605,611.719 272.342,611.54 272.064,611.285C271.693,610.468 271.446,610.034 271.322,609.983L270.905,609.064C270.874,608.757 270.828,608.476 270.766,608.221C270.704,607.915 270.642,607.583 270.581,607.225C270.457,606.715 270.333,606.179 270.21,605.617C270.117,605.004 270.071,604.289 270.071,603.472C270.102,603.064 270.163,602.758 270.256,602.553C270.349,602.349 270.426,602.17 270.488,602.017L270.627,600.868L271.23,600.945L272.528,600.945C273.516,600.945 274.521,600.894 275.541,600.792C276.56,600.638 277.611,600.485 278.693,600.332C279.311,600.23 279.929,600.128 280.547,600.026C281.196,599.924 281.86,599.821 282.54,599.719C282.663,599.26 282.787,598.826 282.911,598.417L283.374,598.034C283.93,597.983 284.317,598.111 284.533,598.417C284.78,598.673 284.981,598.928 285.136,599.183C285.816,599.081 286.495,598.979 287.175,598.877C287.886,598.724 288.597,598.545 289.307,598.341C290.358,598.085 291.409,597.856 292.46,597.651C293.541,597.447 294.576,597.345 295.565,597.345C295.998,597.345 296.415,597.37 296.817,597.422C297.218,597.473 297.589,597.549 297.929,597.651L298.393,598.187C298.485,598.494 298.609,598.775 298.764,599.03C298.949,599.285 299.134,599.541 299.32,599.796C299.691,600.358 300.061,601.021 300.432,601.787C300.803,602.553 300.942,603.677 300.85,605.157C300.602,605.77 300.417,606.128 300.293,606.23L299.876,607.149L299.413,607.072C299.227,607.072 299.057,607.123 298.903,607.225C298.748,607.277 298.594,607.353 298.439,607.455C298.316,607.557 298.192,607.659 298.068,607.762C297.945,607.813 297.806,607.864 297.651,607.915L296.956,607.915C296.801,607.864 296.631,607.838 296.446,607.838Z" style="fill:rgb(52,52,52);fill-rule:nonzero;"/>
        </g>
        <g transform="matrix(1.31673,0,0,0.796875,-137.757,144.701)">
            <path d="M316.563,637.25C316.625,638.578 316.532,639.675 316.285,640.543C316.038,641.412 315.698,642.152 315.265,642.765C314.833,643.377 314.338,643.862 313.782,644.22C313.226,644.577 312.685,644.909 312.16,645.216C311.913,644.96 311.665,644.705 311.418,644.45C311.202,644.143 310.939,643.914 310.63,643.76C310.228,642.535 309.842,641.463 309.471,640.543C309.1,639.573 308.93,638.475 308.961,637.25C308.961,637.199 308.977,636.918 309.008,636.407C309.07,635.897 309.131,635.335 309.193,634.722C309.286,634.11 309.348,633.548 309.379,633.037C309.44,632.476 309.471,632.169 309.471,632.118C308.761,632.22 308.019,632.476 307.246,632.884C306.474,633.293 305.717,633.778 304.975,634.339C304.264,634.901 303.584,635.463 302.935,636.024C302.317,636.586 301.807,637.071 301.406,637.48C301.406,637.633 301.344,638.016 301.22,638.629C301.097,639.19 300.942,639.803 300.757,640.467C300.571,641.08 300.371,641.641 300.154,642.152C299.938,642.663 299.722,642.918 299.505,642.918C299.536,643.071 299.583,643.224 299.644,643.377C299.706,643.531 299.706,643.735 299.644,643.99C299.212,644.194 298.825,644.45 298.485,644.756C298.146,645.114 297.79,645.394 297.419,645.599C297.049,645.854 296.647,645.982 296.214,645.982C295.782,645.982 295.272,645.726 294.684,645.216C294.684,644.909 294.607,644.654 294.453,644.45C294.298,644.194 294.128,643.99 293.943,643.837C293.788,643.633 293.649,643.48 293.526,643.377C293.402,643.224 293.34,643.097 293.34,642.994C293.186,643.046 293.124,642.867 293.155,642.458C293.186,642.05 293.309,641.948 293.526,642.152C293.186,641.437 292.969,640.824 292.877,640.314C292.815,639.752 292.645,639.063 292.367,638.246C292.429,638.144 292.49,637.965 292.552,637.71C292.583,637.454 292.614,637.224 292.645,637.02C292.676,636.816 292.722,636.663 292.784,636.561C292.846,636.458 292.923,636.484 293.016,636.637C292.954,636.178 292.954,635.795 293.016,635.488C293.078,635.182 293.139,634.901 293.201,634.646C293.263,634.39 293.309,634.135 293.34,633.88C293.371,633.625 293.325,633.344 293.201,633.037C293.696,631.914 294.02,630.714 294.175,629.437C294.329,628.11 294.422,626.91 294.453,625.838C294.669,625.48 294.854,624.97 295.009,624.306C295.194,623.642 295.333,622.978 295.426,622.314C295.519,621.599 295.55,620.936 295.519,620.323C295.519,619.659 295.473,619.123 295.38,618.714C295.411,618.459 295.581,618.383 295.89,618.485C296.075,616.8 296.199,614.91 296.261,612.817C296.353,610.672 296.492,608.655 296.678,606.766C296.863,604.826 297.172,603.14 297.605,601.711C298.037,600.23 298.733,599.26 299.691,598.8C299.876,599.873 300.108,600.817 300.386,601.634C300.695,602.451 301.019,603.243 301.359,604.009C301.73,604.723 302.086,605.464 302.426,606.23C302.796,606.996 303.136,607.864 303.445,608.834C303.414,609.804 303.353,610.927 303.26,612.204C303.167,613.481 303.044,614.783 302.889,616.11C302.765,617.438 302.626,618.714 302.472,619.94C302.348,621.165 302.225,622.212 302.101,623.08C302.132,623.336 302.209,623.489 302.333,623.54C302.487,623.591 302.518,623.821 302.426,624.229C303.167,623.923 303.94,623.642 304.743,623.387C305.547,623.131 306.35,622.85 307.154,622.544C307.957,622.238 308.73,621.906 309.471,621.548C310.244,621.14 310.955,620.655 311.604,620.093C311.758,618.102 311.959,616.11 312.206,614.119C312.453,612.127 312.484,610.085 312.299,607.991C312.453,607.787 312.577,607.532 312.67,607.225C312.762,606.919 312.917,606.715 313.133,606.613C312.979,605.643 312.917,604.621 312.948,603.549C312.979,602.477 313.087,601.455 313.272,600.485C313.489,599.515 313.782,598.698 314.153,598.034C314.555,597.319 315.034,596.86 315.59,596.656C315.93,597.473 316.223,598.366 316.471,599.336C316.718,600.255 316.965,601.2 317.212,602.17C317.49,603.089 317.769,603.983 318.047,604.851C318.356,605.668 318.742,606.383 319.205,606.996C319.298,608.476 319.36,610.008 319.391,611.591C319.453,613.174 319.499,614.783 319.53,616.417C319.283,618.357 319.005,620.246 318.696,622.085C318.417,623.872 318.217,625.787 318.093,627.829C317.877,628.237 317.707,628.697 317.583,629.208C317.46,629.718 317.336,630.254 317.212,630.816C317.089,631.327 316.95,631.837 316.795,632.348C316.641,632.808 316.455,633.216 316.239,633.573C316.362,634.186 316.378,634.773 316.285,635.335C316.223,635.846 316.316,636.484 316.563,637.25Z" style="fill:rgb(52,52,52);fill-rule:nonzero;"/>
        </g>
        <g transform="matrix(1.31673,0,0,0.796875,-137.757,144.701)">
            <path d="M342.197,645.752C341.888,645.752 341.409,645.675 340.76,645.522C340.265,644.654 339.817,643.48 339.416,641.999C339.045,640.467 338.751,638.858 338.535,637.173C338.349,635.437 338.257,633.727 338.257,632.042C338.288,630.306 338.473,628.774 338.813,627.446C338.813,627.395 338.952,626.782 339.23,625.608C339.539,624.433 339.925,622.953 340.389,621.165C340.853,619.327 341.378,617.31 341.965,615.115C342.552,612.868 343.139,610.672 343.726,608.528C344.314,606.383 344.87,604.443 345.395,602.706C345.951,600.919 346.43,599.541 346.832,598.57C347.11,597.856 347.358,597.166 347.574,596.502C347.821,595.839 348.053,595.226 348.269,594.664C348.609,593.745 348.918,592.903 349.196,592.137C349.505,591.32 349.83,590.605 350.17,589.992C350.54,589.328 350.942,588.767 351.375,588.307C351.807,587.796 352.333,587.362 352.951,587.005C353.322,587.26 353.646,587.541 353.924,587.847C354.202,588.103 354.45,588.435 354.666,588.843L354.805,589.915C354.867,590.273 354.959,590.528 355.083,590.681C355.238,590.783 355.361,590.835 355.454,590.835C355.856,590.988 356.196,591.166 356.474,591.371C356.783,591.524 357.107,591.626 357.447,591.677C357.571,591.983 357.679,592.29 357.772,592.596C357.895,592.903 358.019,593.183 358.142,593.439C358.76,594.919 359.27,596.349 359.672,597.728C360.074,599.107 360.074,600.613 359.672,602.247L359.718,603.089C359.873,603.447 359.95,603.779 359.95,604.085C359.95,604.392 359.919,604.826 359.857,605.387C359.827,605.796 359.796,606.255 359.765,606.766C359.765,607.225 359.811,607.736 359.904,608.298L360.228,608.911C360.723,609.319 361.202,609.523 361.665,609.523C362.283,609.523 362.84,609.293 363.334,608.834C363.828,608.374 364.292,607.915 364.725,607.455C365.065,607.047 365.374,606.715 365.652,606.46C365.961,606.204 366.254,606.025 366.532,605.923C367.181,604.902 367.768,604.009 368.294,603.243C368.85,602.426 369.422,601.609 370.009,600.792C371.121,599.311 372.203,597.728 373.254,596.043C374.304,594.307 375.139,592.162 375.757,589.609C376.097,589.252 376.483,589.073 376.916,589.073C377.348,589.073 377.781,589.226 378.213,589.532C378.646,589.788 379.079,590.094 379.511,590.452C379.604,590.554 379.681,590.63 379.743,590.681C379.836,590.732 379.929,590.809 380.021,590.911C380.021,591.473 380.16,591.983 380.438,592.443C380.593,592.647 380.701,592.775 380.763,592.826C380.825,592.877 380.887,592.928 380.948,592.979C381.196,593.234 381.396,593.464 381.551,593.668C381.736,593.873 381.875,594.154 381.968,594.511C382.246,595.89 382.71,596.962 383.359,597.728C383.297,598.29 383.312,598.851 383.405,599.413C383.498,599.924 383.606,600.434 383.73,600.945C383.791,601.149 383.838,601.353 383.869,601.558C383.9,601.711 383.946,601.915 384.008,602.17L382.988,602.017L383.127,603.702C383.22,604.57 383.173,605.54 382.988,606.613C382.833,607.685 382.648,608.528 382.432,609.14C382.493,610.672 382.524,611.898 382.524,612.817C382.524,613.685 382.493,614.502 382.432,615.268C382.37,616.034 382.262,616.774 382.107,617.489C381.984,618.153 381.814,618.868 381.597,619.634C381.721,623.514 381.443,627.063 380.763,630.28C380.114,633.497 379.403,636.51 378.631,639.318C378.538,639.675 378.445,640.007 378.353,640.314C378.26,640.62 378.183,640.926 378.121,641.233C377.781,641.386 377.472,641.565 377.194,641.769C376.916,641.973 376.653,642.203 376.406,642.458C376.066,642.816 375.726,643.122 375.386,643.377C375.046,643.582 374.691,643.684 374.32,643.684C372.836,641.897 372.064,638.807 372.002,634.416C371.971,630.025 372.543,624.433 373.717,617.642C373.934,617.387 374.026,617.004 373.995,616.493L373.995,615.651L373.532,615.574C373.377,615.574 373.238,615.6 373.115,615.651C372.991,615.702 372.898,615.932 372.836,616.34C371.848,617.514 370.766,618.74 369.592,620.017C368.448,621.242 367.259,622.391 366.023,623.463C364.786,624.484 363.519,625.352 362.222,626.067C360.955,626.731 359.718,627.063 358.513,627.063C355.423,627.063 353.09,624.459 351.514,619.251L351.097,617.872L350.633,619.097C350.54,619.353 350.37,619.863 350.123,620.629C349.907,621.344 349.675,622.187 349.428,623.157C349.212,624.127 349.011,625.123 348.825,626.144C348.671,627.165 348.624,628.059 348.686,628.825C348.315,629.386 347.945,630.025 347.574,630.74C347.234,631.454 346.987,632.271 346.832,633.191C346.77,633.446 346.755,633.701 346.786,633.956C346.817,634.161 346.863,634.39 346.925,634.646C346.894,635.003 346.832,635.259 346.739,635.412C346.647,635.565 346.539,635.718 346.415,635.871C346.26,636.127 346.106,636.407 345.951,636.714C345.797,636.969 345.658,637.275 345.534,637.633C345.472,637.939 345.426,638.271 345.395,638.629C345.364,638.935 345.333,639.216 345.302,639.471C345.302,640.033 345.256,640.416 345.163,640.62C344.854,641.692 344.576,642.586 344.329,643.301C344.113,643.965 343.896,644.475 343.68,644.833C343.464,645.19 343.232,645.42 342.985,645.522C342.769,645.675 342.506,645.752 342.197,645.752Z" style="fill:rgb(52,52,52);fill-rule:nonzero;"/>
        </g>
        <g transform="matrix(1.31673,0,0,0.796875,-137.757,144.701)">
            <path d="M408.76,638.246C408.575,639.114 408.297,640.007 407.926,640.926C407.586,641.794 407.169,642.586 406.675,643.301C406.211,643.965 405.686,644.526 405.098,644.986C404.511,645.445 403.893,645.701 403.244,645.752C402.843,645.599 402.565,645.42 402.41,645.216C402.286,645.062 402.147,644.909 401.993,644.756C401.9,644.654 401.807,644.577 401.715,644.526C401.653,644.424 401.591,644.348 401.529,644.297L400.973,643.914L401.158,642.918C401.22,642.509 401.205,642.203 401.112,641.999C401.019,641.743 400.834,641.412 400.556,641.003C400.463,640.85 400.37,640.697 400.278,640.543C400.185,640.39 400.108,640.237 400.046,640.084L399.258,638.629L400.51,638.092C401.282,637.735 401.792,637.275 402.039,636.714C402.317,636.152 402.425,635.207 402.364,633.88C401.746,633.676 401.22,633.65 400.788,633.803C400.386,633.956 399.969,634.135 399.536,634.339C398.98,634.595 398.408,634.825 397.821,635.029C397.265,635.182 396.647,635.259 395.967,635.259L395.272,635.259C395.055,635.207 394.823,635.156 394.576,635.105L394.113,634.952C394.051,634.39 393.989,634.084 393.927,634.033C393.866,633.931 393.804,633.829 393.742,633.727C393.587,633.471 393.417,633.139 393.232,632.731C393.077,632.271 393.047,631.71 393.139,631.046C392.985,630.586 392.892,630.127 392.861,629.667C392.676,630.28 392.537,630.918 392.444,631.582L392.259,632.348L391.795,632.501C391.733,632.552 391.687,632.68 391.656,632.884C391.625,633.037 391.61,633.165 391.61,633.267L391.378,634.569C391.316,634.671 391.254,634.773 391.192,634.876C391.131,634.927 391.069,635.003 391.007,635.105C390.945,635.565 390.868,636.024 390.775,636.484C390.683,636.944 390.59,637.378 390.497,637.786C390.343,638.45 390.204,639.114 390.08,639.778C389.987,640.39 389.956,641.003 389.987,641.616L389.802,642.458C389.647,642.765 389.477,643.02 389.292,643.224C389.107,643.377 388.921,643.531 388.736,643.684C388.674,643.786 388.581,643.888 388.458,643.99C388.365,644.041 388.288,644.092 388.226,644.143L388.087,644.986L387.531,645.139C387.191,645.241 386.943,645.318 386.789,645.369C386.665,645.42 386.511,645.445 386.325,645.445L385.862,645.369C385.522,644.909 385.259,644.552 385.074,644.297C384.888,643.99 384.672,643.709 384.425,643.454C384.147,642.841 383.992,642.382 383.961,642.075C383.93,641.769 383.9,641.488 383.869,641.233C383.807,640.926 383.776,640.671 383.776,640.467C383.745,640.263 383.699,640.109 383.637,640.007L383.034,639.088L383.544,638.399L383.59,637.097C384.209,634.493 384.857,631.991 385.537,629.591C386.248,627.191 386.974,624.74 387.716,622.238C387.963,621.421 388.195,620.604 388.411,619.787C388.658,618.97 388.906,618.153 389.153,617.336C389.122,617.183 389.107,617.004 389.107,616.8C389.107,616.595 389.137,616.366 389.199,616.11C389.539,615.242 389.817,614.476 390.034,613.812C390.25,613.098 390.466,612.383 390.683,611.668C390.93,610.8 391.177,609.957 391.424,609.14C391.702,608.323 392.042,607.481 392.444,606.613L393.186,606.077C393.278,606.025 393.387,605.974 393.51,605.923C393.634,605.821 393.773,605.77 393.927,605.77L394.623,605.923C395.488,605.26 396.245,604.34 396.894,603.166C397.543,601.941 398.207,600.485 398.887,598.8L399.351,597.728L399.953,598.341C400.108,598.494 400.324,598.647 400.602,598.8C400.88,598.902 401.174,599.03 401.483,599.183C402.039,599.387 402.565,599.617 403.059,599.873C403.553,600.128 403.955,600.511 404.264,601.021C404.45,601.838 404.558,602.451 404.589,602.86C404.62,603.268 404.666,603.677 404.728,604.085C404.82,604.953 404.898,605.821 404.959,606.689C405.052,607.557 405.114,608.528 405.145,609.6C405.299,610.468 405.423,611.336 405.516,612.204C405.639,613.021 405.747,613.864 405.84,614.732C405.995,615.957 406.149,617.157 406.304,618.331C406.458,619.455 406.659,620.527 406.906,621.548C407.154,621.548 407.308,621.574 407.37,621.625C407.524,621.523 407.679,621.446 407.833,621.395C408.019,621.344 408.22,621.293 408.436,621.242L408.946,621.165L409.131,621.931C409.162,622.187 409.317,622.442 409.595,622.697C409.997,622.748 410.29,622.902 410.476,623.157C410.661,623.361 410.831,623.591 410.985,623.846C411.109,624.05 411.233,624.204 411.356,624.306L412.052,624.765L411.681,625.914C411.372,626.833 410.924,627.727 410.336,628.595C409.78,629.412 409.147,630.101 408.436,630.663C408.467,630.969 408.482,631.276 408.482,631.582C408.513,631.837 408.56,632.118 408.621,632.425C408.714,633.293 408.791,634.186 408.853,635.105C408.915,636.024 408.915,636.969 408.853,637.939L408.76,638.246ZM395.364,624.995C396.291,624.893 397.126,624.791 397.867,624.689C398.64,624.535 399.49,624.306 400.417,623.999C400.2,622.467 399.969,620.885 399.721,619.251C399.474,617.566 399.212,615.906 398.933,614.272L398.655,615.038C398.037,616.11 397.435,617.31 396.848,618.638C396.291,619.965 395.812,621.216 395.411,622.391C395.225,622.85 395.04,623.31 394.854,623.77C394.669,624.229 394.499,624.689 394.344,625.148C394.53,625.097 394.7,625.072 394.854,625.072C395.04,625.072 395.21,625.046 395.364,624.995Z" style="fill:rgb(52,52,52);fill-rule:nonzero;"/>
        </g>
        <g transform="matrix(1.31673,0,0,0.796875,-137.757,144.701)">
            <path d="M434.672,623.999C434.641,624.255 434.61,624.484 434.579,624.689C434.548,624.842 434.518,624.995 434.487,625.148C434.456,625.301 434.44,625.506 434.44,625.761L434.44,626.604C433.513,629.31 432.339,631.582 430.917,633.42C429.527,635.259 427.982,636.893 426.282,638.322C424.613,639.701 422.867,640.977 421.044,642.152C419.221,643.275 417.444,644.501 415.713,645.828C414.972,645.522 414.4,645.011 413.998,644.297C413.628,643.582 413.334,642.765 413.118,641.846C412.932,640.875 412.793,639.829 412.7,638.705C412.639,637.531 412.577,636.331 412.515,635.105C412.608,634.544 412.731,634.084 412.886,633.727C413.071,633.318 413.164,632.756 413.164,632.042C413.411,630.714 413.658,629.412 413.906,628.135C414.153,626.859 414.307,625.557 414.369,624.229C414.462,623.821 414.632,623.54 414.879,623.387C415.034,620.936 415.034,618.459 414.879,615.957C414.755,613.404 414.508,611.03 414.137,608.834C414.168,608.323 414.199,607.966 414.23,607.762C414.292,607.506 414.292,607.328 414.23,607.225C414.199,606.817 414.276,606.613 414.462,606.613L415.111,606.613C415.111,605.847 415.018,605.081 414.833,604.315C414.678,603.549 414.524,602.681 414.369,601.711C414.586,600.945 414.725,600.204 414.786,599.49C414.848,598.724 414.987,598.06 415.204,597.498C416.872,598.366 418.464,599.413 419.978,600.638C421.523,601.864 423.037,602.758 424.521,603.319C425.633,604.647 426.776,605.974 427.951,607.302C429.125,608.579 430.191,610.008 431.149,611.591C432.107,613.123 432.911,614.885 433.56,616.876C434.208,618.868 434.579,621.242 434.672,623.999ZM423.686,628.212C424.335,627.803 424.969,627.369 425.587,626.91C426.236,626.45 426.823,625.94 427.348,625.378C427.904,624.765 428.399,624.076 428.831,623.31C429.264,622.544 429.619,621.625 429.898,620.553C429.712,619.94 429.465,619.404 429.156,618.944C428.847,618.434 428.538,617.974 428.229,617.566C427.92,617.106 427.611,616.646 427.302,616.187C427.024,615.727 426.792,615.166 426.607,614.502C426.205,614.4 425.849,614.221 425.54,613.966C425.231,613.659 424.922,613.378 424.613,613.123C424.335,612.817 424.026,612.536 423.686,612.281C423.377,612.025 423.006,611.872 422.574,611.821C421.894,611.259 421.276,610.851 420.72,610.596C420.194,610.34 419.793,610.008 419.514,609.6C419.298,609.6 419.128,609.676 419.005,609.83C419.314,611.77 419.545,613.608 419.7,615.344C419.854,617.029 419.932,618.74 419.932,620.476C419.963,622.161 419.916,623.897 419.793,625.684C419.669,627.472 419.499,629.412 419.283,631.505C419.592,631.454 419.87,631.352 420.117,631.199C420.395,630.995 420.658,630.791 420.905,630.586C421.183,630.382 421.461,630.203 421.739,630.05C422.048,629.846 422.404,629.718 422.806,629.667C422.898,629.361 423.022,629.106 423.176,628.901C423.362,628.697 423.532,628.467 423.686,628.212Z" style="fill:rgb(52,52,52);fill-rule:nonzero;"/>
        </g>
        <g transform="matrix(1.31673,0,0,0.796875,-137.757,144.701)">
            <path d="M460.815,601.558C460.846,601.915 460.846,602.196 460.815,602.4C460.815,602.553 460.8,602.706 460.769,602.86L460.769,603.396C460.769,603.549 460.8,603.804 460.862,604.162C460.213,605.898 459.456,607.098 458.59,607.762C457.756,608.374 456.844,608.834 455.856,609.14C454.867,609.396 453.847,609.676 452.796,609.983C451.776,610.289 450.757,610.953 449.737,611.974C449.335,611.719 448.964,611.719 448.624,611.974C448.315,612.23 447.852,612.306 447.234,612.204C447.048,612.51 446.817,612.74 446.539,612.893C446.26,612.995 445.982,613.123 445.704,613.276C445.828,613.736 445.874,614.221 445.843,614.732C445.843,615.191 445.89,615.574 445.982,615.88C447.064,616.034 448.254,616.008 449.551,615.804C450.88,615.6 452.178,615.472 453.445,615.421C453.476,615.676 453.461,615.855 453.399,615.957C453.337,616.008 453.322,616.136 453.352,616.34C453.569,616.595 453.785,616.927 454.001,617.336C454.218,617.693 454.434,618.051 454.65,618.408C454.867,618.765 455.083,619.072 455.299,619.327C455.547,619.531 455.825,619.608 456.134,619.557C456.257,619.965 456.335,620.425 456.365,620.936C456.427,621.395 456.396,621.88 456.273,622.391C455.778,622.953 455.284,623.54 454.789,624.153C454.295,624.714 453.77,625.225 453.213,625.684C452.688,626.144 452.116,626.527 451.498,626.833C450.911,627.089 450.247,627.191 449.505,627.14L449.134,627.14C449.073,627.14 448.98,627.063 448.856,626.91C448.609,627.165 448.254,627.242 447.79,627.14C447.357,627.038 447.018,627.114 446.77,627.369C446.43,627.114 446.013,627.012 445.519,627.063C445.055,627.063 444.638,626.961 444.267,626.757C443.773,627.829 443.325,628.978 442.923,630.203C442.521,631.429 442.166,632.731 441.857,634.11C442.907,634.365 443.773,634.467 444.453,634.416C445.163,634.365 445.828,634.288 446.446,634.186C447.064,634.033 447.697,633.905 448.346,633.803C448.995,633.65 449.814,633.599 450.803,633.65C451.421,633.088 452.147,632.731 452.982,632.578C453.847,632.374 454.635,632.067 455.346,631.659C455.593,631.812 455.809,632.093 455.995,632.501C456.18,632.859 456.35,633.216 456.505,633.573C456.69,633.88 456.875,634.161 457.061,634.416C457.246,634.671 457.478,634.773 457.756,634.722C457.88,634.927 457.957,635.182 457.988,635.488C458.05,635.744 458.096,635.999 458.127,636.254C458.158,636.51 458.204,636.739 458.266,636.944C458.359,637.097 458.498,637.148 458.683,637.097C458.22,638.782 457.679,640.084 457.061,641.003C456.474,641.871 455.794,642.535 455.021,642.994C454.249,643.454 453.383,643.811 452.425,644.067C451.498,644.322 450.463,644.628 449.32,644.986C449.042,645.088 448.81,645.062 448.624,644.909C448.439,644.807 448.223,644.756 447.975,644.756C447.265,645.011 446.415,645.241 445.426,645.445C444.437,645.65 443.433,645.726 442.413,645.675C441.393,645.624 440.42,645.394 439.493,644.986C438.566,644.628 437.809,643.965 437.221,642.994C436.974,642.637 436.804,642.229 436.712,641.769C436.65,641.258 436.449,640.875 436.109,640.62C436.078,639.956 436.016,639.216 435.924,638.399C435.831,637.582 435.738,636.739 435.645,635.871C435.553,634.952 435.475,634.059 435.414,633.191C435.383,632.322 435.414,631.531 435.506,630.816C435.599,630.05 435.785,629.361 436.063,628.748C436.372,628.135 436.48,627.472 436.387,626.757C436.542,626.706 436.634,626.578 436.665,626.374C436.696,626.118 436.82,626.016 437.036,626.067C437.221,625.148 437.422,624.28 437.639,623.463C437.855,622.646 438.071,621.855 438.288,621.089C438.535,620.323 438.767,619.557 438.983,618.791C439.23,617.974 439.462,617.08 439.678,616.11C439.246,615.446 438.921,614.732 438.705,613.966C438.519,613.149 438.38,612.357 438.288,611.591C438.195,610.774 438.118,609.957 438.056,609.14C437.994,608.272 437.886,607.404 437.731,606.536C438.04,605.77 438.411,605.157 438.844,604.698C439.307,604.187 439.802,603.779 440.327,603.472C440.852,603.166 441.424,602.911 442.042,602.706C442.66,602.502 443.309,602.272 443.989,602.017C445.225,601.353 446.322,600.843 447.28,600.485C448.269,600.128 449.227,599.847 450.154,599.643C451.112,599.387 452.101,599.158 453.121,598.953C454.14,598.749 455.299,598.443 456.597,598.034C456.875,598.494 457.138,598.724 457.385,598.724C457.509,598.264 457.648,598.136 457.802,598.341C457.988,598.494 458.065,598.341 458.034,597.881C458.343,598.749 458.729,599.49 459.193,600.102C459.687,600.664 460.228,601.149 460.815,601.558Z" style="fill:rgb(52,52,52);fill-rule:nonzero;"/>
        </g>
        <g transform="matrix(1.31673,0,0,0.796875,-137.757,144.701)">
            <path d="M479.357,623.08C479.388,622.876 479.449,622.799 479.542,622.85C479.666,622.85 479.774,622.825 479.867,622.774C479.619,622.365 479.465,621.829 479.403,621.165C479.341,620.451 479.187,619.863 478.94,619.404C479.001,619.148 479.048,618.893 479.079,618.638C479.14,618.383 479.28,618.28 479.496,618.331C479.403,617.208 479.419,616.161 479.542,615.191C479.666,614.221 479.851,613.302 480.098,612.434C480.377,611.566 480.686,610.723 481.026,609.906C481.396,609.038 481.752,608.17 482.092,607.302C482.37,607.2 482.54,607.251 482.602,607.455C482.663,607.608 482.771,607.557 482.926,607.302C483.42,606.74 483.76,606.128 483.946,605.464C484.131,604.749 484.224,603.983 484.224,603.166C484.502,601.838 484.811,600.536 485.151,599.26C485.522,597.932 485.939,596.707 486.403,595.583C486.866,594.46 487.36,593.49 487.886,592.673C488.411,591.805 488.983,591.141 489.601,590.681C490.034,590.069 490.574,589.507 491.223,588.996C491.903,588.486 492.614,588.103 493.356,587.847C494.128,587.541 494.916,587.388 495.72,587.388C496.523,587.337 497.265,587.464 497.945,587.771C498.099,587.873 498.192,587.822 498.223,587.618C498.254,587.362 498.331,587.235 498.454,587.235C500,587.541 501.375,588.052 502.58,588.767C503.816,589.481 504.867,590.477 505.732,591.754C506.319,593.286 506.875,594.945 507.401,596.732C507.926,598.468 508.328,600.307 508.606,602.247C508.915,604.136 509.054,606.102 509.023,608.145C508.992,610.187 508.729,612.23 508.235,614.272C507.153,616.519 505.84,618.331 504.295,619.71C502.75,621.038 501.081,622.161 499.289,623.08C497.527,623.948 495.689,624.663 493.773,625.225C491.888,625.787 490.049,626.399 488.257,627.063C488.288,628.442 488.288,629.923 488.257,631.505C488.226,633.037 488.118,634.595 487.932,636.178C487.778,637.71 487.53,639.216 487.191,640.697C486.881,642.177 486.449,643.556 485.893,644.833C485.275,644.782 484.626,644.884 483.946,645.139C483.297,645.394 482.71,645.65 482.184,645.905C481.937,645.65 481.69,645.394 481.443,645.139C481.226,644.935 480.948,644.807 480.608,644.756C480.701,644.143 480.608,643.505 480.33,642.841C480.083,642.177 479.82,641.539 479.542,640.926C479.295,640.263 479.125,639.624 479.032,639.012C478.971,638.348 479.156,637.761 479.589,637.25C479.341,636.893 479.218,636.331 479.218,635.565C479.341,635.769 479.496,635.871 479.681,635.871C479.619,634.952 479.681,633.854 479.867,632.578C480.083,631.301 480.253,630.05 480.377,628.825C480.531,627.548 480.562,626.399 480.469,625.378C480.377,624.306 480.006,623.54 479.357,623.08ZM491.409,605.157C491.285,605.719 491.177,606.23 491.084,606.689C491.022,607.098 490.945,607.481 490.852,607.838C490.76,608.196 490.652,608.553 490.528,608.911C490.435,609.268 490.327,609.676 490.203,610.136C490.265,610.442 490.389,610.672 490.574,610.825C490.76,610.979 490.883,611.208 490.945,611.515C491.378,611.157 491.81,610.902 492.243,610.749C492.676,610.544 493.108,610.391 493.541,610.289C493.974,610.187 494.406,610.059 494.839,609.906C495.271,609.753 495.72,609.498 496.183,609.14C496.647,608.783 497.126,608.502 497.62,608.298C498.145,608.042 498.655,607.787 499.15,607.532C499.644,607.277 500.123,606.996 500.587,606.689C501.05,606.332 501.452,605.872 501.792,605.311C501.359,604.647 500.71,604.06 499.845,603.549C498.98,603.038 498.037,602.732 497.017,602.63C496.029,602.477 495.024,602.579 494.004,602.936C493.016,603.294 492.15,604.034 491.409,605.157Z" style="fill:rgb(52,52,52);fill-rule:nonzero;"/>
        </g>
        <g transform="matrix(1.31673,0,0,0.796875,-137.757,144.701)">
            <path d="M519.87,643.837C519.004,644.297 518.062,644.756 517.042,645.216C516.022,645.675 515.003,645.905 513.983,645.905C512.438,645.905 511.217,645.267 510.321,643.99C510.166,643.428 510.027,643.046 509.904,642.841C509.811,642.637 509.718,642.433 509.626,642.229C509.564,641.973 509.517,641.641 509.487,641.233C509.116,640.518 508.822,639.701 508.606,638.782C508.39,637.812 508.235,636.841 508.142,635.871C508.08,634.85 508.065,633.829 508.096,632.808C508.158,631.786 508.266,630.816 508.42,629.897C508.482,629.693 508.513,629.489 508.513,629.284C508.544,629.08 508.575,628.85 508.606,628.595C508.729,627.778 508.853,626.986 508.977,626.221C509.131,625.455 509.332,624.791 509.579,624.229C509.456,623.77 509.456,623.259 509.579,622.697C509.703,622.136 509.842,621.625 509.996,621.165C510.429,619.225 510.784,617.591 511.063,616.263C511.372,614.885 511.681,613.532 511.99,612.204C512.515,609.906 513.009,607.634 513.473,605.387C513.936,603.14 514.354,600.715 514.724,598.111C514.972,597.856 515.157,597.677 515.281,597.575C515.466,597.473 515.621,597.396 515.744,597.345C516.301,597.804 516.949,598.264 517.691,598.724C518.433,599.132 519.051,599.336 519.545,599.336C519.792,599.592 519.947,599.796 520.009,599.949C520.071,600.051 520.132,600.153 520.194,600.255C520.534,600.919 520.828,601.609 521.075,602.323C521.322,602.987 521.399,603.881 521.307,605.004C521.121,605.464 520.982,605.694 520.89,605.694C520.735,606.715 520.565,607.583 520.38,608.298C520.225,609.013 520.055,609.727 519.87,610.442C519.653,611.208 519.453,611.974 519.267,612.74C519.082,613.506 518.927,614.451 518.804,615.574C518.68,615.829 518.587,616.059 518.525,616.263C518.495,616.468 518.448,616.697 518.386,616.953C518.325,617.208 518.247,617.489 518.155,617.795C518.093,618.051 517.985,618.28 517.83,618.485C517.737,619.812 517.583,620.885 517.367,621.702C517.181,622.519 516.98,623.336 516.764,624.153C516.393,625.633 516.053,627.114 515.744,628.595C515.466,630.076 515.296,631.761 515.234,633.65C515.389,633.548 515.528,633.497 515.652,633.497L516.069,633.497C516.347,633.497 516.671,633.573 517.042,633.727C517.969,632.91 518.974,632.425 520.055,632.271C521.168,632.118 522.265,632.016 523.346,631.965L524.644,631.965C525.077,631.965 525.479,631.914 525.849,631.812C526.127,632.067 526.297,632.22 526.359,632.271L526.73,632.271C526.946,632.271 527.132,632.297 527.286,632.348C527.657,632.91 528.012,633.318 528.352,633.573C528.692,633.829 529.048,634.059 529.419,634.263C529.758,634.467 530.083,634.697 530.392,634.952C530.732,635.156 531.056,635.463 531.365,635.871L531.69,639.165C531.906,639.624 531.999,639.931 531.968,640.084C531.968,640.492 531.906,640.799 531.783,641.003L531.875,641.846C531.412,641.999 531.087,642.177 530.902,642.382C530.747,642.586 530.593,642.816 530.438,643.071C530.191,643.122 530.006,643.148 529.882,643.148L529.604,643.148C529.171,643.148 528.646,643.275 528.028,643.531C527.194,643.071 526.328,642.841 525.432,642.841C525.092,642.841 524.737,642.867 524.366,642.918C523.995,642.969 523.624,643.02 523.254,643.071C522.883,643.173 522.496,643.25 522.095,643.301C521.724,643.352 521.338,643.377 520.936,643.377L519.87,643.837Z" style="fill:rgb(52,52,52);fill-rule:nonzero;"/>
        </g>
        <g transform="matrix(1.31673,0,0,0.796875,-137.757,144.701)">
            <path d="M557.462,638.246C557.277,639.114 556.999,640.007 556.628,640.926C556.288,641.794 555.871,642.586 555.377,643.301C554.913,643.965 554.388,644.526 553.8,644.986C553.213,645.445 552.595,645.701 551.946,645.752C551.545,645.599 551.266,645.42 551.112,645.216C550.988,645.062 550.849,644.909 550.695,644.756C550.602,644.654 550.509,644.577 550.417,644.526C550.355,644.424 550.293,644.348 550.231,644.297L549.675,643.914L549.86,642.918C549.922,642.509 549.907,642.203 549.814,641.999C549.721,641.743 549.536,641.412 549.258,641.003C549.165,640.85 549.072,640.697 548.98,640.543C548.887,640.39 548.81,640.237 548.748,640.084L547.96,638.629L549.211,638.092C549.984,637.735 550.494,637.275 550.741,636.714C551.019,636.152 551.127,635.207 551.066,633.88C550.448,633.676 549.922,633.65 549.49,633.803C549.088,633.956 548.671,634.135 548.238,634.339C547.682,634.595 547.11,634.825 546.523,635.029C545.967,635.182 545.349,635.259 544.669,635.259L543.974,635.259C543.757,635.207 543.525,635.156 543.278,635.105L542.815,634.952C542.753,634.39 542.691,634.084 542.629,634.033C542.567,633.931 542.506,633.829 542.444,633.727C542.289,633.471 542.119,633.139 541.934,632.731C541.779,632.271 541.749,631.71 541.841,631.046C541.687,630.586 541.594,630.127 541.563,629.667C541.378,630.28 541.239,630.918 541.146,631.582L540.961,632.348L540.497,632.501C540.435,632.552 540.389,632.68 540.358,632.884C540.327,633.037 540.312,633.165 540.312,633.267L540.08,634.569C540.018,634.671 539.956,634.773 539.894,634.876C539.833,634.927 539.771,635.003 539.709,635.105C539.647,635.565 539.57,636.024 539.477,636.484C539.385,636.944 539.292,637.378 539.199,637.786C539.045,638.45 538.906,639.114 538.782,639.778C538.689,640.39 538.658,641.003 538.689,641.616L538.504,642.458C538.349,642.765 538.179,643.02 537.994,643.224C537.809,643.377 537.623,643.531 537.438,643.684C537.376,643.786 537.283,643.888 537.16,643.99C537.067,644.041 536.99,644.092 536.928,644.143L536.789,644.986L536.233,645.139C535.893,645.241 535.645,645.318 535.491,645.369C535.367,645.42 535.213,645.445 535.027,645.445L534.564,645.369C534.224,644.909 533.961,644.552 533.776,644.297C533.59,643.99 533.374,643.709 533.127,643.454C532.849,642.841 532.694,642.382 532.663,642.075C532.632,641.769 532.601,641.488 532.571,641.233C532.509,640.926 532.478,640.671 532.478,640.467C532.447,640.263 532.401,640.109 532.339,640.007L531.736,639.088L532.246,638.399L532.292,637.097C532.911,634.493 533.559,631.991 534.239,629.591C534.95,627.191 535.676,624.74 536.418,622.238C536.665,621.421 536.897,620.604 537.113,619.787C537.36,618.97 537.608,618.153 537.855,617.336C537.824,617.183 537.809,617.004 537.809,616.8C537.809,616.595 537.839,616.366 537.901,616.11C538.241,615.242 538.519,614.476 538.736,613.812C538.952,613.098 539.168,612.383 539.385,611.668C539.632,610.8 539.879,609.957 540.126,609.14C540.404,608.323 540.744,607.481 541.146,606.613L541.888,606.077C541.98,606.025 542.089,605.974 542.212,605.923C542.336,605.821 542.475,605.77 542.629,605.77L543.325,605.923C544.19,605.26 544.947,604.34 545.596,603.166C546.245,601.941 546.909,600.485 547.589,598.8L548.053,597.728L548.655,598.341C548.81,598.494 549.026,598.647 549.304,598.8C549.582,598.902 549.876,599.03 550.185,599.183C550.741,599.387 551.266,599.617 551.761,599.873C552.255,600.128 552.657,600.511 552.966,601.021C553.152,601.838 553.26,602.451 553.291,602.86C553.321,603.268 553.368,603.677 553.43,604.085C553.522,604.953 553.6,605.821 553.661,606.689C553.754,607.557 553.816,608.528 553.847,609.6C554.001,610.468 554.125,611.336 554.218,612.204C554.341,613.021 554.449,613.864 554.542,614.732C554.697,615.957 554.851,617.157 555.006,618.331C555.16,619.455 555.361,620.527 555.608,621.548C555.855,621.548 556.01,621.574 556.072,621.625C556.226,621.523 556.381,621.446 556.535,621.395C556.721,621.344 556.922,621.293 557.138,621.242L557.648,621.165L557.833,621.931C557.864,622.187 558.019,622.442 558.297,622.697C558.699,622.748 558.992,622.902 559.177,623.157C559.363,623.361 559.533,623.591 559.687,623.846C559.811,624.05 559.935,624.204 560.058,624.306L560.754,624.765L560.383,625.914C560.074,626.833 559.626,627.727 559.038,628.595C558.482,629.412 557.849,630.101 557.138,630.663C557.169,630.969 557.184,631.276 557.184,631.582C557.215,631.837 557.262,632.118 557.323,632.425C557.416,633.293 557.493,634.186 557.555,635.105C557.617,636.024 557.617,636.969 557.555,637.939L557.462,638.246ZM544.066,624.995C544.993,624.893 545.828,624.791 546.569,624.689C547.342,624.535 548.192,624.306 549.119,623.999C548.902,622.467 548.671,620.885 548.423,619.251C548.176,617.566 547.914,615.906 547.635,614.272L547.357,615.038C546.739,616.11 546.137,617.31 545.55,618.638C544.993,619.965 544.514,621.216 544.113,622.391C543.927,622.85 543.742,623.31 543.556,623.77C543.371,624.229 543.201,624.689 543.046,625.148C543.232,625.097 543.402,625.072 543.556,625.072C543.742,625.072 543.912,625.046 544.066,624.995Z" style="fill:rgb(52,52,52);fill-rule:nonzero;"/>
        </g>
        <g transform="matrix(1.31673,0,0,0.796875,-137.757,144.701)">
            <path d="M573.918,624.612C573.702,624.918 573.516,625.301 573.362,625.761C573.207,626.169 573.053,626.604 572.898,627.063C572.744,627.625 572.574,628.161 572.388,628.672C572.203,629.182 571.971,629.642 571.693,630.05C571.538,630.816 571.384,631.429 571.229,631.888C571.075,632.297 570.828,632.782 570.488,633.344C570.179,635.386 569.453,637.607 568.309,640.007C568.278,640.467 568.186,640.926 568.031,641.386C567.907,641.794 567.768,642.203 567.614,642.611C567.552,642.765 567.49,642.943 567.428,643.148C567.367,643.301 567.32,643.428 567.289,643.531L567.197,644.297C567.042,644.705 566.872,645.062 566.687,645.369C566.501,645.675 566.331,645.956 566.177,646.211C566.115,646.365 566.007,646.569 565.852,646.824L565.157,647.284C562.901,646.773 561.526,644.782 561.032,641.309L561.078,640.543C561.14,640.288 561.186,640.033 561.217,639.778C561.279,639.471 561.341,639.165 561.402,638.858C561.526,638.144 561.665,637.429 561.82,636.714C562.005,635.999 562.268,635.361 562.608,634.799C562.669,634.442 562.809,633.88 563.025,633.114C563.241,632.297 563.612,631.097 564.137,629.514C564.57,628.289 564.91,627.318 565.157,626.604C565.404,625.889 565.605,625.327 565.76,624.918C565.451,624.101 565.08,623.361 564.647,622.697C564.245,621.421 563.89,620.195 563.581,619.021C563.303,617.846 563.087,616.8 562.932,615.88C562.901,615.217 562.855,614.655 562.793,614.195C562.731,613.736 562.669,613.251 562.608,612.74C562.515,612.178 562.438,611.617 562.376,611.055C562.314,610.493 562.283,609.906 562.283,609.293C562.129,608.936 562.036,608.579 562.005,608.221L562.098,607.455C562.19,607.098 562.206,606.638 562.144,606.077C562.082,605.464 562.005,604.851 561.912,604.238C561.851,603.728 561.773,603.166 561.681,602.553C561.619,601.941 561.603,601.328 561.634,600.715C561.665,600.102 561.758,599.541 561.912,599.03C562.098,598.468 562.391,597.983 562.793,597.575L563.581,597.498C563.859,597.753 564.122,598.009 564.369,598.264C564.647,598.468 564.91,598.698 565.157,598.953C565.497,599.209 565.821,599.464 566.131,599.719C566.44,599.975 566.764,600.307 567.104,600.715L567.428,601.787L568.031,602.63L568.031,603.472C568.062,603.677 568.077,603.957 568.077,604.315C568.077,604.979 568.139,605.387 568.263,605.54L568.448,606.46C568.448,607.174 568.495,607.864 568.587,608.528C568.68,609.14 568.773,609.727 568.865,610.289C568.958,610.851 569.051,611.438 569.143,612.051C569.236,612.664 569.252,613.327 569.19,614.042C569.375,613.889 569.53,613.71 569.653,613.506C569.715,613.404 569.777,613.327 569.839,613.276C569.901,613.225 569.962,613.149 570.024,613.047L572.759,606.919L572.666,606.153L573.64,604.621C573.887,604.213 574.119,603.83 574.335,603.472C574.582,603.115 574.783,602.732 574.938,602.323L575.448,601.711C576.436,599.158 577.842,597.575 579.666,596.962L580.315,596.809L580.5,597.804C580.624,598.366 580.871,598.877 581.242,599.336C581.643,599.796 582.061,600.23 582.493,600.638L582.91,601.098C583.065,601.609 583.142,601.992 583.142,602.247C583.142,602.502 583.127,602.732 583.096,602.936L583.281,603.702C583.034,604.928 582.725,605.821 582.354,606.383C582.014,606.945 581.674,607.455 581.334,607.915C581.056,608.323 580.794,608.706 580.546,609.064C580.33,609.37 580.16,609.779 580.037,610.289L579.712,610.902C579.063,611.515 578.646,612.332 578.461,613.353L578.321,614.272L577.765,614.272C577.734,614.272 577.657,614.374 577.533,614.578C577.441,614.732 577.286,615.166 577.07,615.88C576.854,616.391 576.699,616.723 576.606,616.876C576.514,617.029 576.436,617.157 576.375,617.259C576.344,617.463 576.297,617.668 576.236,617.872C576.205,618.025 576.158,618.229 576.097,618.485C575.695,619.148 575.448,619.659 575.355,620.017C575.262,620.323 574.783,621.906 574.66,622.314C574.567,622.672 574.397,623.055 574.15,623.463L573.918,624.612Z" style="fill:rgb(52,52,52);fill-rule:nonzero;"/>
        </g>
        <g transform="matrix(1.31673,0,0,0.796875,-137.757,144.701)">
            <path d="M584.579,642.075C584.394,643.811 583.868,645.011 583.003,645.675C582.601,645.726 582.292,645.701 582.076,645.599C581.891,645.496 581.69,645.369 581.474,645.216C581.195,645.011 580.948,644.884 580.732,644.833L580.222,644.22C580.16,643.965 580.083,643.709 579.99,643.454C579.897,643.199 579.789,642.943 579.666,642.688C579.419,642.177 579.171,641.539 578.924,640.773C578.739,639.292 578.708,638.067 578.831,637.097C578.955,636.076 579.109,635.08 579.295,634.11C579.357,633.803 579.419,633.497 579.48,633.191C579.542,632.833 579.604,632.501 579.666,632.195C578.862,631.48 578.26,630.459 577.858,629.131C577.456,627.803 577.224,626.527 577.163,625.301C577.255,624.331 577.425,623.565 577.673,623.004C577.92,622.391 578.198,621.906 578.507,621.548C578.847,621.191 579.187,620.91 579.527,620.706C579.897,620.502 580.253,620.323 580.593,620.17L581.195,620.553C581.474,621.012 581.752,621.37 582.03,621.625C582.246,621.472 582.385,621.242 582.447,620.936C582.54,620.578 582.617,620.195 582.679,619.787C582.771,619.327 582.864,618.868 582.957,618.408C583.08,617.948 583.219,617.489 583.374,617.029C583.343,616.366 583.405,615.753 583.559,615.191C583.343,614.936 583.111,614.783 582.864,614.732C582.802,614.732 582.648,614.681 582.401,614.578C582.03,614.119 581.767,613.736 581.613,613.429C581.489,613.072 581.365,612.74 581.242,612.434C581.056,611.77 580.825,611.234 580.546,610.825L580.083,610.289L580.315,609.523C580.376,609.421 580.407,609.293 580.407,609.14C580.407,608.987 580.346,608.757 580.222,608.451C580.16,607.889 580.16,607.506 580.222,607.302L580.315,606.536C580.562,605.974 580.686,605.668 580.686,605.617L581.103,604.928C581.721,604.672 582.323,604.392 582.91,604.085C583.529,603.728 584.147,603.37 584.765,603.013C585.352,602.706 585.939,602.4 586.526,602.094C587.144,601.736 587.762,601.43 588.38,601.175C588.597,600.919 588.828,600.766 589.075,600.715C589.323,600.613 589.554,600.536 589.771,600.485C589.956,600.434 590.126,600.409 590.281,600.409C590.435,600.358 590.543,600.255 590.605,600.102C590.976,599.898 591.409,599.668 591.903,599.413C592.676,599.056 593.695,598.673 594.962,598.264C596.229,597.804 597.651,597.447 599.227,597.192L600.015,597.115C600.169,597.166 600.324,597.192 600.478,597.192C600.633,597.141 600.787,597.115 600.942,597.115C602.333,597.115 603.213,597.804 603.584,599.183C603.862,599.438 604.109,599.719 604.326,600.026C604.542,600.332 604.743,600.638 604.928,600.945C605.021,601.149 605.114,601.328 605.207,601.481C605.33,601.634 605.423,601.736 605.485,601.787C606.01,603.115 606.18,604.289 605.995,605.311C605.716,605.974 605.361,606.357 604.928,606.46L604.418,606.919C604.079,606.868 603.816,606.842 603.63,606.842L603.121,606.842C602.348,606.842 601.452,606.919 600.432,607.072C599.412,607.225 598.362,607.455 597.28,607.762C596.229,608.017 595.21,608.349 594.221,608.757C593.232,609.166 592.367,609.6 591.625,610.059L590.791,610.749C590.574,611.31 590.451,611.77 590.42,612.127C590.389,612.434 590.358,612.74 590.327,613.047C590.296,613.251 590.265,613.455 590.234,613.659C590.234,613.864 590.219,614.093 590.188,614.349C589.663,615.421 589.4,616.697 589.4,618.178C589.184,618.791 589.045,619.251 588.983,619.557C588.921,619.812 588.921,620.144 588.983,620.553C589.57,620.961 590.126,621.114 590.652,621.012C591.177,620.91 591.702,620.782 592.228,620.629C592.938,620.425 593.664,620.246 594.406,620.093C595.179,619.94 595.967,619.863 596.77,619.863L598.253,619.863L597.883,620.476L598.114,621.548C598.3,621.702 598.423,621.804 598.485,621.855C598.578,621.906 598.671,621.982 598.763,622.085L598.995,622.774C599.119,622.876 599.227,623.055 599.32,623.31C599.443,623.565 599.52,623.948 599.551,624.459L597.651,628.901L597.002,629.208C596.477,629.157 596.013,629.259 595.611,629.514C595.395,629.616 595.179,629.718 594.962,629.82C594.746,629.871 594.514,629.897 594.267,629.897C593.649,630.101 593.124,630.254 592.691,630.357C592.289,630.459 591.872,630.561 591.44,630.663C590.883,630.765 590.342,630.918 589.817,631.123C589.292,631.276 588.797,631.505 588.334,631.812L587.685,631.812C587.438,631.812 587.175,631.888 586.897,632.042C586.65,632.144 586.418,632.246 586.202,632.348C586.047,632.552 585.939,632.782 585.877,633.037C585.815,633.242 585.753,633.471 585.692,633.727C585.568,634.442 585.398,635.029 585.182,635.488L585.182,636.637C584.935,637.148 584.78,637.556 584.718,637.863C584.687,638.118 584.641,638.373 584.579,638.629C584.517,638.782 584.471,638.935 584.44,639.088C584.409,639.19 584.394,639.318 584.394,639.471C584.641,640.237 584.703,641.105 584.579,642.075Z" style="fill:rgb(52,52,52);fill-rule:nonzero;"/>
        </g>
        <g transform="matrix(1.31673,0,0,0.796875,-137.757,144.701)">
            <path d="M627.039,601.098C627.101,602.221 627.209,603.192 627.363,604.009C627.518,604.826 627.688,605.617 627.873,606.383C628.028,607.098 628.167,607.813 628.291,608.528C628.445,609.191 628.553,610.008 628.615,610.979C628.368,612.306 628.182,613.532 628.059,614.655C627.966,615.778 627.858,616.953 627.734,618.178C627.24,619.965 626.761,621.548 626.297,622.927C625.834,624.306 625.463,625.506 625.185,626.527C625.03,626.782 624.891,627.089 624.768,627.446C624.675,627.752 624.567,628.084 624.443,628.442C624.381,628.595 624.304,628.825 624.211,629.131C624.119,629.437 624.041,629.642 623.98,629.744L623.053,629.208L622.867,631.123L622.218,631.429L621.755,632.348C621.168,634.033 620.55,635.463 619.901,636.637C619.252,637.761 618.51,638.782 617.676,639.701C616.872,640.569 615.945,641.386 614.894,642.152C613.875,642.918 612.716,643.76 611.418,644.679C610.893,644.577 610.429,644.526 610.027,644.526C609.656,644.475 609.301,644.424 608.961,644.373C608.374,644.373 607.648,644.297 606.783,644.143C606.69,643.735 606.551,643.454 606.365,643.301C606.18,643.148 606.01,643.071 605.855,643.071C605.33,642.663 604.928,642.075 604.65,641.309C604.403,640.492 604.156,639.624 603.909,638.705C603.754,638.144 603.6,637.633 603.445,637.173C603.291,636.663 603.121,636.152 602.935,635.641L603.723,635.259L602.703,633.42C602.642,633.267 602.564,633.139 602.472,633.037C602.379,632.884 602.302,632.731 602.24,632.578L602.194,631.352C602.101,627.829 602.054,624.612 602.054,621.702C602.085,618.74 602.333,616.11 602.796,613.812L602.796,612.97C602.889,611.847 602.982,610.927 603.074,610.213C603.167,609.447 603.244,608.732 603.306,608.068C603.399,606.945 603.538,605.898 603.723,604.928C604.156,604.774 604.48,604.494 604.697,604.085C604.913,603.626 605.098,603.217 605.253,602.86C605.685,602.809 605.979,602.911 606.134,603.166C606.288,603.421 606.443,603.83 606.597,604.392C606.752,604.851 606.937,605.362 607.153,605.923C607.401,606.485 607.756,606.919 608.219,607.225C608.281,607.634 608.359,608.068 608.451,608.528C608.575,608.936 608.698,609.396 608.822,609.906C609.069,610.774 609.286,611.693 609.471,612.664C609.687,613.583 609.811,614.476 609.842,615.344C609.533,616.315 609.286,617.438 609.1,618.714C608.946,619.991 608.838,621.293 608.776,622.621C608.745,623.897 608.76,625.148 608.822,626.374C608.915,627.548 609.054,628.544 609.239,629.361L609.517,630.357L610.305,630.203C611.232,629.795 612.067,629.361 612.808,628.901C613.581,628.391 614.292,627.803 614.941,627.14C615.59,626.476 616.208,625.71 616.795,624.842C617.382,623.923 618,622.876 618.649,621.702C619.298,620.527 619.854,619.2 620.318,617.719C620.812,616.187 621.214,614.604 621.523,612.97C621.863,611.336 622.11,609.727 622.265,608.145C622.45,606.511 622.574,604.979 622.635,603.549C623.161,603.243 623.423,602.63 623.423,601.711L623.331,600.868C623.207,600.562 623.207,600.204 623.331,599.796C623.516,598.826 623.949,598.085 624.629,597.575C625.123,598.085 625.556,598.647 625.927,599.26C626.328,599.873 626.699,600.485 627.039,601.098Z" style="fill:rgb(52,52,52);fill-rule:nonzero;"/>
        </g>
        <g transform="matrix(1.31673,0,0,0.796875,-137.757,144.701)">
            <path d="M639.693,643.837C638.828,644.297 637.886,644.756 636.866,645.216C635.846,645.675 634.826,645.905 633.807,645.905C632.261,645.905 631.041,645.267 630.145,643.99C629.99,643.428 629.851,643.046 629.727,642.841C629.635,642.637 629.542,642.433 629.449,642.229C629.388,641.973 629.341,641.641 629.31,641.233C628.939,640.518 628.646,639.701 628.43,638.782C628.213,637.812 628.059,636.841 627.966,635.871C627.904,634.85 627.889,633.829 627.92,632.808C627.982,631.786 628.09,630.816 628.244,629.897C628.306,629.693 628.337,629.489 628.337,629.284C628.368,629.08 628.399,628.85 628.43,628.595C628.553,627.778 628.677,626.986 628.8,626.221C628.955,625.455 629.156,624.791 629.403,624.229C629.279,623.77 629.279,623.259 629.403,622.697C629.527,622.136 629.666,621.625 629.82,621.165C630.253,619.225 630.608,617.591 630.886,616.263C631.195,614.885 631.504,613.532 631.813,612.204C632.339,609.906 632.833,607.634 633.297,605.387C633.76,603.14 634.177,600.715 634.548,598.111C634.795,597.856 634.981,597.677 635.105,597.575C635.29,597.473 635.444,597.396 635.568,597.345C636.124,597.804 636.773,598.264 637.515,598.724C638.257,599.132 638.875,599.336 639.369,599.336C639.616,599.592 639.771,599.796 639.833,599.949C639.894,600.051 639.956,600.153 640.018,600.255C640.358,600.919 640.651,601.609 640.899,602.323C641.146,602.987 641.223,603.881 641.13,605.004C640.945,605.464 640.806,605.694 640.713,605.694C640.559,606.715 640.389,607.583 640.203,608.298C640.049,609.013 639.879,609.727 639.693,610.442C639.477,611.208 639.276,611.974 639.091,612.74C638.905,613.506 638.751,614.451 638.627,615.574C638.504,615.829 638.411,616.059 638.349,616.263C638.318,616.468 638.272,616.697 638.21,616.953C638.148,617.208 638.071,617.489 637.978,617.795C637.917,618.051 637.808,618.28 637.654,618.485C637.561,619.812 637.407,620.885 637.19,621.702C637.005,622.519 636.804,623.336 636.588,624.153C636.217,625.633 635.877,627.114 635.568,628.595C635.29,630.076 635.12,631.761 635.058,633.65C635.213,633.548 635.352,633.497 635.475,633.497L635.893,633.497C636.171,633.497 636.495,633.573 636.866,633.727C637.793,632.91 638.797,632.425 639.879,632.271C640.991,632.118 642.088,632.016 643.17,631.965L644.468,631.965C644.901,631.965 645.302,631.914 645.673,631.812C645.951,632.067 646.121,632.22 646.183,632.271L646.554,632.271C646.77,632.271 646.956,632.297 647.11,632.348C647.481,632.91 647.836,633.318 648.176,633.573C648.516,633.829 648.871,634.059 649.242,634.263C649.582,634.467 649.907,634.697 650.216,634.952C650.556,635.156 650.88,635.463 651.189,635.871L651.514,639.165C651.73,639.624 651.823,639.931 651.792,640.084C651.792,640.492 651.73,640.799 651.606,641.003L651.699,641.846C651.236,641.999 650.911,642.177 650.726,642.382C650.571,642.586 650.417,642.816 650.262,643.071C650.015,643.122 649.829,643.148 649.706,643.148L649.428,643.148C648.995,643.148 648.47,643.275 647.852,643.531C647.017,643.071 646.152,642.841 645.256,642.841C644.916,642.841 644.561,642.867 644.19,642.918C643.819,642.969 643.448,643.02 643.077,643.071C642.706,643.173 642.32,643.25 641.918,643.301C641.548,643.352 641.161,643.377 640.76,643.377L639.693,643.837Z" style="fill:rgb(52,52,52);fill-rule:nonzero;"/>
        </g>
    </g>
</svg>
