<?xml version="1.0" encoding="UTF-8" standalone="no"?>
<!DOCTYPE svg PUBLIC "-//W3C//DTD SVG 1.1//EN" "http://www.w3.org/Graphics/SVG/1.1/DTD/svg11.dtd">
<svg width="100%" height="100%" viewBox="0 0 272 123" version="1.1" xmlns="http://www.w3.org/2000/svg" xmlns:xlink="http://www.w3.org/1999/xlink" xml:space="preserve" xmlns:serif="http://www.serif.com/" style="fill-rule:evenodd;clip-rule:evenodd;stroke-linejoin:round;stroke-miterlimit:2;">
    <g transform="matrix(1,0,0,1,-1590.97,-184.914)">
        <g transform="matrix(0.389265,0,0,0.389265,1383.2,-477.055)">
            <g transform="matrix(1,0,0,1,-33.9908,1387.25)">
                <path d="M764.114,546.834L711.085,546.834C711.085,546.834 639.087,444.182 634.87,432.506L634.87,623.052C634.87,626.098 632.401,628.567 629.356,628.567C616.735,628.567 585.868,628.567 573.247,628.567C570.202,628.567 567.733,626.098 567.733,623.052C567.733,584.625 567.733,357.254 567.733,318.827C567.733,315.781 570.202,313.312 573.247,313.312C589.936,313.312 638.762,313.312 638.762,313.312C638.762,313.312 734.437,462.507 737.357,470.939C741.897,456.02 821.92,314.095 821.92,314.095C821.92,314.095 847.633,314.308 865.535,314.457C869.154,314.487 872.5,316.388 874.378,319.481C876.257,322.575 876.4,326.421 874.757,329.646C848.546,381.098 764.114,546.834 764.114,546.834Z" style="fill:rgb(63,215,138);fill-rule:nonzero;"/>
                <g transform="matrix(1.75591,0,0,1.75591,-321.687,48.7257)">
                    <circle cx="684.36" cy="240.453" r="21.686" style="fill:rgb(63,215,138);"/>
                </g>
                <g transform="matrix(1.75591,0,0,1.75591,-321.687,168.274)">
                    <circle cx="684.36" cy="240.453" r="21.686" style="fill:rgb(63,215,138);"/>
                </g>
            </g>
            <g transform="matrix(1,0,0,1,389.522,900.744)">
                <path d="M711.251,948.687L842.608,1111.18L842.608,1113.02C842.608,1114.15 841.687,1115.07 840.552,1115.07C827.657,1115.07 758.442,1115.07 758.442,1115.07L636.816,958.903L636.816,1115.07L581.539,1115.07C577.877,1115.07 574.366,1113.62 571.776,1111.03C569.187,1108.44 567.733,1104.93 567.733,1101.27C567.733,1049.27 567.733,865.613 567.733,813.623C567.733,809.961 569.187,806.449 571.776,803.86C574.366,801.271 577.877,799.816 581.539,799.816C601.698,799.816 636.816,799.816 636.816,799.816L636.816,945.768L757.956,799.816L832.989,799.816C833.733,799.816 834.447,800.112 834.974,800.639C835.501,801.165 835.796,801.879 835.796,802.624C835.796,803.238 835.796,803.708 835.796,803.708L711.251,948.687Z" style="fill:rgb(234,95,95);fill-rule:nonzero;"/>
            </g>
        </g>
    </g>
</svg>
