<?xml version="1.0" encoding="UTF-8" standalone="no"?>
<!DOCTYPE svg PUBLIC "-//W3C//DTD SVG 1.1//EN" "http://www.w3.org/Graphics/SVG/1.1/DTD/svg11.dtd">
<svg width="100%" height="100%" viewBox="0 0 852 781" version="1.1" xmlns="http://www.w3.org/2000/svg" xmlns:xlink="http://www.w3.org/1999/xlink" xml:space="preserve" xmlns:serif="http://www.serif.com/" style="fill-rule:evenodd;clip-rule:evenodd;stroke-linecap:round;stroke-linejoin:round;stroke-miterlimit:1.5;">
    <g transform="matrix(1,0,0,1,-1367.82,-635.921)">
        <g transform="matrix(1,0,0,1,-5.79217,-104.259)">
            <circle cx="1710.66" cy="1159.54" r="328.072" style="fill:none;stroke:rgb(52,52,52);stroke-width:17.95px;"/>
        </g>
        <path d="M1704.87,1055.28L1704.87,727.209" style="fill:none;stroke:rgb(52,52,52);stroke-width:17.95px;"/>
        <path d="M2032.94,1055.28L1704.87,1055.28" style="fill:none;stroke:rgb(52,52,52);stroke-width:17.95px;"/>
        <path d="M1704.87,1055.28L1963.48,1252.16" style="fill:none;stroke:rgb(52,52,52);stroke-width:17.95px;"/>
        <g transform="matrix(0.876941,0.0973652,0.0973652,0.922964,133.203,-105.391)">
            <path d="M1710.44,793.737C1705.58,797.579 1699.14,797.544 1696.07,793.66C1693,789.776 1694.45,783.504 1699.3,779.662L1708.7,772.226C1713.56,768.384 1719.99,768.419 1723.07,772.303C1726.14,776.187 1724.69,782.459 1719.84,786.301L1710.44,793.737ZM1738.63,771.428C1733.78,775.27 1727.34,775.235 1724.27,771.351C1721.19,767.468 1722.64,761.195 1727.5,757.353L1746.3,742.481C1751.15,738.639 1757.59,738.673 1760.66,742.557C1763.73,746.441 1762.29,752.714 1757.43,756.555L1738.63,771.428ZM1776.23,741.683C1771.37,745.525 1764.94,745.49 1761.86,741.606C1758.79,737.722 1760.24,731.45 1765.09,727.608L1774.49,720.172C1779.35,716.33 1785.78,716.365 1788.86,720.249C1791.93,724.133 1790.48,730.405 1785.63,734.247L1776.23,741.683Z" style="fill:rgb(52,52,52);"/>
        </g>
        <path d="M1710.71,874.603C1706.95,877.826 1701.28,877.39 1698.06,873.63C1694.83,869.87 1695.27,864.2 1699.03,860.977L1707.11,854.05C1710.87,850.826 1716.54,851.263 1719.76,855.023C1722.99,858.783 1722.55,864.453 1718.79,867.676L1710.71,874.603ZM1734.95,853.822C1731.19,857.045 1725.52,856.609 1722.3,852.848C1719.08,849.088 1719.51,843.419 1723.27,840.195L1739.44,826.341C1743.2,823.118 1748.87,823.554 1752.09,827.314C1755.31,831.074 1754.88,836.744 1751.12,839.967L1734.95,853.822ZM1767.28,826.113C1763.52,829.336 1757.85,828.9 1754.63,825.14C1751.4,821.379 1751.84,815.71 1755.6,812.486L1771.76,798.632C1775.52,795.409 1781.19,795.845 1784.42,799.605C1787.64,803.365 1787.2,809.035 1783.44,812.258L1767.28,826.113ZM1799.61,798.404C1795.85,801.627 1790.18,801.191 1786.95,797.431C1783.73,793.67 1784.17,788.001 1787.93,784.777L1804.09,770.923C1807.85,767.7 1813.52,768.136 1816.74,771.896C1819.97,775.656 1819.53,781.326 1815.77,784.549L1799.61,798.404ZM1831.93,770.695C1828.17,773.918 1822.5,773.482 1819.28,769.722C1816.06,765.962 1816.49,760.292 1820.25,757.069L1828.33,750.141C1832.09,746.918 1837.76,747.354 1840.99,751.114C1844.21,754.875 1843.77,760.544 1840.01,763.768L1831.93,770.695Z" style="fill:rgb(52,52,52);"/>
        <path d="M1711.18,955.262C1707.66,958.744 1701.97,958.712 1698.49,955.19C1695.01,951.668 1695.04,945.981 1698.56,942.499L1705.39,935.742C1708.92,932.26 1714.6,932.292 1718.09,935.814C1721.57,939.336 1721.54,945.022 1718.01,948.504L1711.18,955.262ZM1731.68,934.989C1728.16,938.471 1722.48,938.439 1718.99,934.917C1715.51,931.395 1715.54,925.709 1719.07,922.227L1732.74,908.712C1736.26,905.23 1741.94,905.262 1745.42,908.784C1748.91,912.306 1748.88,917.992 1745.35,921.474L1731.68,934.989ZM1759.02,907.959C1755.5,911.441 1749.81,911.409 1746.33,907.887C1742.85,904.365 1742.88,898.679 1746.4,895.197L1760.07,881.682C1763.6,878.2 1769.28,878.232 1772.76,881.754C1776.25,885.276 1776.21,890.962 1772.69,894.444L1759.02,907.959ZM1786.36,880.929C1782.84,884.411 1777.15,884.379 1773.67,880.857C1770.19,877.335 1770.22,871.648 1773.74,868.166L1787.41,854.651C1790.93,851.169 1796.62,851.201 1800.1,854.723C1803.59,858.245 1803.55,863.932 1800.03,867.414L1786.36,880.929ZM1813.7,853.899C1810.18,857.381 1804.49,857.349 1801.01,853.827C1797.53,850.305 1797.56,844.619 1801.08,841.136L1814.75,827.621C1818.27,824.139 1823.96,824.172 1827.44,827.693C1830.92,831.215 1830.89,836.902 1827.37,840.384L1813.7,853.899ZM1841.04,826.869C1837.52,830.351 1831.83,830.318 1828.35,826.797C1824.87,823.275 1824.9,817.588 1828.42,814.106L1842.09,800.591C1845.61,797.109 1851.3,797.141 1854.78,800.663C1858.26,804.185 1858.23,809.872 1854.71,813.354L1841.04,826.869ZM1868.38,799.839C1864.86,803.321 1859.17,803.288 1855.69,799.766C1852.21,796.244 1852.24,790.558 1855.76,787.076L1862.6,780.318C1866.12,776.836 1871.81,776.869 1875.29,780.391C1878.77,783.913 1878.74,789.599 1875.22,793.081L1868.38,799.839Z" style="fill:rgb(52,52,52);"/>
        <path d="M1715.63,1029.84C1712.09,1033.31 1706.41,1033.25 1702.94,1029.71C1699.48,1026.17 1699.54,1020.49 1703.08,1017.02L1709.81,1010.43C1713.35,1006.96 1719.03,1007.02 1722.5,1010.56C1725.97,1014.1 1725.9,1019.78 1722.37,1023.25L1715.63,1029.84ZM1735.84,1010.06C1732.3,1013.52 1726.61,1013.46 1723.15,1009.92C1719.68,1006.38 1719.74,1000.7 1723.28,997.233L1736.75,984.042C1740.29,980.577 1745.97,980.636 1749.44,984.175C1752.9,987.713 1752.84,993.399 1749.31,996.865L1735.84,1010.06ZM1762.78,983.673C1759.24,987.139 1753.55,987.079 1750.09,983.541C1746.62,980.002 1746.68,974.316 1750.22,970.851L1763.69,957.66C1767.23,954.194 1772.91,954.254 1776.38,957.792C1779.84,961.331 1779.78,967.017 1776.25,970.482L1762.78,983.673ZM1789.71,957.291C1786.18,960.756 1780.49,960.697 1777.02,957.158C1773.56,953.62 1773.62,947.934 1777.16,944.468L1790.63,931.277C1794.16,927.812 1799.85,927.871 1803.32,931.41C1806.78,934.948 1806.72,940.634 1803.18,944.1L1789.71,957.291ZM1816.65,930.908C1813.11,934.374 1807.43,934.314 1803.96,930.776C1800.5,927.237 1800.56,921.551 1804.1,918.086L1817.57,904.895C1821.1,901.429 1826.79,901.489 1830.26,905.027C1833.72,908.566 1833.66,914.252 1830.12,917.717L1816.65,930.908ZM1843.59,904.526C1840.05,907.991 1834.37,907.932 1830.9,904.394C1827.44,900.855 1827.5,895.169 1831.03,891.704L1844.5,878.513C1848.04,875.047 1853.73,875.107 1857.19,878.645C1860.66,882.183 1860.6,887.87 1857.06,891.335L1843.59,904.526ZM1870.53,878.144C1866.99,881.609 1861.31,881.55 1857.84,878.011C1854.38,874.473 1854.43,868.787 1857.97,865.321L1871.44,852.13C1874.98,848.665 1880.67,848.724 1884.13,852.263C1887.6,855.801 1887.54,861.487 1884,864.952L1870.53,878.144ZM1897.47,851.761C1893.93,855.227 1888.24,855.167 1884.78,851.629C1881.31,848.091 1881.37,842.404 1884.91,838.939L1898.38,825.748C1901.92,822.283 1907.61,822.342 1911.07,825.88C1914.54,829.419 1914.48,835.105 1910.94,838.57L1897.47,851.761ZM1924.41,825.379C1920.87,828.844 1915.18,828.785 1911.72,825.247C1908.25,821.708 1908.31,816.022 1911.85,812.557L1918.59,805.961C1922.12,802.496 1927.81,802.555 1931.27,806.094C1934.74,809.632 1934.68,815.318 1931.14,818.783L1924.41,825.379Z" style="fill:rgb(52,52,52);"/>
        <g transform="matrix(1,0,0,1,-8.22069,-1.49466)">
            <path d="M1780.66,1060.83C1777.08,1064.25 1771.4,1064.13 1767.97,1060.55C1764.55,1056.98 1764.67,1051.29 1768.25,1047.87L1775.2,1041.2C1778.78,1037.78 1784.47,1037.9 1787.89,1041.48C1791.32,1045.06 1791.19,1050.74 1787.62,1054.17L1780.66,1060.83ZM1801.53,1040.84C1797.96,1044.27 1792.27,1044.14 1788.85,1040.57C1785.42,1036.99 1785.54,1031.3 1789.12,1027.88L1803.04,1014.55C1806.61,1011.13 1812.3,1011.25 1815.72,1014.83C1819.15,1018.4 1819.03,1024.09 1815.45,1027.52L1801.53,1040.84ZM1829.37,1014.19C1825.79,1017.62 1820.1,1017.49 1816.68,1013.91C1813.25,1010.34 1813.38,1004.65 1816.95,1001.23L1830.87,987.901C1834.44,984.476 1840.13,984.599 1843.56,988.176C1846.98,991.753 1846.86,997.438 1843.28,1000.86L1829.37,1014.19ZM1857.19,987.538C1853.62,990.964 1847.93,990.841 1844.51,987.264C1841.08,983.686 1841.2,978.001 1844.78,974.576L1858.7,961.251C1862.28,957.825 1867.96,957.948 1871.38,961.525C1874.81,965.102 1874.69,970.788 1871.11,974.213L1857.19,987.538ZM1885.03,960.887C1881.45,964.313 1875.76,964.189 1872.34,960.612C1868.91,957.035 1869.04,951.35 1872.61,947.925L1886.53,934.599C1890.11,931.174 1895.79,931.297 1899.22,934.874C1902.64,938.451 1902.52,944.136 1898.94,947.562L1885.03,960.887ZM1912.86,934.236C1909.28,937.661 1903.6,937.538 1900.17,933.961C1896.74,930.384 1896.87,924.699 1900.44,921.274L1914.36,907.948C1917.94,904.523 1923.62,904.646 1927.05,908.223C1930.47,911.8 1930.35,917.485 1926.77,920.91L1912.86,934.236ZM1940.69,907.585C1937.11,911.011 1931.43,910.887 1928,907.31C1924.58,903.733 1924.7,898.048 1928.28,894.623L1942.19,881.297C1945.77,877.872 1951.45,877.995 1954.88,881.572C1958.3,885.149 1958.18,890.834 1954.6,894.26L1940.69,907.585ZM1968.52,880.934C1964.94,884.359 1959.26,884.236 1955.83,880.659C1952.41,877.082 1952.53,871.397 1956.11,867.972L1963.06,861.309C1966.64,857.884 1972.33,858.007 1975.75,861.584C1979.18,865.161 1979.05,870.846 1975.48,874.271L1968.52,880.934Z" style="fill:rgb(52,52,52);"/>
        </g>
        <g transform="matrix(0.982671,0.0180838,0.0180838,0.981129,13.403,-13.9866)">
            <path d="M1864.57,1059.38C1860.77,1062.85 1854.99,1062.67 1851.67,1059C1848.35,1055.32 1848.74,1049.52 1852.54,1046.06L1859.91,1039.34C1863.7,1035.88 1869.48,1036.05 1872.8,1039.73C1876.12,1043.4 1875.73,1049.2 1871.93,1052.66L1864.57,1059.38ZM1886.68,1039.22C1882.88,1042.68 1877.1,1042.51 1873.78,1038.83C1870.46,1035.15 1870.85,1029.36 1874.65,1025.89L1889.39,1012.45C1893.18,1008.99 1898.96,1009.16 1902.28,1012.84C1905.6,1016.51 1905.21,1022.31 1901.42,1025.77L1886.68,1039.22ZM1916.16,1012.33C1912.36,1015.79 1906.58,1015.62 1903.26,1011.94C1899.94,1008.26 1900.33,1002.47 1904.13,999.004L1918.87,985.559C1922.66,982.097 1928.44,982.271 1931.76,985.948C1935.08,989.625 1934.69,995.421 1930.9,998.883L1916.16,1012.33ZM1945.64,985.439C1941.84,988.901 1936.06,988.727 1932.75,985.05C1929.42,981.373 1929.81,975.577 1933.61,972.114L1948.35,958.67C1952.14,955.207 1957.92,955.381 1961.24,959.058C1964.56,962.735 1964.17,968.531 1960.38,971.994L1945.64,985.439ZM1975.12,958.549C1971.32,962.012 1965.54,961.837 1962.23,958.16C1958.91,954.484 1959.29,948.687 1963.09,945.225L1977.83,931.78C1981.62,928.318 1987.4,928.492 1990.72,932.169C1994.04,935.846 1993.65,941.642 1989.86,945.105L1975.12,958.549ZM2004.6,931.66C2000.8,935.122 1995.03,934.948 1991.71,931.271C1988.39,927.594 1988.77,921.798 1992.57,918.336L1999.94,911.613C2003.74,908.151 2009.51,908.325 2012.83,912.002C2016.15,915.679 2015.76,921.475 2011.97,924.938L2004.6,931.66Z" style="fill:rgb(52,52,52);"/>
        </g>
        <g transform="matrix(1.10273,-0.107201,-0.107201,1.11187,-86.1967,89.95)">
            <path d="M1938.71,1060.19C1935.7,1062.94 1930.48,1062.26 1927.07,1058.67C1923.65,1055.09 1923.33,1049.94 1926.35,1047.19L1932.47,1041.62C1935.48,1038.87 1940.7,1039.55 1944.11,1043.13C1947.53,1046.72 1947.85,1051.86 1944.83,1054.61L1938.71,1060.19ZM1957.07,1043.46C1954.05,1046.21 1948.84,1045.53 1945.42,1041.94C1942.01,1038.36 1941.69,1033.22 1944.7,1030.47L1956.94,1019.32C1959.95,1016.57 1965.17,1017.25 1968.59,1020.83C1972,1024.42 1972.32,1029.56 1969.31,1032.31L1957.07,1043.46ZM1981.55,1021.15C1978.53,1023.9 1973.31,1023.22 1969.9,1019.64C1966.48,1016.05 1966.16,1010.91 1969.18,1008.16L1981.41,997.01C1984.43,994.262 1989.65,994.941 1993.06,998.527C1996.48,1002.11 1996.8,1007.25 1993.78,1010L1981.55,1021.15ZM2006.02,998.851C2003,1001.6 1997.78,1000.92 1994.37,997.335C1990.96,993.749 1990.63,988.607 1993.65,985.858L1999.77,980.282C2002.79,977.534 2008.01,978.213 2011.42,981.798C2014.83,985.384 2015.15,990.526 2012.14,993.275L2006.02,998.851Z" style="fill:rgb(52,52,52);"/>
        </g>
        <path d="M1897.26,875.959C1897.26,875.959 2029.06,865.662 2022.88,787.404" style="fill:none;stroke:rgb(52,52,52);stroke-width:17.92px;"/>
        <g transform="matrix(1.25796,0.0762146,0.0762146,1.02252,-624.583,-184.536)">
            <path d="M1987.87,1133.39L2101.45,1164.16" style="fill:none;stroke:rgb(52,52,52);stroke-width:14.66px;"/>
        </g>
        <g transform="matrix(0.979813,-0.356516,0.332607,0.914103,-173.471,799.704)">
            <g transform="matrix(1,0,0,1,0,-8.43546)">
                <path d="M2030.05,677.265L2051.14,639.042L2052.46,695.717" style="fill:none;stroke:rgb(52,52,52);stroke-width:17.77px;"/>
            </g>
            <path d="M2019.51,712.852L2085.41,711.534" style="fill:none;stroke:rgb(52,52,52);stroke-width:17.77px;"/>
            <path d="M2048.5,736.577L2020.83,777.436L2059.05,780.072" style="fill:none;stroke:rgb(52,52,52);stroke-width:17.77px;"/>
            <g transform="matrix(0.999838,0.00826535,0.00719391,0.633088,-5.25303,267.921)">
                <path d="M2061.68,749.757L2060.37,816.977" style="fill:none;stroke:rgb(52,52,52);stroke-width:20.75px;"/>
            </g>
        </g>
        <g transform="matrix(1.03343,0.138443,-0.129158,0.964121,146.993,204.414)">
            <g transform="matrix(1,0,0,1,0,-8.43546)">
                <path d="M2030.05,677.265L2051.14,639.042L2052.46,695.717" style="fill:none;stroke:rgb(52,52,52);stroke-width:17.77px;"/>
            </g>
            <path d="M2019.51,712.852L2085.41,711.534" style="fill:none;stroke:rgb(52,52,52);stroke-width:17.77px;"/>
            <g transform="matrix(0.774931,-0.111276,0.103813,0.830636,248.04,-9.85413)">
                <path d="M2167.02,1232.44C2167.02,1232.44 2203.29,1202.91 2176.3,1192.79C2149.3,1182.67 2148.46,1206.29 2158.58,1227.38C2168.7,1248.46 2201.6,1285.58 2160.27,1289.8C2118.94,1294.02 2137.49,1248.46 2148.46,1248.46" style="fill:none;stroke:rgb(52,52,52);stroke-width:15.76px;"/>
            </g>
        </g>
        <path d="M1738.69,1076.43L1781.53,1058.31" style="fill:none;stroke:rgb(52,52,52);stroke-width:17.92px;"/>
        <path d="M1761.76,1094L1829.86,1059.95" style="fill:none;stroke:rgb(52,52,52);stroke-width:17.92px;"/>
        <path d="M1785.92,1108.28L1877.09,1058.86" style="fill:none;stroke:rgb(52,52,52);stroke-width:17.92px;"/>
        <path d="M1811.19,1128.05L1947.38,1057.76" style="fill:none;stroke:rgb(52,52,52);stroke-width:17.92px;"/>
        <path d="M1839.75,1151.12L2011.09,1055.56" style="fill:none;stroke:rgb(52,52,52);stroke-width:17.92px;"/>
        <path d="M1863.91,1169.79L2028.66,1077.53" style="fill:none;stroke:rgb(52,52,52);stroke-width:17.92px;"/>
        <path d="M1892.47,1188.46L2023.17,1120.36" style="fill:none;stroke:rgb(52,52,52);stroke-width:17.92px;"/>
        <path d="M1915.53,1215.92L2016.58,1158.81" style="fill:none;stroke:rgb(52,52,52);stroke-width:17.92px;"/>
        <path d="M1941.89,1230.2L1996.81,1198.35" style="fill:none;stroke:rgb(52,52,52);stroke-width:17.92px;"/>
        <path d="M1475.44,1291.31C1475.44,1291.31 1544.78,1364.55 1608.56,1386.64C1688.82,1414.45 1813.43,1423.61 1916.08,1358.98C1982.93,1316.88 2032.98,1247.87 2056.77,1158.5C2083.66,1057.53 2047.81,900.159 1935.91,823.809" style="fill:none;stroke:rgb(52,52,52);stroke-width:17.92px;"/>
        <path d="M1699.45,1385.07L1697.11,1403.76" style="fill:none;stroke:rgb(52,52,52);stroke-width:17.92px;"/>
        <path d="M1756.66,1381.57L1763.67,1399.09" style="fill:none;stroke:rgb(52,52,52);stroke-width:17.92px;"/>
        <path d="M1803.37,1371.06L1812.72,1394.41" style="fill:none;stroke:rgb(52,52,52);stroke-width:17.92px;"/>
        <path d="M1848.91,1352.38L1855.92,1382.74" style="fill:none;stroke:rgb(52,52,52);stroke-width:17.92px;"/>
        <path d="M1897.96,1322.02L1906.13,1354.71" style="fill:none;stroke:rgb(52,52,52);stroke-width:17.92px;"/>
        <path d="M1936.49,1293.99L1951.67,1327.86" style="fill:none;stroke:rgb(52,52,52);stroke-width:17.92px;"/>
        <path d="M1972.69,1255.46L1983.2,1283.48" style="fill:none;stroke:rgb(52,52,52);stroke-width:17.92px;"/>
        <path d="M2004.22,1206.41L2015.89,1237.94" style="fill:none;stroke:rgb(52,52,52);stroke-width:17.92px;"/>
        <path d="M2019.4,1158.54L2035.75,1187.73" style="fill:none;stroke:rgb(52,52,52);stroke-width:17.92px;"/>
        <path d="M2036.91,1102.49L2057.93,1122.34" style="fill:none;stroke:rgb(52,52,52);stroke-width:17.92px;"/>
        <path d="M2035.75,1030.09L2061.44,1066.29" style="fill:none;stroke:rgb(52,52,52);stroke-width:17.92px;"/>
        <path d="M2026.4,962.365L2048.59,984.551" style="fill:none;stroke:rgb(52,52,52);stroke-width:17.92px;"/>
    </g>
</svg>
