<?xml version="1.0" encoding="UTF-8" standalone="no"?>
<!DOCTYPE svg PUBLIC "-//W3C//DTD SVG 1.1//EN" "http://www.w3.org/Graphics/SVG/1.1/DTD/svg11.dtd">
<svg width="100%" height="100%" viewBox="0 0 730 541" version="1.1" xmlns="http://www.w3.org/2000/svg" xmlns:xlink="http://www.w3.org/1999/xlink" xml:space="preserve" xmlns:serif="http://www.serif.com/" style="fill-rule:evenodd;clip-rule:evenodd;stroke-linecap:round;stroke-linejoin:round;stroke-miterlimit:1.5;">
    <g transform="matrix(1,0,0,1,-240.899,-981.681)">
        <g transform="matrix(0.587887,0,0,0.587887,-85.9357,79.6285)">
            <path d="M865.415,2291.68C797.745,2312.27 567.894,2400.78 567.894,2400.78C567.894,2400.78 682.883,2237.82 708.448,2203.08" style="fill:none;stroke:rgb(52,52,52);stroke-width:17.72px;"/>
        </g>
        <g transform="matrix(0.587887,0,0,0.587887,-85.9357,79.6285)">
            <path d="M708.448,2203.08C620.766,2133.23 567.894,2042.99 567.894,1944.51C567.894,1723.05 835.278,1543.26 1164.62,1543.26C1493.96,1543.26 1761.35,1723.05 1761.35,1944.51C1761.35,2165.97 1493.96,2345.76 1164.62,2345.76C1055.62,2345.76 953.397,2326.07 865.415,2291.68" style="fill:none;stroke:rgb(52,52,52);stroke-width:17.72px;"/>
        </g>
        <g transform="matrix(0.991753,0,0,1.15789,113.259,111.398)">
            <path d="M297.818,843.988C304.367,843.988 309.405,845.264 312.935,847.816C316.464,850.335 318.228,854.5 318.228,860.31C318.228,863.971 317.307,867.028 315.464,869.479C313.66,871.898 311.17,873.694 307.994,874.87C304.818,876.045 301.21,876.633 297.171,876.633L285.819,876.633L285.819,843.988L297.818,843.988ZM296.171,871.746C299.504,871.746 302.23,871.427 304.347,870.789C306.504,870.151 308.151,869.009 309.288,867.363C310.464,865.684 311.052,863.333 311.052,860.31C311.052,856.28 309.974,853.375 307.817,851.595C305.7,849.781 302.406,848.874 297.936,848.874L292.525,848.874L292.525,871.746L296.171,871.746Z" style="fill:rgb(52,52,52);fill-rule:nonzero;"/>
        </g>
        <g transform="matrix(0.991753,0,0,1.15789,113.259,111.398)">
            <path d="M327.58,850.285C326.835,850.285 326.129,850.134 325.463,849.832C324.835,849.496 324.326,849.059 323.934,848.522C323.541,847.951 323.345,847.346 323.345,846.708C323.345,846.07 323.541,845.482 323.934,844.945C324.326,844.374 324.835,843.921 325.463,843.585C326.129,843.249 326.835,843.081 327.58,843.081C328.365,843.081 329.09,843.249 329.757,843.585C330.423,843.921 330.953,844.374 331.345,844.945C331.737,845.482 331.933,846.07 331.933,846.708C331.933,847.346 331.737,847.951 331.345,848.522C330.953,849.059 330.423,849.496 329.757,849.832C329.09,850.134 328.365,850.285 327.58,850.285ZM324.522,876.633L324.522,854.366L330.874,853.812L330.874,876.633L324.522,876.633Z" style="fill:rgb(52,52,52);fill-rule:nonzero;"/>
        </g>
        <g transform="matrix(0.991753,0,0,1.15789,113.259,111.398)">
            <path d="M361.754,841.418L361.754,876.633L356.166,876.633L355.754,874.971C352.97,876.516 350.245,877.288 347.579,877.288C344.049,877.288 341.344,876.314 339.462,874.366C337.619,872.385 336.697,869.597 336.697,866.003C336.697,863.283 337.305,860.999 338.521,859.152C339.775,857.271 341.422,855.877 343.461,854.97C345.5,854.063 347.755,853.61 350.225,853.61C351.872,853.61 353.598,853.828 355.401,854.265L355.401,841.973L361.754,841.418ZM343.344,865.953C343.344,870.621 345.324,872.955 349.284,872.955C351.245,872.955 353.284,872.418 355.401,871.343L355.401,858.295C354.029,857.892 352.559,857.691 350.99,857.691C349.5,857.691 348.167,857.993 346.99,858.598C345.853,859.202 344.951,860.126 344.285,861.368C343.657,862.611 343.344,864.139 343.344,865.953Z" style="fill:rgb(52,52,52);fill-rule:nonzero;"/>
        </g>
        <g transform="matrix(0.991753,0,0,1.15789,113.259,111.398)">
            <path d="M405.926,854.315L405.926,854.618L396.927,877.137C396.025,879.421 395.025,881.251 393.928,882.628C392.83,884.039 391.555,885.063 390.104,885.701C388.653,886.339 386.928,886.659 384.928,886.659C383.164,886.659 381.34,886.39 379.458,885.852L381.105,881.873C382.203,882.175 383.301,882.326 384.399,882.326C385.34,882.326 386.163,882.208 386.869,881.973C387.575,881.738 388.242,881.251 388.869,880.512C389.536,879.807 390.183,878.749 390.81,877.338L391.104,876.633L389.398,876.633L379.517,854.618L379.517,854.315L386.222,854.315L391.634,867.565C392.261,869.043 392.751,870.386 393.104,871.595C393.731,869.647 394.182,868.304 394.457,867.565L399.398,854.315L405.926,854.315Z" style="fill:rgb(52,52,52);fill-rule:nonzero;"/>
        </g>
        <g transform="matrix(0.991753,0,0,1.15789,113.259,111.398)">
            <path d="M420.572,877.288C417.749,877.288 415.377,876.767 413.455,875.726C411.534,874.652 410.083,873.224 409.103,871.444C408.162,869.63 407.691,867.615 407.691,865.399C407.691,862.611 408.299,860.344 409.514,858.598C410.769,856.851 412.436,855.592 414.514,854.819C416.592,854.013 418.925,853.61 421.513,853.61C424.376,853.61 426.768,854.131 428.689,855.172C430.611,856.179 432.042,857.573 432.983,859.353C433.963,861.133 434.453,863.165 434.453,865.449C434.453,868.203 433.826,870.47 432.571,872.25C431.356,873.997 429.709,875.273 427.63,876.079C425.552,876.885 423.199,877.288 420.572,877.288ZM421.043,873.056C423.474,873.056 425.199,872.385 426.219,871.041C427.278,869.664 427.807,867.783 427.807,865.399C427.807,863.014 427.258,861.167 426.16,859.857C425.101,858.514 423.454,857.842 421.219,857.842C418.749,857.842 416.965,858.497 415.867,859.807C414.808,861.116 414.279,862.98 414.279,865.399C414.279,867.75 414.828,869.614 415.926,870.991C417.063,872.368 418.768,873.056 421.043,873.056Z" style="fill:rgb(52,52,52);fill-rule:nonzero;"/>
        </g>
        <g transform="matrix(0.991753,0,0,1.15789,113.259,111.398)">
            <path d="M463.333,853.812L463.333,876.633L457.804,876.633L457.334,874.92C454.275,876.499 451.197,877.288 448.099,877.288C445.629,877.288 443.649,876.684 442.159,875.474C440.708,874.265 439.982,872.536 439.982,870.285L439.982,854.366L446.335,853.812L446.335,868.673C446.335,869.681 446.452,870.487 446.688,871.091C446.962,871.696 447.413,872.149 448.04,872.452C448.668,872.72 449.531,872.855 450.628,872.855C452.354,872.855 454.471,872.284 456.981,871.142L456.981,854.366L463.333,853.812Z" style="fill:rgb(52,52,52);fill-rule:nonzero;"/>
        </g>
        <g transform="matrix(0.991753,0,0,1.15789,113.259,111.398)">
            <path d="M498.095,864.643L508.859,876.28L508.859,876.633L501.271,876.633L491.154,865.197L491.154,876.633L484.802,876.633L484.802,841.973L491.154,841.418L491.154,864.441L501.448,854.315L508.329,854.315L508.329,854.618L498.095,864.643Z" style="fill:rgb(52,52,52);fill-rule:nonzero;"/>
        </g>
        <g transform="matrix(0.991753,0,0,1.15789,113.259,111.398)">
            <path d="M528.857,853.61C531.406,853.61 533.366,854.181 534.739,855.323C536.15,856.431 536.856,858.178 536.856,860.562L536.856,876.633L530.504,876.633L530.504,862.326C530.504,861.217 530.367,860.361 530.092,859.756C529.857,859.118 529.426,858.665 528.798,858.396C528.21,858.127 527.387,857.993 526.328,857.993C524.328,857.993 522.112,858.514 519.681,859.555L519.681,876.633L513.329,876.633L513.329,854.366L519.681,853.812L519.681,855.978C522.858,854.399 525.916,853.61 528.857,853.61Z" style="fill:rgb(52,52,52);fill-rule:nonzero;"/>
        </g>
        <g transform="matrix(0.991753,0,0,1.15789,113.259,111.398)">
            <path d="M555.325,877.288C552.502,877.288 550.13,876.767 548.208,875.726C546.287,874.652 544.836,873.224 543.856,871.444C542.915,869.63 542.444,867.615 542.444,865.399C542.444,862.611 543.052,860.344 544.267,858.598C545.522,856.851 547.189,855.592 549.267,854.819C551.345,854.013 553.678,853.61 556.266,853.61C559.129,853.61 561.521,854.131 563.442,855.172C565.364,856.179 566.795,857.573 567.736,859.353C568.716,861.133 569.206,863.165 569.206,865.449C569.206,868.203 568.579,870.47 567.324,872.25C566.109,873.997 564.462,875.273 562.383,876.079C560.305,876.885 557.952,877.288 555.325,877.288ZM555.796,873.056C558.227,873.056 559.952,872.385 560.972,871.041C562.031,869.664 562.56,867.783 562.56,865.399C562.56,863.014 562.011,861.167 560.913,859.857C559.854,858.514 558.207,857.842 555.972,857.842C553.502,857.842 551.718,858.497 550.62,859.807C549.561,861.116 549.032,862.98 549.032,865.399C549.032,867.75 549.581,869.614 550.679,870.991C551.816,872.368 553.522,873.056 555.796,873.056Z" style="fill:rgb(52,52,52);fill-rule:nonzero;"/>
        </g>
        <g transform="matrix(0.991753,0,0,1.15789,113.259,111.398)">
            <path d="M609.85,854.315L609.85,854.618L602.145,876.633L596.086,876.633L591.793,864.24C591.205,862.527 590.812,861.15 590.616,860.109C590.381,861.419 590.009,862.796 589.499,864.24L585.381,876.684L579.323,876.684L571.089,854.618L571.089,854.315L577.97,854.315L581.794,866.759C582.107,867.766 582.382,868.925 582.617,870.235C583.048,868.522 583.362,867.363 583.558,866.759L587.617,854.315L594.028,854.315L598.145,866.608C598.616,868.119 598.969,869.463 599.204,870.638C599.361,869.362 599.616,868.018 599.968,866.608L603.439,854.315L609.85,854.315Z" style="fill:rgb(52,52,52);fill-rule:nonzero;"/>
        </g>
        <g transform="matrix(0.991753,0,0,1.15789,113.259,111.398)">
            <path d="M644.847,875.777C642.573,876.784 640.22,877.288 637.789,877.288C636.259,877.288 634.887,877.036 633.671,876.532C632.456,876.029 631.495,875.239 630.789,874.165C630.083,873.09 629.731,871.746 629.731,870.134L629.731,858.598L624.731,858.598L624.731,854.315L629.731,854.315L629.731,849.277L636.083,848.471L636.083,854.315L644.2,854.315L643.553,858.598L636.083,858.598L636.083,869.278C636.083,870.521 636.338,871.427 636.848,871.998C637.397,872.569 638.181,872.855 639.2,872.855C639.789,872.855 640.377,872.788 640.965,872.653C641.553,872.519 642.259,872.317 643.082,872.049L644.847,875.777Z" style="fill:rgb(52,52,52);fill-rule:nonzero;"/>
        </g>
        <g transform="matrix(0.991753,0,0,1.15789,113.259,111.398)">
            <path d="M664.845,853.61C667.394,853.61 669.374,854.164 670.786,855.273C672.197,856.381 672.903,858.111 672.903,860.462L672.903,876.633L666.551,876.633L666.551,862.326C666.551,861.217 666.414,860.361 666.139,859.756C665.865,859.118 665.414,858.665 664.786,858.396C664.198,858.127 663.375,857.993 662.316,857.993C660.238,857.993 658.061,858.497 655.787,859.504L655.787,876.633L649.435,876.633L649.435,841.973L655.787,841.418L655.787,855.776C658.806,854.332 661.826,853.61 664.845,853.61Z" style="fill:rgb(52,52,52);fill-rule:nonzero;"/>
        </g>
        <g transform="matrix(0.991753,0,0,1.15789,113.259,111.398)">
            <path d="M691.431,853.61C694.647,853.61 697.058,854.198 698.666,855.373C700.273,856.549 701.077,858.43 701.077,861.016L701.077,876.633L695.548,876.633L695.078,874.769C693.627,875.676 692.137,876.314 690.608,876.684C689.118,877.087 687.569,877.288 685.961,877.288C684.393,877.288 683,877.036 681.785,876.532C680.609,876.029 679.687,875.323 679.02,874.416C678.354,873.476 678.021,872.401 678.021,871.192C678.021,869.379 678.766,867.867 680.256,866.658C681.746,865.415 683.746,864.492 686.255,863.887C688.765,863.283 691.588,862.947 694.725,862.88L694.725,862.023C694.725,860.579 694.411,859.538 693.784,858.9C693.156,858.262 692.059,857.943 690.49,857.943C687.784,857.943 684.883,858.799 681.785,860.512L679.197,857.036C681.079,855.894 683.02,855.037 685.02,854.466C687.02,853.896 689.157,853.61 691.431,853.61ZM684.667,870.588C684.667,871.394 684.941,872.015 685.49,872.452C686.079,872.855 686.922,873.056 688.02,873.056C690.216,873.056 692.451,872.485 694.725,871.343L694.725,866.507C691.588,866.641 689.118,867.061 687.314,867.766C685.549,868.438 684.667,869.379 684.667,870.588Z" style="fill:rgb(52,52,52);fill-rule:nonzero;"/>
        </g>
        <g transform="matrix(0.991753,0,0,1.15789,113.259,111.398)">
            <path d="M724.664,875.777C722.389,876.784 720.036,877.288 717.605,877.288C716.076,877.288 714.704,877.036 713.488,876.532C712.272,876.029 711.312,875.239 710.606,874.165C709.9,873.09 709.547,871.746 709.547,870.134L709.547,858.598L704.548,858.598L704.548,854.315L709.547,854.315L709.547,849.277L715.9,848.471L715.9,854.315L724.017,854.315L723.37,858.598L715.9,858.598L715.9,869.278C715.9,870.521 716.154,871.427 716.664,871.998C717.213,872.569 717.997,872.855 719.017,872.855C719.605,872.855 720.193,872.788 720.782,872.653C721.37,872.519 722.076,872.317 722.899,872.049L724.664,875.777Z" style="fill:rgb(52,52,52);fill-rule:nonzero;"/>
        </g>
        <g transform="matrix(0.991753,0,0,1.15789,113.259,111.398)">
            <path d="M284.261,922.276L284.261,927.012L258.91,927.012L258.91,924.342C263.929,920.009 267.654,916.701 270.085,914.417C272.516,912.133 274.301,910.169 275.438,908.523C276.614,906.844 277.202,905.282 277.202,903.838C277.202,902.192 276.693,900.932 275.673,900.059C274.654,899.186 273.203,898.749 271.32,898.749C268.38,898.749 265.399,899.841 262.38,902.024L258.91,898.447C260.714,897.003 262.753,895.861 265.027,895.021C267.301,894.182 269.674,893.762 272.144,893.762C274.418,893.762 276.457,894.115 278.261,894.82C280.104,895.525 281.535,896.583 282.555,897.994C283.614,899.371 284.143,901.016 284.143,902.931C284.143,904.778 283.653,906.592 282.672,908.372C281.731,910.152 280.202,912.117 278.085,914.266C275.967,916.416 273.007,919.086 269.203,922.276L284.261,922.276Z" style="fill:rgb(52,52,52);fill-rule:nonzero;"/>
        </g>
        <g transform="matrix(0.991753,0,0,1.15789,113.259,111.398)">
            <path d="M303.612,927.667C299.181,927.667 295.769,926.239 293.377,923.385C291.025,920.53 289.848,916.315 289.848,910.74C289.848,906.508 290.554,903.132 291.966,900.613C293.377,898.061 295.162,896.281 297.318,895.273C299.514,894.232 301.867,893.712 304.376,893.712C308.729,893.712 312.101,895.156 314.493,898.044C316.885,900.899 318.081,905.148 318.081,910.79C318.081,915.055 317.375,918.448 315.964,920.966C314.591,923.452 312.827,925.198 310.67,926.206C308.553,927.18 306.2,927.667 303.612,927.667ZM303.847,922.881C305.572,922.881 306.964,922.478 308.023,921.672C309.121,920.866 309.925,919.573 310.435,917.793C310.984,916.013 311.258,913.662 311.258,910.74C311.258,906.676 310.67,903.636 309.494,901.621C308.317,899.572 306.533,898.548 304.141,898.548C301.632,898.548 299.749,899.522 298.495,901.47C297.279,903.418 296.671,906.508 296.671,910.74C296.671,914.871 297.24,917.927 298.377,919.909C299.553,921.89 301.377,922.881 303.847,922.881Z" style="fill:rgb(52,52,52);fill-rule:nonzero;"/>
        </g>
        <g transform="matrix(0.991753,0,0,1.15789,113.259,111.398)">
            <path d="M333.609,912.956C331.531,912.956 329.61,912.587 327.845,911.848C326.12,911.075 324.747,909.967 323.728,908.523C322.708,907.045 322.198,905.299 322.198,903.284C322.198,901.336 322.708,899.639 323.728,898.195C324.786,896.751 326.178,895.643 327.904,894.87C329.629,894.098 331.531,893.712 333.609,893.712C335.648,893.712 337.53,894.098 339.256,894.87C340.981,895.609 342.354,896.701 343.373,898.145C344.432,899.589 344.961,901.285 344.961,903.233C344.961,905.282 344.451,907.045 343.432,908.523C342.412,909.967 341.04,911.075 339.315,911.848C337.589,912.587 335.687,912.956 333.609,912.956ZM336.609,927.667L332.374,925.249L359.078,893.712L363.313,896.079L336.609,927.667ZM333.609,908.724C334.707,908.724 335.648,908.489 336.432,908.019C337.217,907.515 337.805,906.86 338.197,906.054C338.589,905.248 338.785,904.341 338.785,903.334C338.785,901.722 338.334,900.429 337.432,899.455C336.531,898.447 335.256,897.943 333.609,897.943C331.923,897.943 330.629,898.43 329.727,899.404C328.825,900.378 328.374,901.638 328.374,903.183C328.374,904.795 328.825,906.122 329.727,907.163C330.629,908.204 331.923,908.724 333.609,908.724ZM362.019,927.667C359.94,927.667 358.019,927.297 356.254,926.559C354.529,925.786 353.157,924.678 352.137,923.234C351.117,921.756 350.608,920.009 350.608,917.994C350.608,916.046 351.117,914.35 352.137,912.906C353.196,911.462 354.588,910.353 356.313,909.581C358.038,908.808 359.94,908.422 362.019,908.422C364.058,908.422 365.94,908.808 367.665,909.581C369.39,910.32 370.763,911.411 371.782,912.855C372.841,914.3 373.37,915.996 373.37,917.944C373.37,919.992 372.861,921.756 371.841,923.234C370.822,924.678 369.449,925.786 367.724,926.559C365.999,927.297 364.097,927.667 362.019,927.667ZM362.019,923.435C363.116,923.435 364.058,923.2 364.842,922.73C365.626,922.226 366.214,921.571 366.606,920.765C366.998,919.959 367.195,919.052 367.195,918.044C367.195,916.432 366.744,915.139 365.842,914.165C364.94,913.158 363.665,912.654 362.019,912.654C360.332,912.654 359.038,913.141 358.136,914.115C357.235,915.089 356.784,916.348 356.784,917.893C356.784,919.505 357.235,920.832 358.136,921.873C359.038,922.914 360.332,923.435 362.019,923.435Z" style="fill:rgb(52,52,52);fill-rule:nonzero;"/>
        </g>
        <g transform="matrix(0.991753,0,0,1.15789,113.259,111.398)">
            <path d="M410.25,926.155C407.975,927.163 405.623,927.667 403.191,927.667C401.662,927.667 400.29,927.415 399.074,926.911C397.859,926.407 396.898,925.618 396.192,924.543C395.486,923.469 395.133,922.125 395.133,920.513L395.133,908.976L390.134,908.976L390.134,904.694L395.133,904.694L395.133,899.656L401.486,898.85L401.486,904.694L409.603,904.694L408.956,908.976L401.486,908.976L401.486,919.657C401.486,920.899 401.741,921.806 402.25,922.377C402.799,922.948 403.584,923.234 404.603,923.234C405.191,923.234 405.779,923.166 406.368,923.032C406.956,922.898 407.662,922.696 408.485,922.427L410.25,926.155Z" style="fill:rgb(52,52,52);fill-rule:nonzero;"/>
        </g>
        <g transform="matrix(0.991753,0,0,1.15789,113.259,111.398)">
            <path d="M425.248,927.667C422.425,927.667 420.053,927.146 418.131,926.105C416.21,925.03 414.759,923.603 413.779,921.823C412.838,920.009 412.367,917.994 412.367,915.777C412.367,912.99 412.975,910.723 414.19,908.976C415.445,907.23 417.112,905.97 419.19,905.198C421.268,904.392 423.601,903.989 426.189,903.989C429.052,903.989 431.444,904.509 433.365,905.551C435.287,906.558 436.718,907.952 437.659,909.732C438.639,911.512 439.129,913.544 439.129,915.828C439.129,918.582 438.502,920.849 437.247,922.629C436.032,924.375 434.385,925.652 432.307,926.458C430.228,927.264 427.876,927.667 425.248,927.667ZM425.719,923.435C428.15,923.435 429.875,922.763 430.895,921.42C431.954,920.043 432.483,918.162 432.483,915.777C432.483,913.393 431.934,911.546 430.836,910.236C429.777,908.892 428.13,908.221 425.895,908.221C423.425,908.221 421.641,908.876 420.543,910.185C419.484,911.495 418.955,913.359 418.955,915.777C418.955,918.128 419.504,919.992 420.602,921.369C421.739,922.747 423.445,923.435 425.719,923.435Z" style="fill:rgb(52,52,52);fill-rule:nonzero;"/>
        </g>
        <g transform="matrix(0.991753,0,0,1.15789,113.259,111.398)">
            <path d="M482.714,922.276L482.714,927.012L457.363,927.012L457.363,924.342C462.382,920.009 466.108,916.701 468.539,914.417C470.97,912.133 472.754,910.169 473.891,908.523C475.068,906.844 475.656,905.282 475.656,903.838C475.656,902.192 475.146,900.932 474.126,900.059C473.107,899.186 471.656,898.749 469.774,898.749C466.833,898.749 463.853,899.841 460.833,902.024L457.363,898.447C459.167,897.003 461.206,895.861 463.48,895.021C465.755,894.182 468.127,893.762 470.597,893.762C472.872,893.762 474.911,894.115 476.714,894.82C478.557,895.525 479.989,896.583 481.008,897.994C482.067,899.371 482.596,901.016 482.596,902.931C482.596,904.778 482.106,906.592 481.126,908.372C480.185,910.152 478.655,912.117 476.538,914.266C474.421,916.416 471.46,919.086 467.656,922.276L482.714,922.276Z" style="fill:rgb(52,52,52);fill-rule:nonzero;"/>
        </g>
        <g transform="matrix(0.991753,0,0,1.15789,113.259,111.398)">
            <path d="M501.889,906.609C504.634,906.609 506.986,907.012 508.947,907.818C510.908,908.59 512.398,909.732 513.417,911.243C514.476,912.755 515.005,914.585 515.005,916.735C515.005,918.817 514.495,920.681 513.476,922.327C512.496,923.939 510.927,925.232 508.77,926.206C506.614,927.146 503.869,927.616 500.536,927.616C496.654,927.616 493.066,926.945 489.772,925.601L492.066,921.369C494.772,922.411 497.477,922.931 500.183,922.931C501.948,922.931 503.438,922.679 504.653,922.176C505.869,921.638 506.771,920.95 507.359,920.11C507.947,919.237 508.241,918.263 508.241,917.188C508.241,915.878 507.986,914.787 507.476,913.913C506.967,913.007 506.065,912.301 504.771,911.798C503.477,911.294 501.693,911.042 499.418,911.042C498.281,911.042 497.281,911.092 496.419,911.193C495.556,911.294 494.87,911.411 494.36,911.546L492.066,909.782L492.066,894.366L513.829,894.366L513.123,899.052L498.654,899.052L498.654,906.86C499.83,906.692 500.908,906.609 501.889,906.609Z" style="fill:rgb(52,52,52);fill-rule:nonzero;"/>
        </g>
        <g transform="matrix(0.991753,0,0,1.15789,113.259,111.398)">
            <path d="M532.063,912.956C529.984,912.956 528.063,912.587 526.298,911.848C524.573,911.075 523.201,909.967 522.181,908.523C521.162,907.045 520.652,905.299 520.652,903.284C520.652,901.336 521.162,899.639 522.181,898.195C523.24,896.751 524.632,895.643 526.357,894.87C528.083,894.098 529.984,893.712 532.063,893.712C534.102,893.712 535.984,894.098 537.709,894.87C539.434,895.609 540.807,896.701 541.826,898.145C542.885,899.589 543.415,901.285 543.415,903.233C543.415,905.282 542.905,907.045 541.885,908.523C540.866,909.967 539.493,911.075 537.768,911.848C536.043,912.587 534.141,912.956 532.063,912.956ZM535.062,927.667L530.827,925.249L557.531,893.712L561.766,896.079L535.062,927.667ZM532.063,908.724C533.161,908.724 534.102,908.489 534.886,908.019C535.67,907.515 536.258,906.86 536.65,906.054C537.043,905.248 537.239,904.341 537.239,903.334C537.239,901.722 536.788,900.429 535.886,899.455C534.984,898.447 533.71,897.943 532.063,897.943C530.376,897.943 529.082,898.43 528.181,899.404C527.279,900.378 526.828,901.638 526.828,903.183C526.828,904.795 527.279,906.122 528.181,907.163C529.082,908.204 530.376,908.724 532.063,908.724ZM560.472,927.667C558.394,927.667 556.472,927.297 554.708,926.559C552.982,925.786 551.61,924.678 550.59,923.234C549.571,921.756 549.061,920.009 549.061,917.994C549.061,916.046 549.571,914.35 550.59,912.906C551.649,911.462 553.041,910.353 554.766,909.581C556.492,908.808 558.394,908.422 560.472,908.422C562.511,908.422 564.393,908.808 566.118,909.581C567.844,910.32 569.216,911.411 570.236,912.855C571.294,914.3 571.824,915.996 571.824,917.944C571.824,919.992 571.314,921.756 570.295,923.234C569.275,924.678 567.903,925.786 566.177,926.559C564.452,927.297 562.55,927.667 560.472,927.667ZM560.472,923.435C561.57,923.435 562.511,923.2 563.295,922.73C564.079,922.226 564.668,921.571 565.06,920.765C565.452,919.959 565.648,919.052 565.648,918.044C565.648,916.432 565.197,915.139 564.295,914.165C563.393,913.158 562.119,912.654 560.472,912.654C558.786,912.654 557.492,913.141 556.59,914.115C555.688,915.089 555.237,916.348 555.237,917.893C555.237,919.505 555.688,920.832 556.59,921.873C557.492,922.914 558.786,923.435 560.472,923.435Z" style="fill:rgb(52,52,52);fill-rule:nonzero;"/>
        </g>
        <g transform="matrix(0.991753,0,0,1.15789,113.259,111.398)">
            <path d="M602.762,927.667C599.939,927.667 597.567,927.146 595.645,926.105C593.724,925.03 592.273,923.603 591.293,921.823C590.352,920.009 589.881,917.994 589.881,915.777C589.881,912.99 590.489,910.723 591.704,908.976C592.959,907.23 594.626,905.97 596.704,905.198C598.782,904.392 601.115,903.989 603.703,903.989C606.566,903.989 608.958,904.509 610.879,905.551C612.801,906.558 614.232,907.952 615.173,909.732C616.153,911.512 616.643,913.544 616.643,915.828C616.643,918.582 616.016,920.849 614.761,922.629C613.546,924.375 611.899,925.652 609.821,926.458C607.742,927.264 605.39,927.667 602.762,927.667ZM603.233,923.435C605.664,923.435 607.389,922.763 608.409,921.42C609.468,920.043 609.997,918.162 609.997,915.777C609.997,913.393 609.448,911.546 608.35,910.236C607.291,908.892 605.644,908.221 603.409,908.221C600.939,908.221 599.155,908.876 598.057,910.185C596.998,911.495 596.469,913.359 596.469,915.777C596.469,918.128 597.018,919.992 598.116,921.369C599.253,922.747 600.959,923.435 603.233,923.435Z" style="fill:rgb(52,52,52);fill-rule:nonzero;"/>
        </g>
        <g transform="matrix(0.991753,0,0,1.15789,113.259,111.398)">
            <path d="M634.348,896.533C633.054,896.533 632.054,896.919 631.348,897.691C630.642,898.43 630.289,899.472 630.289,900.815L630.289,904.694L637.759,904.694L637.112,908.976L630.289,908.976L630.289,927.012L623.937,927.012L623.937,908.976L619.584,908.976L619.584,904.694L623.937,904.694L623.937,900.916C623.937,899.169 624.309,897.624 625.055,896.281C625.839,894.937 626.976,893.896 628.466,893.157C629.956,892.385 631.74,891.999 633.818,891.999C636.132,891.999 638.21,892.318 640.053,892.956L638.465,897.238C637.132,896.768 635.759,896.533 634.348,896.533Z" style="fill:rgb(52,52,52);fill-rule:nonzero;"/>
        </g>
        <g transform="matrix(0.991753,0,0,1.15789,113.259,111.398)">
            <path d="M668.874,915.022L679.638,926.659L679.638,927.012L672.05,927.012L661.934,915.576L661.934,927.012L655.581,927.012L655.581,892.351L661.934,891.797L661.934,914.82L672.227,904.694L679.109,904.694L679.109,904.996L668.874,915.022Z" style="fill:rgb(52,52,52);fill-rule:nonzero;"/>
        </g>
        <g transform="matrix(0.991753,0,0,1.15789,113.259,111.398)">
            <path d="M687.167,900.664C686.422,900.664 685.716,900.513 685.049,900.21C684.422,899.875 683.912,899.438 683.52,898.901C683.128,898.33 682.932,897.725 682.932,897.087C682.932,896.449 683.128,895.861 683.52,895.324C683.912,894.753 684.422,894.299 685.049,893.963C685.716,893.628 686.422,893.46 687.167,893.46C687.951,893.46 688.676,893.628 689.343,893.963C690.01,894.299 690.539,894.753 690.931,895.324C691.323,895.861 691.519,896.449 691.519,897.087C691.519,897.725 691.323,898.33 690.931,898.901C690.539,899.438 690.01,899.875 689.343,900.21C688.676,900.513 687.951,900.664 687.167,900.664ZM684.108,927.012L684.108,904.744L690.461,904.19L690.461,927.012L684.108,927.012Z" style="fill:rgb(52,52,52);fill-rule:nonzero;"/>
        </g>
        <g transform="matrix(0.991753,0,0,1.15789,113.259,111.398)">
            <path d="M721.34,891.797L721.34,927.012L715.753,927.012L715.341,925.349C712.557,926.894 709.831,927.667 707.165,927.667C703.636,927.667 700.93,926.693 699.048,924.745C697.205,922.763 696.284,919.976 696.284,916.382C696.284,913.662 696.891,911.378 698.107,909.53C699.362,907.65 701.009,906.256 703.048,905.349C705.087,904.442 707.341,903.989 709.812,903.989C711.459,903.989 713.184,904.207 714.988,904.644L714.988,892.351L721.34,891.797ZM702.93,916.332C702.93,921 704.91,923.334 708.871,923.334C710.831,923.334 712.87,922.797 714.988,921.722L714.988,908.674C713.615,908.271 712.145,908.069 710.577,908.069C709.086,908.069 707.753,908.372 706.577,908.976C705.44,909.581 704.538,910.504 703.871,911.747C703.244,912.99 702.93,914.518 702.93,916.332Z" style="fill:rgb(52,52,52);fill-rule:nonzero;"/>
        </g>
        <g transform="matrix(0.991753,0,0,1.15789,113.259,111.398)">
            <path d="M737.868,927.667C735.476,927.667 733.32,927.415 731.398,926.911C729.516,926.407 727.751,925.652 726.105,924.644L728.81,920.966C731.594,922.679 734.555,923.536 737.692,923.536C739.221,923.536 740.378,923.317 741.162,922.881C741.986,922.444 742.397,921.823 742.397,921.017C742.397,920.547 742.24,920.144 741.927,919.808C741.652,919.438 741.123,919.086 740.339,918.75C739.554,918.414 738.437,918.078 736.986,917.742L735.221,917.339C732.437,916.701 730.418,915.861 729.163,914.82C727.908,913.779 727.281,912.402 727.281,910.689C727.281,909.379 727.712,908.221 728.575,907.213C729.438,906.205 730.634,905.416 732.163,904.845C733.731,904.274 735.496,903.989 737.457,903.989C741.182,903.989 744.652,904.795 747.867,906.407L745.397,910.034C743.75,909.295 742.358,908.792 741.221,908.523C740.084,908.254 738.868,908.12 737.574,908.12C736.359,908.12 735.417,908.321 734.751,908.724C734.084,909.127 733.751,909.665 733.751,910.337C733.751,910.74 733.869,911.092 734.104,911.394C734.339,911.663 734.751,911.915 735.339,912.15C735.927,912.352 736.77,912.57 737.868,912.805L739.75,913.208C742.927,913.947 745.221,914.904 746.632,916.08C748.083,917.222 748.808,918.699 748.808,920.513C748.808,921.89 748.397,923.116 747.573,924.191C746.75,925.265 745.515,926.122 743.868,926.76C742.221,927.365 740.221,927.667 737.868,927.667Z" style="fill:rgb(52,52,52);fill-rule:nonzero;"/>
        </g>
        <g transform="matrix(0.991753,0,0,1.15789,113.259,111.398)">
            <path d="M275.173,963.94C275.173,964.981 275.114,966.106 274.997,967.315L257.469,967.315C257.626,969.532 258.351,971.161 259.645,972.202C260.978,973.243 262.625,973.763 264.586,973.763C265.997,973.763 267.272,973.612 268.409,973.31C269.546,972.974 270.84,972.454 272.291,971.748L274.526,975.275C273.114,976.114 271.526,976.786 269.762,977.29C268.036,977.794 266.154,978.046 264.115,978.046C261.606,978.046 259.371,977.659 257.41,976.887C255.489,976.114 253.959,974.872 252.822,973.159C251.685,971.446 251.116,969.229 251.116,966.509C251.116,964.158 251.607,962.076 252.587,960.262C253.567,958.415 255.018,956.971 256.939,955.929C258.861,954.888 261.174,954.368 263.88,954.368C266.311,954.368 268.37,954.787 270.056,955.627C271.742,956.433 273.016,957.575 273.879,959.053C274.742,960.497 275.173,962.126 275.173,963.94ZM263.939,958.297C262.213,958.297 260.841,958.751 259.821,959.657C258.802,960.564 258.116,961.857 257.763,963.537L269.056,963.537L269.056,963.385C269.056,961.639 268.585,960.363 267.644,959.557C266.742,958.717 265.507,958.297 263.939,958.297Z" style="fill:rgb(52,52,52);fill-rule:nonzero;"/>
        </g>
        <g transform="matrix(0.991753,0,0,1.15789,113.259,111.398)">
            <path d="M294.054,965.804L303.112,977.038L303.112,977.391L295.701,977.391L289.937,969.38L283.643,977.391L276.879,977.391L276.879,977.038L286.113,965.904L277.408,955.375L277.408,955.073L284.702,955.073L290.231,962.378L295.818,955.073L302.406,955.073L302.406,955.375L294.054,965.804Z" style="fill:rgb(52,52,52);fill-rule:nonzero;"/>
        </g>
        <g transform="matrix(0.991753,0,0,1.15789,113.259,111.398)">
            <path d="M322.11,954.368C324.502,954.368 326.502,954.855 328.11,955.829C329.717,956.769 330.894,958.096 331.639,959.809C332.423,961.488 332.815,963.436 332.815,965.652C332.815,968.373 332.188,970.674 330.933,972.554C329.678,974.402 328.012,975.779 325.933,976.685C323.894,977.592 321.62,978.046 319.11,978.046C317.542,978.046 315.856,977.844 314.052,977.441L314.052,986.761L307.7,986.761L307.7,955.123L314.052,954.569L314.052,956.534C315.385,955.829 316.738,955.291 318.111,954.922C319.483,954.552 320.816,954.368 322.11,954.368ZM318.287,973.915C320.679,973.915 322.581,973.226 323.992,971.849C325.443,970.472 326.169,968.423 326.169,965.703C326.169,963.251 325.659,961.488 324.639,960.413C323.659,959.305 322.149,958.751 320.11,958.751C318.189,958.751 316.17,959.271 314.052,960.312L314.052,973.411C315.542,973.747 316.954,973.915 318.287,973.915Z" style="fill:rgb(52,52,52);fill-rule:nonzero;"/>
        </g>
        <g transform="matrix(0.991753,0,0,1.15789,113.259,111.398)">
            <path d="M360.872,963.94C360.872,964.981 360.813,966.106 360.695,967.315L343.167,967.315C343.324,969.532 344.049,971.161 345.343,972.202C346.677,973.243 348.324,973.763 350.284,973.763C351.696,973.763 352.97,973.612 354.107,973.31C355.245,972.974 356.539,972.454 357.989,971.748L360.225,975.275C358.813,976.114 357.225,976.786 355.46,977.29C353.735,977.794 351.853,978.046 349.814,978.046C347.304,978.046 345.069,977.659 343.108,976.887C341.187,976.114 339.658,974.872 338.521,973.159C337.383,971.446 336.815,969.229 336.815,966.509C336.815,964.158 337.305,962.076 338.285,960.262C339.266,958.415 340.716,956.971 342.638,955.929C344.559,954.888 346.873,954.368 349.578,954.368C352.01,954.368 354.068,954.787 355.754,955.627C357.44,956.433 358.715,957.575 359.578,959.053C360.44,960.497 360.872,962.126 360.872,963.94ZM349.637,958.297C347.912,958.297 346.539,958.751 345.52,959.657C344.5,960.564 343.814,961.857 343.461,963.537L354.754,963.537L354.754,963.385C354.754,961.639 354.284,960.363 353.343,959.557C352.441,958.717 351.206,958.297 349.637,958.297Z" style="fill:rgb(52,52,52);fill-rule:nonzero;"/>
        </g>
        <g transform="matrix(0.991753,0,0,1.15789,113.259,111.398)">
            <path d="M380.458,954.368C381.556,954.368 382.693,954.519 383.87,954.821L382.811,960.363C382.183,960.161 381.595,960.01 381.046,959.909C380.497,959.809 379.89,959.758 379.223,959.758C378.086,959.758 377.007,959.976 375.988,960.413C375.008,960.85 374.027,961.673 373.047,962.882L373.047,977.391L366.695,977.391L366.695,955.073L373.047,954.569L373.047,957.743C373.988,956.635 375.086,955.795 376.341,955.224C377.635,954.653 379.007,954.368 380.458,954.368Z" style="fill:rgb(52,52,52);fill-rule:nonzero;"/>
        </g>
        <g transform="matrix(0.991753,0,0,1.15789,113.259,111.398)">
            <path d="M391.575,951.043C390.83,951.043 390.124,950.891 389.457,950.589C388.83,950.253 388.32,949.817 387.928,949.279C387.536,948.708 387.34,948.104 387.34,947.466C387.34,946.828 387.536,946.24 387.928,945.702C388.32,945.131 388.83,944.678 389.457,944.342C390.124,944.006 390.83,943.838 391.575,943.838C392.359,943.838 393.084,944.006 393.751,944.342C394.418,944.678 394.947,945.131 395.339,945.702C395.731,946.24 395.927,946.828 395.927,947.466C395.927,948.104 395.731,948.708 395.339,949.279C394.947,949.817 394.418,950.253 393.751,950.589C393.084,950.891 392.359,951.043 391.575,951.043ZM388.516,977.391L388.516,955.123L394.869,954.569L394.869,977.391L388.516,977.391Z" style="fill:rgb(52,52,52);fill-rule:nonzero;"/>
        </g>
        <g transform="matrix(0.991753,0,0,1.15789,113.259,111.398)">
            <path d="M424.748,963.94C424.748,964.981 424.69,966.106 424.572,967.315L407.044,967.315C407.201,969.532 407.926,971.161 409.22,972.202C410.554,973.243 412.2,973.763 414.161,973.763C415.573,973.763 416.847,973.612 417.984,973.31C419.121,972.974 420.415,972.454 421.866,971.748L424.101,975.275C422.69,976.114 421.102,976.786 419.337,977.29C417.612,977.794 415.73,978.046 413.691,978.046C411.181,978.046 408.946,977.659 406.985,976.887C405.064,976.114 403.535,974.872 402.397,973.159C401.26,971.446 400.692,969.229 400.692,966.509C400.692,964.158 401.182,962.076 402.162,960.262C403.142,958.415 404.593,956.971 406.515,955.929C408.436,954.888 410.75,954.368 413.455,954.368C415.886,954.368 417.945,954.787 419.631,955.627C421.317,956.433 422.592,957.575 423.454,959.053C424.317,960.497 424.748,962.126 424.748,963.94ZM413.514,958.297C411.789,958.297 410.416,958.751 409.397,959.657C408.377,960.564 407.691,961.857 407.338,963.537L418.631,963.537L418.631,963.385C418.631,961.639 418.161,960.363 417.22,959.557C416.318,958.717 415.083,958.297 413.514,958.297Z" style="fill:rgb(52,52,52);fill-rule:nonzero;"/>
        </g>
        <g transform="matrix(0.991753,0,0,1.15789,113.259,111.398)">
            <path d="M446.099,954.368C448.648,954.368 450.609,954.939 451.981,956.08C453.393,957.189 454.099,958.935 454.099,961.32L454.099,977.391L447.746,977.391L447.746,963.083C447.746,961.975 447.609,961.118 447.335,960.514C447.099,959.876 446.668,959.422 446.041,959.154C445.452,958.885 444.629,958.751 443.57,958.751C441.57,958.751 439.355,959.271 436.924,960.312L436.924,977.391L430.571,977.391L430.571,955.123L436.924,954.569L436.924,956.735C440.1,955.157 443.159,954.368 446.099,954.368Z" style="fill:rgb(52,52,52);fill-rule:nonzero;"/>
        </g>
        <g transform="matrix(0.991753,0,0,1.15789,113.259,111.398)">
            <path d="M472.274,978.046C468.548,978.046 465.51,977.172 463.157,975.426C460.843,973.646 459.687,970.757 459.687,966.761C459.687,963.94 460.334,961.605 461.628,959.758C462.922,957.877 464.588,956.517 466.627,955.677C468.666,954.804 470.823,954.368 473.097,954.368C474.548,954.368 475.94,954.536 477.273,954.871C478.606,955.174 480.057,955.677 481.626,956.383L479.332,960.212C478.038,959.674 476.92,959.305 475.979,959.103C475.038,958.868 474.077,958.751 473.097,958.751C470.98,958.751 469.313,959.439 468.098,960.816C466.882,962.193 466.274,964.158 466.274,966.71C466.274,971.278 468.529,973.562 473.038,973.562C474.254,973.562 475.371,973.394 476.391,973.058C477.45,972.722 478.587,972.252 479.802,971.648L482.155,975.325C480.665,976.131 479.116,976.786 477.508,977.29C475.901,977.794 474.156,978.046 472.274,978.046Z" style="fill:rgb(52,52,52);fill-rule:nonzero;"/>
        </g>
        <g transform="matrix(0.991753,0,0,1.15789,113.259,111.398)">
            <path d="M509.035,963.94C509.035,964.981 508.976,966.106 508.859,967.315L491.331,967.315C491.488,969.532 492.213,971.161 493.507,972.202C494.84,973.243 496.487,973.763 498.448,973.763C499.859,973.763 501.134,973.612 502.271,973.31C503.408,972.974 504.702,972.454 506.153,971.748L508.388,975.275C506.977,976.114 505.388,976.786 503.624,977.29C501.899,977.794 500.016,978.046 497.977,978.046C495.468,978.046 493.233,977.659 491.272,976.887C489.351,976.114 487.821,974.872 486.684,973.159C485.547,971.446 484.978,969.229 484.978,966.509C484.978,964.158 485.469,962.076 486.449,960.262C487.429,958.415 488.88,956.971 490.801,955.929C492.723,954.888 495.036,954.368 497.742,954.368C500.173,954.368 502.232,954.787 503.918,955.627C505.604,956.433 506.878,957.575 507.741,959.053C508.604,960.497 509.035,962.126 509.035,963.94ZM497.801,958.297C496.076,958.297 494.703,958.751 493.684,959.657C492.664,960.564 491.978,961.857 491.625,963.537L502.918,963.537L502.918,963.385C502.918,961.639 502.448,960.363 501.506,959.557C500.605,958.717 499.369,958.297 497.801,958.297Z" style="fill:rgb(52,52,52);fill-rule:nonzero;"/>
        </g>
        <g transform="matrix(0.991753,0,0,1.15789,113.259,111.398)">
            <path d="M559.619,954.368C561.972,954.368 563.795,954.939 565.089,956.08C566.422,957.189 567.089,958.902 567.089,961.219L567.089,977.391L560.737,977.391L560.737,963.083C560.737,961.975 560.619,961.118 560.384,960.514C560.148,959.876 559.776,959.422 559.266,959.154C558.756,958.885 558.051,958.751 557.149,958.751C555.227,958.751 553.149,959.254 550.914,960.262C550.953,960.463 550.973,960.782 550.973,961.219L550.973,977.391L544.62,977.391L544.62,963.083C544.62,961.975 544.503,961.118 544.267,960.514C544.032,959.876 543.66,959.422 543.15,959.154C542.64,958.885 541.934,958.751 541.032,958.751C540.091,958.751 539.091,958.885 538.033,959.154C536.974,959.422 535.935,959.792 534.915,960.262L534.915,977.391L528.563,977.391L528.563,955.123L534.915,954.569L534.915,956.534C537.856,955.09 540.719,954.368 543.503,954.368C546.483,954.368 548.561,955.207 549.738,956.887C551.228,956.148 552.816,955.543 554.502,955.073C556.188,954.603 557.894,954.368 559.619,954.368Z" style="fill:rgb(52,52,52);fill-rule:nonzero;"/>
        </g>
        <g transform="matrix(0.991753,0,0,1.15789,113.259,111.398)">
            <path d="M585.558,978.046C582.735,978.046 580.362,977.525 578.441,976.484C576.52,975.409 575.069,973.982 574.088,972.202C573.147,970.388 572.677,968.373 572.677,966.156C572.677,963.369 573.285,961.102 574.5,959.355C575.755,957.609 577.421,956.349 579.5,955.577C581.578,954.771 583.911,954.368 586.499,954.368C589.362,954.368 591.753,954.888 593.675,955.929C595.596,956.937 597.028,958.331 597.969,960.111C598.949,961.891 599.439,963.923 599.439,966.207C599.439,968.961 598.812,971.228 597.557,973.008C596.341,974.754 594.694,976.03 592.616,976.837C590.538,977.643 588.185,978.046 585.558,978.046ZM586.028,973.814C588.46,973.814 590.185,973.142 591.205,971.799C592.263,970.422 592.793,968.541 592.793,966.156C592.793,963.772 592.244,961.924 591.146,960.615C590.087,959.271 588.44,958.599 586.205,958.599C583.735,958.599 581.95,959.254 580.852,960.564C579.794,961.874 579.264,963.738 579.264,966.156C579.264,968.507 579.813,970.371 580.911,971.748C582.048,973.125 583.754,973.814 586.028,973.814Z" style="fill:rgb(52,52,52);fill-rule:nonzero;"/>
        </g>
        <g transform="matrix(0.991753,0,0,1.15789,113.259,111.398)">
            <path d="M628.437,942.176L628.437,977.391L622.849,977.391L622.437,975.728C619.653,977.273 616.928,978.046 614.261,978.046C610.732,978.046 608.027,977.072 606.144,975.124C604.301,973.142 603.38,970.354 603.38,966.761C603.38,964.04 603.988,961.756 605.203,959.909C606.458,958.028 608.105,956.635 610.144,955.728C612.183,954.821 614.438,954.368 616.908,954.368C618.555,954.368 620.28,954.586 622.084,955.023L622.084,942.73L628.437,942.176ZM610.026,966.71C610.026,971.379 612.007,973.713 615.967,973.713C617.928,973.713 619.967,973.176 622.084,972.101L622.084,959.053C620.712,958.65 619.241,958.448 617.673,958.448C616.183,958.448 614.85,958.751 613.673,959.355C612.536,959.96 611.634,960.883 610.968,962.126C610.34,963.369 610.026,964.897 610.026,966.71Z" style="fill:rgb(52,52,52);fill-rule:nonzero;"/>
        </g>
        <g transform="matrix(0.991753,0,0,1.15789,113.259,111.398)">
            <path d="M658.316,963.94C658.316,964.981 658.258,966.106 658.14,967.315L640.612,967.315C640.769,969.532 641.494,971.161 642.788,972.202C644.121,973.243 645.768,973.763 647.729,973.763C649.141,973.763 650.415,973.612 651.552,973.31C652.689,972.974 653.983,972.454 655.434,971.748L657.669,975.275C656.258,976.114 654.67,976.786 652.905,977.29C651.18,977.794 649.298,978.046 647.258,978.046C644.749,978.046 642.514,977.659 640.553,976.887C638.632,976.114 637.102,974.872 635.965,973.159C634.828,971.446 634.26,969.229 634.26,966.509C634.26,964.158 634.75,962.076 635.73,960.262C636.71,958.415 638.161,956.971 640.083,955.929C642.004,954.888 644.318,954.368 647.023,954.368C649.454,954.368 651.513,954.787 653.199,955.627C654.885,956.433 656.16,957.575 657.022,959.053C657.885,960.497 658.316,962.126 658.316,963.94ZM647.082,958.297C645.357,958.297 643.984,958.751 642.965,959.657C641.945,960.564 641.259,961.857 640.906,963.537L652.199,963.537L652.199,963.385C652.199,961.639 651.729,960.363 650.788,959.557C649.886,958.717 648.651,958.297 647.082,958.297Z" style="fill:rgb(52,52,52);fill-rule:nonzero;"/>
        </g>
        <g transform="matrix(0.991753,0,0,1.15789,113.259,111.398)">
            <path d="M677.903,954.368C679.001,954.368 680.138,954.519 681.314,954.821L680.256,960.363C679.628,960.161 679.04,960.01 678.491,959.909C677.942,959.809 677.334,959.758 676.668,959.758C675.531,959.758 674.452,959.976 673.433,960.413C672.452,960.85 671.472,961.673 670.492,962.882L670.492,977.391L664.139,977.391L664.139,955.073L670.492,954.569L670.492,957.743C671.433,956.635 672.531,955.795 673.786,955.224C675.08,954.653 676.452,954.368 677.903,954.368Z" style="fill:rgb(52,52,52);fill-rule:nonzero;"/>
        </g>
        <g transform="matrix(0.991753,0,0,1.15789,113.259,111.398)">
            <path d="M696.195,954.368C699.411,954.368 701.822,954.955 703.43,956.131C705.038,957.306 705.842,959.187 705.842,961.773L705.842,977.391L700.313,977.391L699.842,975.527C698.391,976.434 696.901,977.072 695.372,977.441C693.882,977.844 692.333,978.046 690.725,978.046C689.157,978.046 687.765,977.794 686.549,977.29C685.373,976.786 684.451,976.081 683.785,975.174C683.118,974.234 682.785,973.159 682.785,971.95C682.785,970.136 683.53,968.625 685.02,967.416C686.51,966.173 688.51,965.249 691.019,964.645C693.529,964.04 696.352,963.704 699.489,963.637L699.489,962.781C699.489,961.337 699.176,960.296 698.548,959.657C697.921,959.019 696.823,958.7 695.254,958.7C692.549,958.7 689.647,959.557 686.549,961.269L683.961,957.793C685.843,956.651 687.784,955.795 689.784,955.224C691.784,954.653 693.921,954.368 696.195,954.368ZM689.431,971.345C689.431,972.151 689.706,972.773 690.255,973.209C690.843,973.612 691.686,973.814 692.784,973.814C694.98,973.814 697.215,973.243 699.489,972.101L699.489,967.265C696.352,967.399 693.882,967.819 692.078,968.524C690.314,969.196 689.431,970.136 689.431,971.345Z" style="fill:rgb(52,52,52);fill-rule:nonzero;"/>
        </g>
        <g transform="matrix(0.991753,0,0,1.15789,113.259,111.398)">
            <path d="M729.428,976.534C727.154,977.542 724.801,978.046 722.37,978.046C720.84,978.046 719.468,977.794 718.252,977.29C717.037,976.786 716.076,975.997 715.37,974.922C714.664,973.847 714.311,972.504 714.311,970.892L714.311,959.355L709.312,959.355L709.312,955.073L714.311,955.073L714.311,950.035L720.664,949.229L720.664,955.073L728.781,955.073L728.134,959.355L720.664,959.355L720.664,970.035C720.664,971.278 720.919,972.185 721.429,972.756C721.977,973.327 722.762,973.612 723.781,973.612C724.369,973.612 724.958,973.545 725.546,973.411C726.134,973.276 726.84,973.075 727.663,972.806L729.428,976.534Z" style="fill:rgb(52,52,52);fill-rule:nonzero;"/>
        </g>
        <g transform="matrix(0.991753,0,0,1.15789,113.259,111.398)">
            <path d="M755.602,963.94C755.602,964.981 755.543,966.106 755.426,967.315L737.898,967.315C738.055,969.532 738.78,971.161 740.074,972.202C741.407,973.243 743.054,973.763 745.015,973.763C746.426,973.763 747.701,973.612 748.838,973.31C749.975,972.974 751.269,972.454 752.72,971.748L754.955,975.275C753.543,976.114 751.955,976.786 750.191,977.29C748.465,977.794 746.583,978.046 744.544,978.046C742.035,978.046 739.799,977.659 737.839,976.887C735.917,976.114 734.388,974.872 733.251,973.159C732.114,971.446 731.545,969.229 731.545,966.509C731.545,964.158 732.035,962.076 733.016,960.262C733.996,958.415 735.447,956.971 737.368,955.929C739.29,954.888 741.603,954.368 744.309,954.368C746.74,954.368 748.799,954.787 750.485,955.627C752.171,956.433 753.445,957.575 754.308,959.053C755.171,960.497 755.602,962.126 755.602,963.94ZM744.368,958.297C742.642,958.297 741.27,958.751 740.25,959.657C739.231,960.564 738.545,961.857 738.192,963.537L749.485,963.537L749.485,963.385C749.485,961.639 749.014,960.363 748.073,959.557C747.171,958.717 745.936,958.297 744.368,958.297Z" style="fill:rgb(52,52,52);fill-rule:nonzero;"/>
        </g>
        <g transform="matrix(0.991753,0,0,1.15789,113.259,111.398)">
            <path d="M326.051,1028.42C323.228,1028.42 320.855,1027.9 318.934,1026.86C317.013,1025.79 315.562,1024.36 314.581,1022.58C313.64,1020.77 313.17,1018.75 313.17,1016.53C313.17,1013.75 313.778,1011.48 314.993,1009.73C316.248,1007.99 317.914,1006.73 319.993,1005.96C322.071,1005.15 324.404,1004.75 326.992,1004.75C329.855,1004.75 332.247,1005.27 334.168,1006.31C336.089,1007.32 337.521,1008.71 338.462,1010.49C339.442,1012.27 339.932,1014.3 339.932,1016.59C339.932,1019.34 339.305,1021.61 338.05,1023.39C336.834,1025.13 335.188,1026.41 333.109,1027.21C331.031,1028.02 328.678,1028.42 326.051,1028.42ZM326.522,1024.19C328.953,1024.19 330.678,1023.52 331.698,1022.18C332.756,1020.8 333.286,1018.92 333.286,1016.53C333.286,1014.15 332.737,1012.3 331.639,1010.99C330.58,1009.65 328.933,1008.98 326.698,1008.98C324.228,1008.98 322.444,1009.63 321.346,1010.94C320.287,1012.25 319.757,1014.12 319.757,1016.53C319.757,1018.89 320.306,1020.75 321.404,1022.13C322.542,1023.5 324.247,1024.19 326.522,1024.19Z" style="fill:rgb(52,52,52);fill-rule:nonzero;"/>
        </g>
        <g transform="matrix(0.991753,0,0,1.15789,113.259,111.398)">
            <path d="M359.519,1004.75C360.617,1004.75 361.754,1004.9 362.93,1005.2L361.871,1010.74C361.244,1010.54 360.656,1010.39 360.107,1010.29C359.558,1010.19 358.95,1010.14 358.284,1010.14C357.146,1010.14 356.068,1010.36 355.049,1010.79C354.068,1011.23 353.088,1012.05 352.108,1013.26L352.108,1027.77L345.755,1027.77L345.755,1005.45L352.108,1004.95L352.108,1008.12C353.049,1007.01 354.147,1006.17 355.401,1005.6C356.695,1005.03 358.068,1004.75 359.519,1004.75Z" style="fill:rgb(52,52,52);fill-rule:nonzero;"/>
        </g>
        <g transform="matrix(0.991753,0,0,1.15789,113.259,111.398)">
            <path d="M396.692,1004.75C399.241,1004.75 401.221,1005.3 402.633,1006.41C404.044,1007.52 404.75,1009.25 404.75,1011.6L404.75,1027.77L398.398,1027.77L398.398,1013.46C398.398,1012.35 398.26,1011.5 397.986,1010.89C397.711,1010.25 397.261,1009.8 396.633,1009.53C396.045,1009.26 395.222,1009.13 394.163,1009.13C392.085,1009.13 389.908,1009.63 387.634,1010.64L387.634,1027.77L381.282,1027.77L381.282,993.109L387.634,992.555L387.634,1006.91C390.653,1005.47 393.673,1004.75 396.692,1004.75Z" style="fill:rgb(52,52,52);fill-rule:nonzero;"/>
        </g>
        <g transform="matrix(0.991753,0,0,1.15789,113.259,111.398)">
            <path d="M415.22,1001.42C414.475,1001.42 413.769,1001.27 413.102,1000.97C412.475,1000.63 411.965,1000.2 411.573,999.658C411.181,999.087 410.985,998.483 410.985,997.844C410.985,997.206 411.181,996.619 411.573,996.081C411.965,995.51 412.475,995.057 413.102,994.721C413.769,994.385 414.475,994.217 415.22,994.217C416.004,994.217 416.729,994.385 417.396,994.721C418.063,995.057 418.592,995.51 418.984,996.081C419.376,996.619 419.572,997.206 419.572,997.844C419.572,998.483 419.376,999.087 418.984,999.658C418.592,1000.2 418.063,1000.63 417.396,1000.97C416.729,1001.27 416.004,1001.42 415.22,1001.42ZM412.161,1027.77L412.161,1005.5L418.514,1004.95L418.514,1027.77L412.161,1027.77Z" style="fill:rgb(52,52,52);fill-rule:nonzero;"/>
        </g>
        <g transform="matrix(0.991753,0,0,1.15789,113.259,111.398)">
            <path d="M441.276,1023.74C443.59,1023.91 445.511,1024.21 447.041,1024.65C448.57,1025.08 449.727,1025.72 450.511,1026.56C451.334,1027.4 451.746,1028.51 451.746,1029.88C451.746,1031.46 451.138,1032.84 449.923,1034.02C448.746,1035.23 447.041,1036.15 444.805,1036.79C442.61,1037.46 440.002,1037.8 436.983,1037.8C433.101,1037.8 429.944,1037.27 427.513,1036.23C425.121,1035.19 423.925,1033.6 423.925,1031.45C423.925,1030.2 424.297,1029.15 425.042,1028.27C425.787,1027.43 426.807,1026.68 428.101,1026.01C426.964,1025.23 426.395,1024.33 426.395,1023.29C426.395,1022.61 426.611,1021.98 427.042,1021.37C427.513,1020.77 428.277,1020.15 429.336,1019.51C427.846,1018.84 426.729,1017.93 425.984,1016.79C425.239,1015.64 424.866,1014.35 424.866,1012.91C424.866,1011.03 425.435,1009.48 426.572,1008.27C427.709,1007.06 429.199,1006.17 431.042,1005.6C432.924,1005.03 435.002,1004.75 437.277,1004.75C438.453,1004.75 439.59,1004.83 440.688,1005L449.687,1001.77L451.687,1006.11L445.923,1007.37C446.982,1008.07 447.766,1008.91 448.276,1009.88C448.825,1010.83 449.099,1011.88 449.099,1013.06C449.099,1014.91 448.531,1016.42 447.393,1017.59C446.256,1018.74 444.766,1019.58 442.923,1020.11C441.08,1020.62 439.041,1020.87 436.806,1020.87C435.669,1020.87 434.473,1020.78 433.218,1020.62C432.865,1021.02 432.689,1021.44 432.689,1021.88C432.689,1022.18 432.806,1022.43 433.042,1022.63C433.316,1022.83 433.767,1023 434.395,1023.13C435.061,1023.24 436.002,1023.34 437.218,1023.44L441.276,1023.74ZM436.983,1008.73C435.061,1008.73 433.63,1009.1 432.689,1009.84C431.748,1010.57 431.277,1011.58 431.277,1012.86C431.277,1014.17 431.748,1015.18 432.689,1015.88C433.669,1016.59 435.159,1016.94 437.159,1016.94C439.159,1016.94 440.59,1016.59 441.453,1015.88C442.315,1015.18 442.747,1014.2 442.747,1012.96C442.747,1011.62 442.257,1010.57 441.276,1009.84C440.296,1009.1 438.865,1008.73 436.983,1008.73ZM437.1,1033.82C439.414,1033.82 441.296,1033.55 442.747,1033.01C444.198,1032.51 444.923,1031.72 444.923,1030.64C444.923,1030.1 444.707,1029.67 444.276,1029.33C443.884,1029 443.237,1028.73 442.335,1028.53C441.433,1028.32 440.198,1028.16 438.63,1028.02L434.806,1027.77C433.669,1027.67 432.63,1027.52 431.689,1027.32C431.14,1027.82 430.709,1028.36 430.395,1028.93C430.081,1029.53 429.924,1030.1 429.924,1030.64C429.924,1031.68 430.473,1032.47 431.571,1033.01C432.669,1033.55 434.512,1033.82 437.1,1033.82Z" style="fill:rgb(52,52,52);fill-rule:nonzero;"/>
        </g>
        <g transform="matrix(0.991753,0,0,1.15789,113.259,111.398)">
            <path d="M471.685,1004.75C474.234,1004.75 476.214,1005.3 477.626,1006.41C479.038,1007.52 479.744,1009.25 479.744,1011.6L479.744,1027.77L473.391,1027.77L473.391,1013.46C473.391,1012.35 473.254,1011.5 472.979,1010.89C472.705,1010.25 472.254,1009.8 471.627,1009.53C471.038,1009.26 470.215,1009.13 469.156,1009.13C467.078,1009.13 464.902,1009.63 462.627,1010.64L462.627,1027.77L456.275,1027.77L456.275,993.109L462.627,992.555L462.627,1006.91C465.647,1005.47 468.666,1004.75 471.685,1004.75Z" style="fill:rgb(52,52,52);fill-rule:nonzero;"/>
        </g>
        <g transform="matrix(0.991753,0,0,1.15789,113.259,111.398)">
            <path d="M500.859,1027.77L500.859,993.109L507.212,992.555L507.212,1027.77L500.859,1027.77Z" style="fill:rgb(52,52,52);fill-rule:nonzero;"/>
        </g>
        <g transform="matrix(0.991753,0,0,1.15789,113.259,111.398)">
            <path d="M537.092,1014.32C537.092,1015.36 537.033,1016.49 536.915,1017.69L519.387,1017.69C519.544,1019.91 520.269,1021.54 521.563,1022.58C522.897,1023.62 524.544,1024.14 526.504,1024.14C527.916,1024.14 529.19,1023.99 530.327,1023.69C531.465,1023.35 532.759,1022.83 534.209,1022.13L536.445,1025.65C535.033,1026.49 533.445,1027.16 531.68,1027.67C529.955,1028.17 528.073,1028.42 526.034,1028.42C523.524,1028.42 521.289,1028.04 519.328,1027.27C517.407,1026.49 515.878,1025.25 514.741,1023.54C513.603,1021.83 513.035,1019.61 513.035,1016.89C513.035,1014.54 513.525,1012.45 514.505,1010.64C515.486,1008.79 516.936,1007.35 518.858,1006.31C520.779,1005.27 523.093,1004.75 525.798,1004.75C528.23,1004.75 530.288,1005.17 531.974,1006.01C533.66,1006.81 534.935,1007.95 535.798,1009.43C536.66,1010.88 537.092,1012.5 537.092,1014.32ZM525.857,1008.68C524.132,1008.68 522.759,1009.13 521.74,1010.04C520.72,1010.94 520.034,1012.24 519.681,1013.92L530.974,1013.92L530.974,1013.76C530.974,1012.02 530.504,1010.74 529.563,1009.94C528.661,1009.1 527.426,1008.68 525.857,1008.68Z" style="fill:rgb(52,52,52);fill-rule:nonzero;"/>
        </g>
        <g transform="matrix(0.991753,0,0,1.15789,113.259,111.398)">
            <path d="M565.03,1005.45L565.03,1005.75L554.914,1027.77L548.796,1027.77L538.444,1005.75L538.444,1005.45L545.326,1005.45L550.796,1018.7C551.345,1020.01 551.757,1021.22 552.031,1022.33C552.11,1022.03 552.247,1021.59 552.443,1021.02C552.639,1020.41 552.894,1019.64 553.208,1018.7L558.149,1005.45L565.03,1005.45Z" style="fill:rgb(52,52,52);fill-rule:nonzero;"/>
        </g>
        <g transform="matrix(0.991753,0,0,1.15789,113.259,111.398)">
            <path d="M590.499,1014.32C590.499,1015.36 590.44,1016.49 590.322,1017.69L572.794,1017.69C572.951,1019.91 573.677,1021.54 574.971,1022.58C576.304,1023.62 577.951,1024.14 579.911,1024.14C581.323,1024.14 582.597,1023.99 583.735,1023.69C584.872,1023.35 586.166,1022.83 587.617,1022.13L589.852,1025.65C588.44,1026.49 586.852,1027.16 585.087,1027.67C583.362,1028.17 581.48,1028.42 579.441,1028.42C576.931,1028.42 574.696,1028.04 572.736,1027.27C570.814,1026.49 569.285,1025.25 568.148,1023.54C567.011,1021.83 566.442,1019.61 566.442,1016.89C566.442,1014.54 566.932,1012.45 567.912,1010.64C568.893,1008.79 570.344,1007.35 572.265,1006.31C574.186,1005.27 576.5,1004.75 579.206,1004.75C581.637,1004.75 583.695,1005.17 585.381,1006.01C587.068,1006.81 588.342,1007.95 589.205,1009.43C590.067,1010.88 590.499,1012.5 590.499,1014.32ZM579.264,1008.68C577.539,1008.68 576.167,1009.13 575.147,1010.04C574.128,1010.94 573.441,1012.24 573.088,1013.92L584.382,1013.92L584.382,1013.76C584.382,1012.02 583.911,1010.74 582.97,1009.94C582.068,1009.1 580.833,1008.68 579.264,1008.68Z" style="fill:rgb(52,52,52);fill-rule:nonzero;"/>
        </g>
        <g transform="matrix(0.991753,0,0,1.15789,113.259,111.398)">
            <path d="M596.322,1027.77L596.322,993.109L602.674,992.555L602.674,1027.77L596.322,1027.77Z" style="fill:rgb(52,52,52);fill-rule:nonzero;"/>
        </g>
        <g transform="matrix(0.991753,0,0,1.15789,113.259,111.398)">
            <path d="M619.202,1028.42C616.81,1028.42 614.653,1028.17 612.732,1027.67C610.85,1027.16 609.085,1026.41 607.438,1025.4L610.144,1021.72C612.928,1023.44 615.889,1024.29 619.026,1024.29C620.555,1024.29 621.712,1024.08 622.496,1023.64C623.319,1023.2 623.731,1022.58 623.731,1021.77C623.731,1021.3 623.574,1020.9 623.261,1020.57C622.986,1020.2 622.457,1019.84 621.672,1019.51C620.888,1019.17 619.771,1018.84 618.32,1018.5L616.555,1018.1C613.771,1017.46 611.752,1016.62 610.497,1015.58C609.242,1014.54 608.615,1013.16 608.615,1011.45C608.615,1010.14 609.046,1008.98 609.909,1007.97C610.771,1006.96 611.967,1006.17 613.497,1005.6C615.065,1005.03 616.83,1004.75 618.79,1004.75C622.516,1004.75 625.986,1005.55 629.201,1007.17L626.731,1010.79C625.084,1010.05 623.692,1009.55 622.555,1009.28C621.418,1009.01 620.202,1008.88 618.908,1008.88C617.692,1008.88 616.751,1009.08 616.085,1009.48C615.418,1009.88 615.085,1010.42 615.085,1011.09C615.085,1011.5 615.202,1011.85 615.438,1012.15C615.673,1012.42 616.085,1012.67 616.673,1012.91C617.261,1013.11 618.104,1013.33 619.202,1013.56L621.084,1013.97C624.26,1014.71 626.554,1015.66 627.966,1016.84C629.417,1017.98 630.142,1019.46 630.142,1021.27C630.142,1022.65 629.731,1023.87 628.907,1024.95C628.084,1026.02 626.848,1026.88 625.202,1027.52C623.555,1028.12 621.555,1028.42 619.202,1028.42Z" style="fill:rgb(52,52,52);fill-rule:nonzero;"/>
        </g>
        <g transform="matrix(0.991753,0,0,1.15789,113.259,111.398)">
            <path d="M660.257,1028.42C657.434,1028.42 655.062,1027.9 653.14,1026.86C651.219,1025.79 649.768,1024.36 648.788,1022.58C647.847,1020.77 647.376,1018.75 647.376,1016.53C647.376,1013.75 647.984,1011.48 649.199,1009.73C650.454,1007.99 652.121,1006.73 654.199,1005.96C656.277,1005.15 658.61,1004.75 661.198,1004.75C664.061,1004.75 666.453,1005.27 668.374,1006.31C670.296,1007.32 671.727,1008.71 672.668,1010.49C673.648,1012.27 674.138,1014.3 674.138,1016.59C674.138,1019.34 673.511,1021.61 672.256,1023.39C671.041,1025.13 669.394,1026.41 667.316,1027.21C665.237,1028.02 662.885,1028.42 660.257,1028.42ZM660.728,1024.19C663.159,1024.19 664.884,1023.52 665.904,1022.18C666.963,1020.8 667.492,1018.92 667.492,1016.53C667.492,1014.15 666.943,1012.3 665.845,1010.99C664.786,1009.65 663.139,1008.98 660.904,1008.98C658.434,1008.98 656.65,1009.63 655.552,1010.94C654.493,1012.25 653.964,1014.12 653.964,1016.53C653.964,1018.89 654.513,1020.75 655.611,1022.13C656.748,1023.5 658.454,1024.19 660.728,1024.19Z" style="fill:rgb(52,52,52);fill-rule:nonzero;"/>
        </g>
        <g transform="matrix(0.991753,0,0,1.15789,113.259,111.398)">
            <path d="M691.843,997.29C690.549,997.29 689.549,997.677 688.843,998.449C688.137,999.188 687.784,1000.23 687.784,1001.57L687.784,1005.45L695.254,1005.45L694.607,1009.73L687.784,1009.73L687.784,1027.77L681.432,1027.77L681.432,1009.73L677.079,1009.73L677.079,1005.45L681.432,1005.45L681.432,1001.67C681.432,999.927 681.804,998.382 682.55,997.038C683.334,995.695 684.471,994.654 685.961,993.915C687.451,993.142 689.235,992.756 691.313,992.756C693.627,992.756 695.705,993.075 697.548,993.713L695.96,997.996C694.627,997.525 693.254,997.29 691.843,997.29Z" style="fill:rgb(52,52,52);fill-rule:nonzero;"/>
        </g>
        <g transform="matrix(0.991753,0,0,1.15789,113.259,111.398)">
            <path d="M366.665,1050.21C369.018,1050.21 370.841,1050.78 372.135,1051.93C373.469,1053.04 374.135,1054.75 374.135,1057.07L374.135,1073.24L367.783,1073.24L367.783,1058.93C367.783,1057.82 367.665,1056.96 367.43,1056.36C367.195,1055.72 366.822,1055.27 366.312,1055C365.802,1054.73 365.097,1054.6 364.195,1054.6C362.273,1054.6 360.195,1055.1 357.96,1056.11C357.999,1056.31 358.019,1056.63 358.019,1057.07L358.019,1073.24L351.666,1073.24L351.666,1058.93C351.666,1057.82 351.549,1056.96 351.314,1056.36C351.078,1055.72 350.706,1055.27 350.196,1055C349.686,1054.73 348.98,1054.6 348.079,1054.6C347.137,1054.6 346.138,1054.73 345.079,1055C344.02,1055.27 342.981,1055.64 341.961,1056.11L341.961,1073.24L335.609,1073.24L335.609,1050.97L341.961,1050.41L341.961,1052.38C344.902,1050.93 347.765,1050.21 350.549,1050.21C353.529,1050.21 355.607,1051.05 356.784,1052.73C358.274,1051.99 359.862,1051.39 361.548,1050.92C363.234,1050.45 364.94,1050.21 366.665,1050.21Z" style="fill:rgb(52,52,52);fill-rule:nonzero;"/>
        </g>
        <g transform="matrix(0.991753,0,0,1.15789,113.259,111.398)">
            <path d="M392.722,1050.21C395.937,1050.21 398.349,1050.8 399.956,1051.98C401.564,1053.15 402.368,1055.03 402.368,1057.62L402.368,1073.24L396.839,1073.24L396.368,1071.37C394.918,1072.28 393.428,1072.92 391.898,1073.29C390.408,1073.69 388.859,1073.89 387.252,1073.89C385.683,1073.89 384.291,1073.64 383.076,1073.14C381.899,1072.63 380.978,1071.93 380.311,1071.02C379.644,1070.08 379.311,1069.01 379.311,1067.8C379.311,1065.98 380.056,1064.47 381.546,1063.26C383.036,1062.02 385.036,1061.1 387.546,1060.49C390.055,1059.89 392.879,1059.55 396.016,1059.48L396.016,1058.63C396.016,1057.18 395.702,1056.14 395.074,1055.5C394.447,1054.87 393.349,1054.55 391.781,1054.55C389.075,1054.55 386.173,1055.4 383.076,1057.12L380.487,1053.64C382.37,1052.5 384.311,1051.64 386.311,1051.07C388.31,1050.5 390.447,1050.21 392.722,1050.21ZM385.958,1067.19C385.958,1068 386.232,1068.62 386.781,1069.06C387.369,1069.46 388.212,1069.66 389.31,1069.66C391.506,1069.66 393.741,1069.09 396.016,1067.95L396.016,1063.11C392.879,1063.25 390.408,1063.66 388.604,1064.37C386.84,1065.04 385.958,1065.98 385.958,1067.19Z" style="fill:rgb(52,52,52);fill-rule:nonzero;"/>
        </g>
        <g transform="matrix(0.991753,0,0,1.15789,113.259,111.398)">
            <path d="M425.954,1072.38C423.68,1073.39 421.327,1073.89 418.896,1073.89C417.367,1073.89 415.994,1073.64 414.779,1073.14C413.563,1072.63 412.602,1071.84 411.897,1070.77C411.191,1069.69 410.838,1068.35 410.838,1066.74L410.838,1055.2L405.838,1055.2L405.838,1050.92L410.838,1050.92L410.838,1045.88L417.19,1045.08L417.19,1050.92L425.307,1050.92L424.66,1055.2L417.19,1055.2L417.19,1065.88C417.19,1067.12 417.445,1068.03 417.955,1068.6C418.504,1069.17 419.288,1069.46 420.308,1069.46C420.896,1069.46 421.484,1069.39 422.072,1069.26C422.66,1069.12 423.366,1068.92 424.19,1068.65L425.954,1072.38Z" style="fill:rgb(52,52,52);fill-rule:nonzero;"/>
        </g>
        <g transform="matrix(0.991753,0,0,1.15789,113.259,111.398)">
            <path d="M445.952,1050.21C448.501,1050.21 450.481,1050.77 451.893,1051.88C453.305,1052.98 454.011,1054.71 454.011,1057.07L454.011,1073.24L447.658,1073.24L447.658,1058.93C447.658,1057.82 447.521,1056.96 447.246,1056.36C446.972,1055.72 446.521,1055.27 445.894,1055C445.305,1054.73 444.482,1054.6 443.423,1054.6C441.345,1054.6 439.169,1055.1 436.894,1056.11L436.894,1073.24L430.542,1073.24L430.542,1038.58L436.894,1038.02L436.894,1052.38C439.914,1050.93 442.933,1050.21 445.952,1050.21Z" style="fill:rgb(52,52,52);fill-rule:nonzero;"/>
        </g>
        <g transform="matrix(0.991753,0,0,1.15789,113.259,111.398)">
            <path d="M486.243,1050.21C489.458,1050.21 491.87,1050.8 493.478,1051.98C495.085,1053.15 495.889,1055.03 495.889,1057.62L495.889,1073.24L490.36,1073.24L489.89,1071.37C488.439,1072.28 486.949,1072.92 485.42,1073.29C483.93,1073.69 482.381,1073.89 480.773,1073.89C479.204,1073.89 477.812,1073.64 476.597,1073.14C475.42,1072.63 474.499,1071.93 473.832,1071.02C473.166,1070.08 472.832,1069.01 472.832,1067.8C472.832,1065.98 473.577,1064.47 475.068,1063.26C476.558,1062.02 478.557,1061.1 481.067,1060.49C483.577,1059.89 486.4,1059.55 489.537,1059.48L489.537,1058.63C489.537,1057.18 489.223,1056.14 488.596,1055.5C487.968,1054.87 486.87,1054.55 485.302,1054.55C482.596,1054.55 479.695,1055.4 476.597,1057.12L474.009,1053.64C475.891,1052.5 477.832,1051.64 479.832,1051.07C481.832,1050.5 483.969,1050.21 486.243,1050.21ZM479.479,1067.19C479.479,1068 479.753,1068.62 480.302,1069.06C480.891,1069.46 481.734,1069.66 482.832,1069.66C485.027,1069.66 487.263,1069.09 489.537,1067.95L489.537,1063.11C486.4,1063.25 483.93,1063.66 482.126,1064.37C480.361,1065.04 479.479,1065.98 479.479,1067.19Z" style="fill:rgb(52,52,52);fill-rule:nonzero;"/>
        </g>
        <g transform="matrix(0.991753,0,0,1.15789,113.259,111.398)">
            <path d="M518.887,1050.21C521.436,1050.21 523.397,1050.78 524.769,1051.93C526.181,1053.04 526.887,1054.78 526.887,1057.17L526.887,1073.24L520.534,1073.24L520.534,1058.93C520.534,1057.82 520.397,1056.96 520.122,1056.36C519.887,1055.72 519.456,1055.27 518.828,1055C518.24,1054.73 517.417,1054.6 516.358,1054.6C514.358,1054.6 512.143,1055.12 509.712,1056.16L509.712,1073.24L503.359,1073.24L503.359,1050.97L509.712,1050.41L509.712,1052.58C512.888,1051 515.946,1050.21 518.887,1050.21Z" style="fill:rgb(52,52,52);fill-rule:nonzero;"/>
        </g>
        <g transform="matrix(0.991753,0,0,1.15789,113.259,111.398)">
            <path d="M547.767,1061.65L556.825,1072.88L556.825,1073.24L549.414,1073.24L543.65,1065.23L537.356,1073.24L530.592,1073.24L530.592,1072.88L539.827,1061.75L531.121,1051.22L531.121,1050.92L538.415,1050.92L543.944,1058.22L549.532,1050.92L556.119,1050.92L556.119,1051.22L547.767,1061.65Z" style="fill:rgb(52,52,52);fill-rule:nonzero;"/>
        </g>
        <g transform="matrix(0.991753,0,0,1.15789,113.259,111.398)">
            <path d="M564.472,1046.89C563.727,1046.89 563.021,1046.74 562.354,1046.43C561.727,1046.1 561.217,1045.66 560.825,1045.12C560.433,1044.55 560.237,1043.95 560.237,1043.31C560.237,1042.67 560.433,1042.09 560.825,1041.55C561.217,1040.98 561.727,1040.52 562.354,1040.19C563.021,1039.85 563.727,1039.68 564.472,1039.68C565.256,1039.68 565.981,1039.85 566.648,1040.19C567.314,1040.52 567.844,1040.98 568.236,1041.55C568.628,1042.09 568.824,1042.67 568.824,1043.31C568.824,1043.95 568.628,1044.55 568.236,1045.12C567.844,1045.66 567.314,1046.1 566.648,1046.43C565.981,1046.74 565.256,1046.89 564.472,1046.89ZM561.413,1073.24L561.413,1050.97L567.765,1050.41L567.765,1073.24L561.413,1073.24Z" style="fill:rgb(52,52,52);fill-rule:nonzero;"/>
        </g>
        <g transform="matrix(0.991753,0,0,1.15789,113.259,111.398)">
            <path d="M597.645,1059.79C597.645,1060.83 597.586,1061.95 597.469,1063.16L579.941,1063.16C580.098,1065.38 580.823,1067.01 582.117,1068.05C583.45,1069.09 585.097,1069.61 587.058,1069.61C588.469,1069.61 589.744,1069.46 590.881,1069.16C592.018,1068.82 593.312,1068.3 594.763,1067.59L596.998,1071.12C595.586,1071.96 593.998,1072.63 592.234,1073.14C590.508,1073.64 588.626,1073.89 586.587,1073.89C584.078,1073.89 581.843,1073.51 579.882,1072.73C577.961,1071.96 576.431,1070.72 575.294,1069.01C574.157,1067.29 573.588,1065.08 573.588,1062.36C573.588,1060 574.079,1057.92 575.059,1056.11C576.039,1054.26 577.49,1052.82 579.411,1051.78C581.333,1050.73 583.646,1050.21 586.352,1050.21C588.783,1050.21 590.842,1050.63 592.528,1051.47C594.214,1052.28 595.488,1053.42 596.351,1054.9C597.214,1056.34 597.645,1057.97 597.645,1059.79ZM586.411,1054.14C584.685,1054.14 583.313,1054.6 582.294,1055.5C581.274,1056.41 580.588,1057.7 580.235,1059.38L591.528,1059.38L591.528,1059.23C591.528,1057.49 591.057,1056.21 590.116,1055.4C589.214,1054.56 587.979,1054.14 586.411,1054.14Z" style="fill:rgb(52,52,52);fill-rule:nonzero;"/>
        </g>
        <g transform="matrix(0.991753,0,0,1.15789,113.259,111.398)">
            <path d="M619.996,1072.38C617.722,1073.39 615.369,1073.89 612.938,1073.89C611.409,1073.89 610.036,1073.64 608.821,1073.14C607.605,1072.63 606.644,1071.84 605.939,1070.77C605.233,1069.69 604.88,1068.35 604.88,1066.74L604.88,1055.2L599.88,1055.2L599.88,1050.92L604.88,1050.92L604.88,1045.88L611.232,1045.08L611.232,1050.92L619.349,1050.92L618.702,1055.2L611.232,1055.2L611.232,1065.88C611.232,1067.12 611.487,1068.03 611.997,1068.6C612.546,1069.17 613.33,1069.46 614.35,1069.46C614.938,1069.46 615.526,1069.39 616.114,1069.26C616.702,1069.12 617.408,1068.92 618.232,1068.65L619.996,1072.38Z" style="fill:rgb(52,52,52);fill-rule:nonzero;"/>
        </g>
        <g transform="matrix(0.991753,0,0,1.15789,113.259,111.398)">
            <path d="M647.347,1050.92L647.347,1051.22L638.347,1073.74C637.446,1076.02 636.446,1077.86 635.348,1079.23C634.25,1080.64 632.975,1081.67 631.525,1082.31C630.074,1082.94 628.348,1083.26 626.349,1083.26C624.584,1083.26 622.761,1082.99 620.878,1082.46L622.525,1078.48C623.623,1078.78 624.721,1078.93 625.819,1078.93C626.76,1078.93 627.584,1078.81 628.29,1078.58C628.995,1078.34 629.662,1077.86 630.289,1077.12C630.956,1076.41 631.603,1075.35 632.23,1073.94L632.524,1073.24L630.819,1073.24L620.937,1051.22L620.937,1050.92L627.643,1050.92L633.054,1064.17C633.681,1065.65 634.171,1066.99 634.524,1068.2C635.152,1066.25 635.603,1064.91 635.877,1064.17L640.818,1050.92L647.347,1050.92Z" style="fill:rgb(52,52,52);fill-rule:nonzero;"/>
        </g>
        <g transform="matrix(0.991753,0,0,1.15789,113.259,111.398)">
            <path d="M657.169,1061.3C657.169,1059.62 657.562,1058.16 658.346,1056.91C659.169,1055.64 660.561,1054.33 662.522,1052.98C663.894,1052.04 664.816,1051.26 665.286,1050.62C665.796,1049.98 666.051,1049.27 666.051,1048.5C666.051,1047.36 665.58,1046.47 664.639,1045.83C663.737,1045.16 662.404,1044.82 660.64,1044.82C659.189,1044.82 657.718,1045.12 656.228,1045.73C654.777,1046.33 653.425,1047.12 652.17,1048.1L648.582,1044.57C650.19,1043.16 652.111,1042.04 654.346,1041.2C656.62,1040.36 658.954,1039.94 661.345,1039.94C663.581,1039.94 665.58,1040.26 667.345,1040.89C669.11,1041.5 670.502,1042.42 671.521,1043.66C672.541,1044.91 673.05,1046.4 673.05,1048.15C673.05,1049.69 672.678,1051.02 671.933,1052.13C671.227,1053.24 669.953,1054.36 668.11,1055.5C666.384,1056.58 665.188,1057.6 664.522,1058.58C663.855,1059.55 663.522,1060.73 663.522,1062.1L663.522,1062.66L657.169,1063.21L657.169,1061.3ZM660.287,1073.79C659.542,1073.79 658.836,1073.62 658.169,1073.29C657.542,1072.99 657.032,1072.57 656.64,1072.03C656.287,1071.49 656.111,1070.9 656.111,1070.26C656.111,1069.63 656.287,1069.04 656.64,1068.5C657.032,1067.96 657.542,1067.54 658.169,1067.24C658.836,1066.91 659.542,1066.74 660.287,1066.74C661.032,1066.74 661.718,1066.91 662.345,1067.24C663.012,1067.54 663.522,1067.96 663.875,1068.5C664.267,1069.04 664.463,1069.63 664.463,1070.26C664.463,1070.9 664.267,1071.49 663.875,1072.03C663.522,1072.57 663.012,1072.99 662.345,1073.29C661.718,1073.62 661.032,1073.79 660.287,1073.79Z" style="fill:rgb(52,52,52);fill-rule:nonzero;"/>
        </g>
        <g transform="matrix(0.587887,0,0,0.587887,-85.9357,79.6285)">
            <path d="M565.992,2445.72L865.415,2345.76C865.415,2345.76 1037.72,2402.22 1162.94,2400.78C1489.93,2397.05 1715.98,2254.8 1774.24,2091.89C1788.87,2046.08 1811.13,1903.18 1728.57,1805.3" style="fill:none;stroke:rgb(52,52,52);stroke-width:17.72px;"/>
        </g>
        <g transform="matrix(0.587887,0,0,0.587887,-85.9357,79.6285)">
            <path d="M868.806,2293.51L864.944,2341.78" style="fill:none;stroke:rgb(52,52,52);stroke-width:17.72px;"/>
        </g>
        <g transform="matrix(0.587887,0,0,0.587887,-85.9357,79.6285)">
            <path d="M920.936,2312.82L917.074,2355.29" style="fill:none;stroke:rgb(52,52,52);stroke-width:17.72px;"/>
        </g>
        <g transform="matrix(0.587887,0,0,0.587887,-85.9357,79.6285)">
            <path d="M976.154,2326.64L973.683,2366.18" style="fill:none;stroke:rgb(52,52,52);stroke-width:17.72px;"/>
        </g>
        <g transform="matrix(0.587887,0,0,0.587887,-85.9357,79.6285)">
            <path d="M1031.76,2341.78L1026.82,2376.07" style="fill:none;stroke:rgb(52,52,52);stroke-width:17.72px;"/>
        </g>
        <g transform="matrix(0.587887,0,0,0.587887,-85.9357,79.6285)">
            <path d="M1076.24,2345.76L1078.71,2393.37" style="fill:none;stroke:rgb(52,52,52);stroke-width:17.72px;"/>
        </g>
        <g transform="matrix(0.587887,0,0,0.587887,-85.9357,79.6285)">
            <path d="M1125.67,2345.18L1128.14,2387.19" style="fill:none;stroke:rgb(52,52,52);stroke-width:17.72px;"/>
        </g>
        <g transform="matrix(0.587887,0,0,0.587887,-85.9357,79.6285)">
            <path d="M1202.28,2348.88L1203.52,2397.08" style="fill:none;stroke:rgb(52,52,52);stroke-width:17.72px;"/>
        </g>
        <g transform="matrix(0.587887,0,0,0.587887,-85.9357,79.6285)">
            <path d="M1263.41,2345.76L1267.77,2387.19" style="fill:none;stroke:rgb(52,52,52);stroke-width:17.72px;"/>
        </g>
        <g transform="matrix(0.587887,0,0,0.587887,-85.9357,79.6285)">
            <path d="M1325.82,2345.76L1332.03,2377.3" style="fill:none;stroke:rgb(52,52,52);stroke-width:17.72px;"/>
        </g>
        <g transform="matrix(0.587887,0,0,0.587887,-85.9357,79.6285)">
            <path d="M1380.22,2322.93L1383.92,2367.42" style="fill:none;stroke:rgb(52,52,52);stroke-width:17.72px;"/>
        </g>
        <g transform="matrix(0.587887,0,0,0.587887,-85.9357,79.6285)">
            <path d="M1439.53,2306.87L1440.76,2352.59" style="fill:none;stroke:rgb(52,52,52);stroke-width:17.72px;"/>
        </g>
        <g transform="matrix(0.587887,0,0,0.587887,-85.9357,79.6285)">
            <path d="M1485.25,2285.87L1471.66,2340.23" style="fill:none;stroke:rgb(52,52,52);stroke-width:17.72px;"/>
        </g>
        <g transform="matrix(0.587887,0,0,0.587887,-85.9357,79.6285)">
            <path d="M1528.5,2267.33L1533.44,2316.76" style="fill:none;stroke:rgb(52,52,52);stroke-width:17.72px;"/>
        </g>
        <g transform="matrix(0.587887,0,0,0.587887,-85.9357,79.6285)">
            <path d="M1584.1,2231.5L1563.1,2306.87" style="fill:none;stroke:rgb(52,52,52);stroke-width:17.72px;"/>
        </g>
        <g transform="matrix(0.587887,0,0,0.587887,-85.9357,79.6285)">
            <path d="M1631.06,2206.78L1622.41,2264.86" style="fill:none;stroke:rgb(52,52,52);stroke-width:17.72px;"/>
        </g>
        <g transform="matrix(0.587887,0,0,0.587887,-85.9357,79.6285)">
            <path d="M1675.29,2160.07L1666.4,2235.2" style="fill:none;stroke:rgb(52,52,52);stroke-width:17.72px;"/>
        </g>
        <g transform="matrix(0.587887,0,0,0.587887,-85.9357,79.6285)">
            <path d="M1715.82,2110.65L1711.87,2180.83" style="fill:none;stroke:rgb(52,52,52);stroke-width:17.72px;"/>
        </g>
        <g transform="matrix(0.587887,0,0,0.587887,-85.9357,79.6285)">
            <path d="M1743.5,2066.16L1750.42,2134.37" style="fill:none;stroke:rgb(52,52,52);stroke-width:17.72px;"/>
        </g>
        <g transform="matrix(0.587887,0,0,0.587887,-85.9357,79.6285)">
            <path d="M1755.36,2019.7L1781.03,2045.48" style="fill:none;stroke:rgb(52,52,52);stroke-width:17.72px;"/>
        </g>
        <g transform="matrix(0.587887,0,0,0.587887,-85.9357,79.6285)">
            <path d="M1761.3,1971.27L1782.21,1988.62" style="fill:none;stroke:rgb(52,52,52);stroke-width:17.72px;"/>
        </g>
        <g transform="matrix(0.587887,0,0,0.587887,-85.9357,79.6285)">
            <path d="M1760.85,1919.24L1783.94,1947.55" style="fill:none;stroke:rgb(52,52,52);stroke-width:17.72px;"/>
        </g>
        <g transform="matrix(0.587887,0,0,0.587887,-85.9357,79.6285)">
            <path d="M828.122,2305.39L823.179,2350.86" style="fill:none;stroke:rgb(52,52,52);stroke-width:17.72px;"/>
        </g>
        <g transform="matrix(0.587887,0,0,0.587887,-85.9357,79.6285)">
            <path d="M783.638,2323.06L773.753,2371.62" style="fill:none;stroke:rgb(52,52,52);stroke-width:17.72px;"/>
        </g>
        <g transform="matrix(0.587887,0,0,0.587887,-85.9357,79.6285)">
            <path d="M736.188,2338.01L732.234,2387.44" style="fill:none;stroke:rgb(52,52,52);stroke-width:17.72px;"/>
        </g>
        <g transform="matrix(0.587887,0,0,0.587887,-85.9357,79.6285)">
            <path d="M691.704,2361.74L686.762,2403.25" style="fill:none;stroke:rgb(52,52,52);stroke-width:17.72px;"/>
        </g>
        <g transform="matrix(0.587887,0,0,0.587887,-85.9357,79.6285)">
            <path d="M639.312,2373.6L630.415,2422.03" style="fill:none;stroke:rgb(52,52,52);stroke-width:17.72px;"/>
        </g>
        <g transform="matrix(0.587887,0,0,0.587887,-85.9357,79.6285)">
            <path d="M598.782,2389.41L589.886,2431.92" style="fill:none;stroke:rgb(52,52,52);stroke-width:17.72px;"/>
        </g>
        <g transform="matrix(0.587887,0,0,0.587887,-85.9357,79.6285)">
            <g transform="matrix(1,0,0,1,1.51838,0)">
                <path d="M565.385,2403.06L563.289,2443.02" style="fill:none;stroke:rgb(52,52,52);stroke-width:17.72px;"/>
            </g>
        </g>
    </g>
</svg>
